<svg xmlns="http://www.w3.org/2000/svg" viewBox="0 0 800 600"><defs><style>.svgfb{fill:none;stroke-miterlimit:10;stroke-width:5px;}.svgfb,.svgfb2{stroke:#FFCB9B;}.svgfb2{fill:#FFCB9B;}</style></defs><circle class="svgfb" cx="399.5" cy="300.5" r="141"/><g ><path class="svgfb2" d="M413.28,360.26v42.36a19.12,19.12,0,0,1-.06,2.14,4.45,4.45,0,0,1-4.65,4.22h0q-18.42,0-36.84,0a4.35,4.35,0,0,1-4.6-4.05,23.6,23.6,0,0,1-.21-3.36V318.09c0-3.93.23-3.5-3.62-3.5H340a5.1,5.1,0,0,1-5.83-5.61q-.11-16.87,0-33.81c0-3.86,2-5.59,5.82-5.6,8.37,0,16.73,0,25.1,0,1.51,0,1.88-.44,1.86-1.91-.08-6.82-.08-13.64,0-20.5a66.56,66.56,0,0,1,4.93-26.92,45.62,45.62,0,0,1,23.63-24,54.14,54.14,0,0,1,22.63-4.71H446.6a5,5,0,0,1,5.72,5.3c0,.53,0,1.07,0,1.61V226.9a17.82,17.82,0,0,1-.26,3,4.37,4.37,0,0,1-3.86,3.85,20.14,20.14,0,0,1-3,.24q-9.62.06-19.22.09a20,20,0,0,0-5.25.89,8.94,8.94,0,0,0-6.74,7.29,27.65,27.65,0,0,0-.71,5.81c0,6.41.08,12.82,0,19.22,0,1.87.6,2.27,2.36,2.25,9.79-.07,19.58,0,29.37,0,4.14,0,5.91,1.62,5.93,5.77q.09,16.74,0,33.47c0,4.11-1.8,5.77-5.95,5.77-9.79,0-19.58,0-29.36,0-1.81,0-2.34.48-2.33,2.3C413.31,331.3,413.28,345.78,413.28,360.26Z"/></g></svg>