<svg xmlns="http://www.w3.org/2000/svg" viewBox="0 0 800 600"><defs><style>.svglinked{fill:#FFCB9B;}.svglinked2{fill:none;stroke:#FFCB9B;stroke-miterlimit:10;stroke-width:5px;}</style></defs><g><g><path class="svglinked" d="M491.52,370.86c.1,3-1.49,3.4-3.91,3.39-10.28-.05-20.55-.18-30.83.05-4.9.11-3.85-3.11-3.86-5.82,0-16.61.05-33.23-.05-49.83a112.2,112.2,0,0,0-.73-14.2A17.77,17.77,0,0,0,435,287.11a20.08,20.08,0,0,0-20.9,15.6,54.64,54.64,0,0,0-1.15,11.75c-.11,18.2-.17,36.39,0,54.59.05,4.09-1,5.41-5.23,5.28-9.23-.32-18.47-.27-27.68,0-4,.11-5.45-.83-5.4-5.17q.25-52.23,0-104.43c0-4.17,1.13-5.46,5.27-5.33,8.44.29,16.89.48,25.31,0,6-.37,8.78,1.26,7.69,7.64a67.74,67.74,0,0,0-.05,8.43c13.27-18.31,30-21.85,48.72-16.58a38.69,38.69,0,0,1,28.16,33.85C493.7,318.58,490.7,344.81,491.52,370.86Z"/><path class="svglinked" d="M356.09,224.41A20,20,0,0,1,335.6,244l-.71,0a20.4,20.4,0,0,1-21.8-18.91c0-.32,0-.65,0-1a20.15,20.15,0,0,1,20.46-19.84c.45,0,.9,0,1.35.07A19.47,19.47,0,0,1,356,221.9,19.13,19.13,0,0,1,356.09,224.41Z"/><path class="svglinked" d="M354,368.28c.09,5-1.42,6.25-6.19,6.07-9.19-.37-18.44-.29-27.65,0-3.86.12-4.83-1.19-4.81-4.93q.18-52.56,0-105.1c0-3.79,1.17-5,4.93-4.87,9.48.22,19,.27,28.44,0,4.24-.13,5.28,1.32,5.23,5.41-.2,17.64-.1,35.29-.1,52.95C353.85,334.58,353.64,351.44,354,368.28Z"/></g></g><circle class="svglinked2" cx="399.5" cy="300.5" r="141"/></svg>