<svg id="brushsvg" xmlns="http://www.w3.org/2000/svg" viewBox="0 0 2125.68 634.67"><defs><style>.brushsvg{fill:#106466;}</style></defs><path class="brushsvg" d="M1798.27,382.7a9.43,9.43,0,0,1-9.61,0c-1.17-.67-2.38.64-2.75,1.4-.72,1.51-2.21,1.8-3.25,2.58.24,1.59,1.84.73,2.36,1.67-.09.16-.16.48-.29.51a13.06,13.06,0,0,1-7.33-.16,3.4,3.4,0,0,0-3.19.4c-2,1.18-4.51,1.38-6.09.31-3.35-2.26-6.87-1.67-10.41-1.86-1.73-.09-3.45-.41-5.16-.66-.72-.11-1.9.72-2-.81-.06-1,.8-1.11,1.5-1.36,2.16-.75,4.62-.93,4.62-4.32,0-1.43,2.75-1.06,3.3-2.66.79-2.28.94-4.72,1.85-7,.23-.59,0-4.17-3.83-3.36a20,20,0,0,1-10.27-1.15c-4.18-1.45-5.86-.34-5.92,2.77,0,1.87.31,3.2,2.61,3.14.76,0,2-.29,2,1a2.52,2.52,0,0,1-.92,2.33c-1.23.86-2.45,2-4.06,1.56-3-.77-6,.12-9.05.08-1.9,0-4-.59-5.34,1.65-.52.86-1.83.54-2.81.21a4.72,4.72,0,0,0-4.33.18c-2.86,1.94-5.11.54-6.85-1.47a9.49,9.49,0,0,0-9.86-3.32c-1.24.27-1.56-.49-2-1.13-1.51-2-3.42-1.41-5-.51-3.44,1.91-.16,3,.73,4.38-3.37,2.9-6.4,2.82-11.56-.16-2-1.12-3.6-1.87-6.11-.13-3.31,2.3-6.91,1.07-10-1.85,1.65-1.48,3-3.4,5.66-1.53a1.2,1.2,0,0,0,1.62-.53,1.11,1.11,0,0,0-.64-1.55,8.5,8.5,0,0,1-3.53-3.19l-2.56,3a3.57,3.57,0,0,1-2.63,1c-2.56-5-8.07.89-11.08-3-.69-.9-3-.33-3.34,1.71-.33,2.32-1.86,2.61-3.63,2.71-.92-1.21,1.53-2,.17-3-.87-.66-1-3.68-3.15-.62-1.47,2.1-3.72,4.3-7.22,2.13-2-1.21-5.14,1.07-6.2.65-2.56-1-4.61-.24-6.86,0-1,.1-2.72-.55-2.73,1.05s1.78,2.08,3.09,2.05c3-.06,4.32.05,1.38,2.93-1,1-.44,3.22-2.21,4.38-.9.59-.16,1.84.9,2.34.86.4,2,0,2.68,1-.29,1.45-1.53,1.23-2.39,1.13-7.86-.93-15.71.5-23.56,0-3.07-.2-4.79-2.46-6.56-5.15-.73,2.38-1.94,2.88-3.93,1.42-1.77-1.3-2.76-.59-2.79,1.57,0,.75.69,1.84-.78,2-1.25.18-1.88-.42-2-1.63a1.87,1.87,0,0,0-2.25-1.89c-1.28.07-1.69.86-1.8,2-.07.62-.17,1.34-.84,1.56-2.47.82-4.13,1.82-1.77,4.57.55.63,0,1.46-.71,1.87a1.62,1.62,0,0,1-2.32-.38c-1.53-2-3-1.51-4.77-.16s-4.66.88-5.83,2c-3.34,3.16-5.59.16-8.24-.59s-5.5.64-8.26-1a16.52,16.52,0,0,0-4-1.77c-2.34-.6-4-.92-4.69,2.23s-3.88,2-5.25,1.41c-4.25-1.82-8.53-.41-12.74-.86-.81-.09-1.39-.09-1.82-.87-.64-1.19-1.53-1.21-2.36-.21-1.89,2.28-3.78,1.6-5.82.21a8.7,8.7,0,0,0-10.23-.08c-1.06.8-2.52,1.44-1.56,3.24.77,1.45,1.4,2.76,3.6,2.45,3.09-.42,6.53,2,9.28-1.21,1.11,1.7,3.16,1.69,4.6,2.59,1.28.8-.2,1.51-1.23,1.63-4.41.54-8.81,1.19-13.23,1.5-2.24.16-3.61.7-3.56,3.19,0,1.1-.41,1.95-1.71,2-1,0-2.05.1-2.41-1.2-.16-.61-.57-1.56-1-1.32-2.54,1.31-4.75,1.72-6.87-.85-.43-.53-1.37.4-1.31,1.25.23,3.59-1.31,1.9-2.67.95-1-.71-2-1.37-3.09-2a1.42,1.42,0,0,0-2,.26c-.6.72-.36,1.33.34,1.89s1.83,1.89.88,2.38c-1.37.71-3-.41-4.34-1.1-.89-.45-1-1.39,0-2.12s1.6-1.43.9-2.51a2.39,2.39,0,0,0-3.07-.61c-2.51,1.16-4.8,1.63-7.33,0a1.83,1.83,0,0,0-2.61.72,4.09,4.09,0,0,0-.08,2.52c.32,1.13,1.34,1.39,2.44,1.17.82-.17,1.6-.79,2.58-.08,0,.28,0,.68-.17.91-1,1.31-2.93,2.27-1.74,4.4a5.8,5.8,0,0,0,5.35,2.62,27.41,27.41,0,0,1,12.23,1.58c3.14,1.17,7.33-1.4,8.28-4.82,1.42-.09,1.9,1.41,3.11,1.83.88.31,1.45,1.54,2.36,2.6,1.6-3.74,6.25-2.48,8.43-5.53.63-.88,2.08.24,2.65,1.29,1.54,2.85,4.19,4.25,7.23,5.62.31-2.85.17-6.27,4.67-5.3a.75.75,0,0,0,.64-.33c1.78-3.62,3.36-1.68,4.74.41,1.34-1.22.8-2.54.87-3.72s.07-2.46-1.33-2.75c-1.24-.26-2.76.1-3.14,1.37-.55,1.79-1.55,1.74-2.77,1.14s-1.5-1.71-.81-3.11a17.57,17.57,0,0,0,1.2-3.89c.76-3.44,2.1-3.92,4.86-1.6.51.44.75,1.7,1.58,1.09,4.35-3.2,9.35.36,13.88-1.51,2.52-1,1.5,2.29,3,3.16,2.82-4.65,7.25-1.92,11-2.6-2.93,2.82-7,2.42-10.27,4.21-2.19,1.21-4.83,1.62-6.48,3.84-1,1.34-1.39,2.12.76,2.35s3,.74,2.19,3.34c-.45,1.46-.46,4.43,1.63,5.25s4.44,2.36,6.76-.46c1.75-2.14,4.41-.29,6.67-.5.1,1.44-2.39,1-1.58,2.58.6,1.17,1.6.69,2.62.58,1.33-.15,3.13.05,3.35,1.53.34,2.23-1.79,1.48-3,1.68-3.69.62-7.19-.31-10.63-1.53-.34-.12-.87-.56-.93-.5-2.77,2.85-5.89.18-8.77.62-1.29.2-3,.37-3.17,2.09-.23,2.05-.64,4.23,1.28,5.92a3.57,3.57,0,0,0,4.47.51,28.8,28.8,0,0,0,2.88-1.72c6.77-4.67,12.88-1.27,15.11,4.62,1.14,3,2.49,2.68,4.17.46.42-.57,1.29-1.51,1.52-1.4,3.8,1.84,8.33-.4,11.89,2.06a6.55,6.55,0,0,0,4.6,1c6.09-.48,12.11.54,18.16.82,1.13.05,3-.16,1.66,2-.54.9-.25,1.47.67,1.61s2,.24,2.53-1c.93-2.06,4.68-3.49,6.73-2.48a8.27,8.27,0,0,0,7.83.13,7.49,7.49,0,0,1,3.93-1.07c2.37.2,3.51-.5,4.5-3.14a6.39,6.39,0,0,1,7-4.34c4.49.75,7.43-2.38,10.35-4.68,1.34-1.06,2.37-3.46,3.4-5.33s.25-3.45-2-3.65-4.36-.11-6.06,2c-.63.78-1.81,3.06-3.69.74-.67-.82-1.41.27-1.2,1,.46,1.57-.27,2.55-1.17,3.65s-1.67,3-3.42,1.54c-1.2-1-3-2-1.9-4.42,1.3-2.8,0-4.21-3.16-3.7-1.76.27-3.27,1.1-4-1.58-.34-1.19-1.89-2.26-3.06-.23-.53.93-1.45.83-2.28,1a1.46,1.46,0,0,0-1.25,1.6,1.48,1.48,0,0,0,1.38,1.5c.85.17,1.82.76,2.52.51,3.93-1.38,5.76,1.85,8.07,3.69,2.11,1.68,1.67,4.36,1.17,6.65s-2.32,1.18-3.71,1a3.52,3.52,0,0,0-2.37.88c-1.22.83-3.15,1.05-3.89.22-2.43-2.75-6.27-1.52-8.84-3.58a1.16,1.16,0,0,0-1.9.27,3.58,3.58,0,0,1-.75.69,68,68,0,0,1-6.19-6.65c-.77-1,.11-2,1.75-1.69a35.2,35.2,0,0,0,3.72.27c1.77.18,2.94-1,2.74-2.32-.4-2.68.14-5.65-1.82-8-.19-.24-.33-.89-.22-1,.37-.26.94-.6,1.3-.49,2.43.78,4,.06,5.17-2.25.64-1.3,1.43-.45,1.93.32,1.4,2.15,3.43,2.73,5.84,2.49,1.88-.2,2.94.35,1.62,3,2.21-1.89,3.63-2.62,6.23-1.54a15.25,15.25,0,0,0,7.08.56c3.12-.35,6.73-.46,9.44.81,2.93,1.37,5.41,1,8.14.51,1.73-.31,3.34-.7,5,.4,1.41.94,3.13,1.15,1.25,3.56-1.44,1.87.58,3.7,2.2,3.49,1.8-.23,3.59.25,5.56,0-.85-2.32-2.93-3.62-3.62-6.68,11.71,2.95,23.35,2.57,34.91,4-1.32,2.19-2.75,4.38,1.37,5.71,1.94.62,2.63,5.71,1,8a3.19,3.19,0,0,1,4.11.49c.92-1.3-.06-2.16-.07-3.12,0-2.16,0-3.83,3-2.56,3.19,1.35,6.13.12,8.63-1.85,1-.76,1.76-1.49,2.91-.93s.61,1.64.44,2.62a5.46,5.46,0,0,0,3.15,6.13c2.61,1.4,11.19.56,13.13-1.65.91-1,1.66-.76,2.57-.72,5,.24,10,.36,14.94.86,1.6.16,3.71-2,4.61.18,1,2.49-1.88,2.59-3.23,3.67s-2.17,2.89-3.59,4.15a2.13,2.13,0,0,0,.69,3.23,5.35,5.35,0,0,0,1.35.63c2.24.71,5.2.75,6.55,2.24,1.5,1.67-.8,4.35-.71,6.71.1,2.57,0,3.68,3.77,3a29.15,29.15,0,0,1,13.43,1.16c1.3.41,3,1,3.68-.49a5.13,5.13,0,0,0-.34-4.9c-.46-.66-1.76-2.68-3.66-1-1.33,1.19-3,.08-4.18-.53-1.44-.75,1.88-1,.29-2.34-2.28,1.43-4.1-.05-6.43-1.53,1.8-1.21,3.43-.85,4.93-.77,1.79.1,3.69,1.08,4.69-1.47.34-.89,1.2-.57,1.91-.17,1,.58,1.92,1.68,3.34,1.2-1.3-1.67,1.31-3.32-.17-5.28-1.23-1.63-2.32-3.1-4.24-3.89-.9-.37-2-1-1.45-2.2.73-1.5,1.64-.22,2.45.13a13.08,13.08,0,0,1,3.93,2.05c1,.88,2.74,1.86,3.74,1.1,3.28-2.51,6.85.21,10.14-1a2.11,2.11,0,0,1,1.7.59c1.79,1.77,3.44,3.14,5-.23a1.43,1.43,0,0,1,1.29-.46c4.24,2.6,6.53-.94,9.25-2.94,1-.74,2-1.23,3.07-.63s.79,1.73.77,2.7c0,1.47-.89,2.13-2.2,1.64-2-.76-2.57.74-3.48,1.77.68,1.38,1.58.63,2.33.43a18.18,18.18,0,0,1,10,.19c1.48.44,3.08.58,3.2-1.27.29-4.51,4-4.39,6.71-4.69a7.7,7.7,0,0,1,6,1.64c-.34.91-1.17,1.16-2,1.55-1.78.87-1.77,2.53-1.72,4.19.07,2,1.58,1.88,3,2,2.14.16,2.68,1.11,1.29,2.87-1.12,1.42-.89,3.6-2.83,4.64a1.07,1.07,0,0,0,.24,2c1.51.46,1.74,2,3,3,1.38-2.31,3.89-2.91,6-4,1.13-.57,3.49-1.68,3.77,1.54a.89.89,0,0,0,1.76.18c.11-2.42,3.4-4.72.35-7.29-.72-.62-.1-1.37.23-2s1-.87,1.17-.59c1.58,2.8,4.32.8,6.42,1.58s4.53,1,3.54,4.34a2.14,2.14,0,0,0,1,2.26c.75.53,1.44,0,2-.48a1.86,1.86,0,0,0,.32-2.68c-.68-1-1.59-2.07-.66-2.95s2.14.08,3.26.62c1.8.87,3.75,1.59,4.73-1.35.6-1.82,1.71-1.54,2.6-.07,1.31,2.15,2.47,2.33,4.22.24,1.09-1.3,2.46-1,4.49-.63,4,.73,7.08,5.87,11.88,2.95a1.85,1.85,0,0,1,1.33.05c.58,2.9,5.3,3.76,3.38,8.16-1.5,3.44,2.48,3.08,4.3,3.63,2.07.63,4.42.26,6.24,1.94a1.84,1.84,0,0,1,.61,2.31c-.62,1.14-1.61.42-2.17-.1-1.31-1.22-2.75-1.36-3.28.31-1.08,3.41-3.1,1.73-4.53.87-1.17-.7-1.78-1.44-3.1-.29a2.36,2.36,0,0,1-2.82-.18c-2.75-1.93-5.25-.22-7.79.55a2.08,2.08,0,0,0-1.39,2.71c.32,1.34,1.36.91,2.37,1a50.08,50.08,0,0,1,8.18,1.37c3.8,1,7.9,1.48,10.48,5.15.53.75,1.48.13,2.33-.23,3-1.26,5.3-4.73,9.41-2.69.7.34,3.29.21,3.75-1.62s-1.18-2.85-2.47-3.3c-2.26-.79-3.64-2.74-5.82-3.68-2-.84-2.44-2.58-.35-4.53,3.38-3.16,3.14-4.86-1-7.94,3.31.42,4.85-1.69,6.84-3.91.37,1.63-.57,5,2.55,2.38a1.48,1.48,0,0,1,1.43,0c4,3.29,9.87.43,13.55,4.51-.6.77-1.45,2-2.43,3.06a2.1,2.1,0,0,0-.75,1.94c.16,1,2.75,1,1.11,2.39-1.09.9-2.6.45-3.72-.64-.16-.16-.64,0-1.07,0,2.87,3.33,2.85,3.3-1.11,5.9-1.69,1.11-3.45,2.5-2.58,4.79s2.53,3.37,5,1.81c1.25-.78,2.22.51,2.94,1,5.45,3.75,11,3.76,17.26,2.05,3.3-.89,7.09-1.71,10.79-1,5.62,1,6.79-.4,5.11-6.71-1.36,3-3.83,3.66-6.43,3.72-2.43.06-2.59-2.15-3.32-3.77,1.19-.69,1.49.1,2.12.79,1.43,1.54,3.07.28,2.86-.91-.84-4.91,4-2.19,5.23-4.22,1.71,2.41,4.1.32,6.09.92.65.19,1.26.4,1.19,1.16-.11,1-.72.59-1.31.37-1.2-.45-1.52.52-1.84,1.31-.48,1.15.44,1.72,1.21,1.95,1.78.52,2.24,1.66,2.2,3.35-.07,3.47,2.32,4.78,5.19,5.17a18.67,18.67,0,0,1,7,2.17c1.72,1,3.87,1.86,4.61-1.35.25-1.07.78-1.48,1.84-.62,3.43,2.78,7.72.64,11.47,1.88,1,.33,1.59-1,1.55-2.11s-.62-1.48-1.69-1.49c-2.5,0-5,0-7.47-.24-3.31-.33-3.89-1.12-3.67-4.1.1-1.43,1.09-1.55,2.13-1.36s1.87.71,2.9.4a1.4,1.4,0,0,0,1-1.75c-.15-.94-.74-1.33-1.57-.68-1.84,1.45-2.35-.51-3.16-1.3a1.27,1.27,0,0,1,.43-1.93c1.08-.74,2.32-1.35,3.4-.25,1.66,1.71,3.2,1.57,4.87.13a2.4,2.4,0,0,1,.67-.3c2.47-.93,5-.72,6.24,1.59,1.49,2.77-1.39,3.32-4,4.53,2.36.35,2.1,3.06,4.43,2.46,4.84-1.25,4.84-1.24,6-4.85,1.61.05,1.45,1.56,1.8,2.44.5,1.27,1.07,2.3,2.51,2.41,3.44.26,6.54,2.13,10.32,1.32,2.88-.62,6.09.21,9.13.55,1.22.14,1.77,1.16,1,2.19-1.6,2-.21,3.33,1,4.44a6.73,6.73,0,0,1,2,2.48c.64,1.48,1.74,2.68,3.82,1.87a5.11,5.11,0,0,1,2.55.16c3.92.73,6.18-.55,7-4,.31-1.34-.65-1.69-1.63-2.07-1.67-.66-2.35-2-1.71-3.59.73-1.87,1.79-.27,2.7,0,1.79.49,2.25-1.85,3.87-1.78,1,1.43,0,2.57-.65,3.73-1.88,3.18-1.63,4.93,1.72,6,2.79.86,5.59,2.74,8.94.77,2.39-1.41,5.27-1.12,8-.11s5.14,1.23,7.75-.63c2.05-1.45,4.57-1.63,6.1,1.06.79,1.4,2.31,1.67,4,2.85l-10.21,1.76c-.49.08-1.2,0-1.43.29-4.53,5.73-8.85.73-13.15-.38-1.17-.3-1.51.17-2.18.57a8.75,8.75,0,0,1-7.44,1.25c-1.62-.46-5.71-1-4.32,2s5.41,4.69,8.34,6.88c.25.19.93-.16,1.4-.32.79-.27,1.17-2.67,2.31-.67.62,1.08.81,3-.7,3.65-1.32.57-2.15,2-4.74.31s-6.85-3.75-10.78-1.65a3.27,3.27,0,0,1-4.33-.69c-1.63-1.56.67-1.89.86-2.91.31-1.63,1.4-3.11,2-4.72.67-1.87.15-3.28-1.77-4.29-1-.54-1.61-.74-1.89.5-1.39,6.22-6.6,7.56-11.62,9.07-1.11.33-2.23.36-2.61,1.69-.86,3-3.17,1.61-4,.64-1.57-1.92-4.13-3.87-2.17-7.11.59-1,.5-2.68-.68-2.91-2.31-.46-4.22-3.17-6.93-1.36-1.89,1.26-3.3,4.51-6.19,1.33-.37-.41-.93.1-1.1.62-1.17,3.55-4.59,3.77-7.37,4.89a6,6,0,0,0-1.89,1.05c-1.94,1.79-3.82,2.31-6.19.31s-5-2.07-8.45-.7c-4.59,1.83-10.08,3.7-14.39-1.43-.57-.67-1.17-.31-1.46.33a2.77,2.77,0,0,1-2.64,1.78c-6.3-.72-13.21.38-18.59-3.25-2.74-1.84-5.51-2.13-8.24-3.17-.23-.08-.62.25-.89.38-.18,1.27.87,1.09,1.45,1.41s.77.72.53,1.2a1.17,1.17,0,0,1-1,.47c-1.68-.17-3.8.14-5-.76-2.6-2-5.18-3.34-8.51-2.72-.84.16-1-.48-1.26-1-1.07-1.91-2.34-1.9-3.17.07s-2.06,1.9-3.24,1-2.69-1.79-2.3-3.52,1.82-1.8,3.29-1.25a3.32,3.32,0,0,0,2.55-.09c1-.44,2.28-.67,2-2.21a2.12,2.12,0,0,0-2.72-1.87c-2.55.5-5.14,2.15-7.27-.84,0-.06-.26-.07-.36,0-5,2.51-9.25-1.5-14-1.36a10.26,10.26,0,0,0-3.92.95c-.65.31-1.61,1-1.52,1.94s1.11.91,1.75,1.16a4.94,4.94,0,0,1,2.85,2.18c.44.79,2.41.33,2,1.72s-1.86,1.49-3.15,1.5l-7.8.09c-.72,0-1.63.31-1.42-.95.31-1.76.34-2.88-1.54-.91-.14.15-.54.3-.6.24-4.3-4.36-8.13-1-12.23.53-2.42.91-4.9,0-7-1.73-.92-.76-1.73-2.16-3.16-1.32-2.39,1.43-4.36,1.71-5.9-1.14-.42-.79-1.18-.54-1.94-.11-3.62,2.06-6.76,1.71-9.88-1-.52-.45-1.47-.69-1.13-1.67.24-.71,1-.67,1.57-.74,2-.21,3.38-1,3.12-3.28-.29-2.63-2.31-2.22-4-2.17a9,9,0,0,0-8.9,6.47c-.58,1.79-1.24,2.15-3.17,2-3.18-.2-6.73.34-9.56-.16-4.93-.88-9.94.06-14.88-1.72a30.66,30.66,0,0,0-13.32-1.69c-.37,0-.88.25-1.08.08-4.53-3.67-10.69-1.55-15.42-4.34-1.38-.81-2.69,0-4-.26-.86-.16-2.2-.18-2.43-1.36s.93-1.64,1.8-2.06a15,15,0,0,1,2.13-.65c1.54-.48,1.77-1.68,1.46-3a2,2,0,0,0-2.94-1.38c-4.76,2.59-8.17.94-11-3.11a2.63,2.63,0,0,0-3.87-.85c-1.06.59-1.9,1.52-3.33,1.49-3.44-.09-5.42.58-1.73,3.85.82.73.42,1.68-.26,2.62-1,1.35-1.68,2.86-3.72,2.43-6.23-1.31-12.59-.89-18.87-1.53a3.31,3.31,0,0,1-2.21-1.27c-1.24-1.42-2.51-1.58-4.3-.85-3.66,1.48-7.17-.89-10.89-.74-5.06.21-10.08-1.06-15.07-1.68-6.4-.79-12.81-2.3-19.35-2.17-1.69,0-4.51.66-3.9-2.89,0-.19-.73-.74-1.12-.74-3.27,0-6.9-1.5-9.44,2-.32.45-.83.93-1.16.6-3-3.07-7.52,0-11.13-3.21-2.15-1.92-7.67-1.71-10.87-.44-4.1,1.63-6.84-1.31-10.27-1.18-.68,0-1.68-.86-2-.61-3.07,2.12-6-.16-9-.17-6.46,0-13,.56-19.16-2.13-3.36-1.45-7.08-.42-10.58-.6a209.57,209.57,0,0,1-22.31-2.85c-3.88-.62-7.8-2.62-11.79-2-5.31.88-10-1.19-14.93-1.87a132.37,132.37,0,0,0-13.58-.82c-3-.11-5.81-1.27-8.81-1.12-1.56.08-1.39-1.36-1.81-2.37-1.29-3.12-3.89-3.49-5.93-.83-1.73,2.24-4.18,1.41-6.28,1.48-1.11,0-.43-1.46,0-2.05.65-.84,1.5-1.65.34-2.48-.94-.66-1.33.55-2,1-3.7,2.36-6.49,5.48-12.36,3.8a55.84,55.84,0,0,0-16.75-2c-2.69.08-6.64.32-9.28-2.32-.79-.8-1.82-.76-3,.11-2.94,2.16-5.84,1.74-8.31-1-1.44-1.57-2.88-2.37-5.22-1.69-2.18.63-4-.77-5.41-2.41-1.39,1.42-2.08,3.55-4.41,4-2.84.55-5.37-2.25-8.31-.66-.44.23-.6-.64-.72-1.09-.26-1-.55-1.91-.75-2.88-.83-3.94-4.37-1.58-6.21-2.76s-1.92-5-5.59-2.47c-1.12.78-3,.44-5.11.67,1.24-3.1,3-5.18,5.9-6.17a10,10,0,0,1,1.84-.28c-.82-4,5.19-4.06,4.6-7.75-.36-2.25,3.1-2.92,2-4.83-1.48-2.46-3.21,1.44-4.89.3-1.18-.81-1.64-.61-3,.22-2.21,1.38-.71-2.33-2.56-2.49-1.12,2.41-2.66,3.52-5.09,1.09-1-1-2.11-.75-2.7.61-1,2.21-3.11,3.91-2.76,6.72a2.16,2.16,0,0,1-1.85,2.47c-1.6.14-1.37-1.36-1.61-2.41a70.29,70.29,0,0,0-1.79-7.21c-.39-1.16-.76-3.32-2.37-2.8s-4.26,1.14-4.19,3.63c.08,3.14-.33,5.29-4.22,5.32a2.51,2.51,0,0,0-2.42,2.81c.29,1.63,1.76,1.66,3,1.52,2.67-.31,3.25,1.36,3.24,3.59,1.57-.51,1.81-1.92,3-2.52,2.32-1.22,4.43-3,6.67.05a3.2,3.2,0,0,0,2.25,1.16c3.7.59,4.88,3.44,2.57,6.6-1,1.4-2,2.27.12,3.44.9.5.77,1.53.4,2.35s-1,.38-1.59.31q-4.85-.56-9.7-.9c-6.38-.47-12.84-1.67-19.12-1.05-4.4.44-8.9-2.88-13.15.51-.92.73-2.34-.05-3-.88-2.14-2.61-4.75-1.58-7-.82-3.78,1.24-6.23.55-8.35-2.86-.5-.8-.91-2.13-2-2-1.35.18-.79,1.6-1,2.5-.41,2.15-1.85,2.57-3.63,2-2.36-.72-.83-2-.28-3.08,1.25-2.35-.47-3.59-1.7-5.14-1.67-2.09-3.57-1.38-5.38-.6-2.37,1-4.33,1.42-5.19-2.9-1.11,3.27-4,4.58-2.8,7.72.36,1-.82,1.53-1.47,1.95-1.09.7-1.29-.6-1.89-1.1-2-1.69-1.57-5.09-4.69-6.23-1.89-.68-9.1-.75-10.5.82-1.59,1.79.07,3.15.83,4.59a6.77,6.77,0,0,1-4.31,1.25c-1.76-.11-2.54,1.39-3.82,2.28-.48-.72-.84-1.92-1.39-2-5.12-.81-10.2-2.95-15.46-1.51-2.77.76-6.86-.85-7.72-3.75-.29-1-.37-2.06-1.53-2.33-4.6-1.07-8.77-3.17-13-5.25a2,2,0,0,0-.73-.12c-1.69-.13-7.6,4.53-7.41,6.17a2.64,2.64,0,0,1-2.72,3.08c-2.5-.64-4.84.77-7.36-.16-2.08-.75-4.45-1.35-6.76.34-1.19.87-2.93.08-4.3-.56-3.35-1.57-7-1.77-10.57-2.09-3-.27-6,1.63-9.28,0-1.55-.76-2.91,1.09-4.29,1.85-1.06.59-2.5.62-2.25-.5,1.19-5.3-3.33-7.06-5.93-10.69-1.47,4.4-4,3.89-7.13,2.52-3.5-1.52-7.48-.93-10.81.18-4.14,1.39-7.73.12-11.5-.6a14,14,0,0,0-4.45-.3c-3,.38-5.51.3-7.12-2.94-.59-1.19-2.22-2-3.53-2.64-1.85-.93-3.46-.37-3.22,1.9.27,2.61-1.71,2.81-3,2.69-7.67-.74-15.43,1.38-23.15-1.4-2.45-.88-6.29.84-9,2.28-2.15,1.14-3.59.71-5.73.47-6.74-.76-12.87-5-20.2-2.83-5,1.46-10.34-.36-15.58.05-5.54.44-11.16-.17-16.7.21-3.53.24-7,1.4-10.59.56-7.41-1.75-15-1.05-22.48-1.88a3.69,3.69,0,0,0-2.18.15c-5.32,2.59-10.82.46-16.23.6-2.1.06-4.19.37-6.3.45-3,.12-6.13,1.2-8.85-1.21a2.35,2.35,0,0,0-2.16-.15c-4.35,2.47-8.73-.28-13,.2-3.85.43-8.49-1.88-11.54,2.51a.94.94,0,0,1-1.6-.05c-2.71-4.61-5.3.12-7.93.16-1.09,0-1.16,1.45-1.05,2.48s.85,1.39,1.81,1.53c1.6.22,3.18.6,4.78.78,2,.22,2.56,1.5,2.21,3.16-.48,2.24-1.82.33-2.58.23-2.24-.3-3.84-.82-6.47.61-3,1.61-7.61,1.05-11.24.23-2.64-.6-5.22-1.05-7.63-.43a41.23,41.23,0,0,1-14.4.65c-6.14-.58-12.45.51-18.56-.19-6.59-.75-13.16,1.62-19.73-.5-1.83-.6-4.2.05-6.23.53-6.93,1.63-13.73.24-20.59-.48a30.06,30.06,0,0,0-12.29.93c-1.42.45-2-.62-2.81-1.34-1.54-1.36-3-2.52-4.23.41-.75,1.73-2.39,1.46-3.38.38-1.9-2.08-3.12-1.38-4.91.24-2.79,2.52-6.14.19-9.23.4-.6,0-1.3-.4-2.08-.16-6.63,2.08-13.48.88-20.16.68-2.72-.09-4.72,1.2-7.22,1.26-8.11.19-16.22.08-24.33.07-3.06,0-6.12.9-9.19,1.34-1,.15-1.7.53-1.68,1.61s.75,1.51,1.74,1.54c1.87,0,3.75,0,5.62.11,1.47.09,2.75.49.87,2-.78.64-.74,1.52-1,2.33-.48,1.48-2.3,1.62-2.59.84-1.5-4-4.79-1.93-7.25-2.26-1.06-.15-2.07.4-2.85-.85-1.13-1.8.91-1.17,1.29-1.79.77-1.27.79-2.74-.57-3.18a7.54,7.54,0,0,0-7.33,1.41c-1.5,1.45-3.53,4.52-1.25,6.54,1.87,1.65-.07,2.29-.11,4.07,2-2.18,3.85.26,5.88-1,1-.63,2.22,1.4,2.21,2.35,0,1.28-1.34.82-2.37.72a33.65,33.65,0,0,0-5.59,0c-.86.06-1.62.5-2.27-.52-1.3-2.05-2.67-.6-3.68.25-.8.66-.76,3-2.41,1.76-1.37-1-2.23-3.3-1-4.69,2.16-2.51,2.3-3.58-1.3-4.18-1.21-.2-.86-1.31.2-1.75a10.35,10.35,0,0,1,2.14-.55c1.27-.24,2.93.37,3.48-1.44a1.23,1.23,0,0,0-1.1-1.63c-1.65.14-3.31-2.18-5,.33-1.3,1.91-2.89,3.8-6,2.79-.94-.31-2.52.87-3.63,1.63-3.48,2.38-7,1.78-10.76.72a20.56,20.56,0,0,0-7.63-.15,3.05,3.05,0,0,1-3.1-1.21c-2.09-2.29-4.59-3.43-7.21-.58a2.25,2.25,0,0,1-2,.68c-1.68-.22-3.06-.51-4.59,1.11a2.6,2.6,0,0,1-4.25-1.22c-.43-1.05-.44-2.66-2.16-2.7-1.89-.05-1.47,1.6-1.9,2.67-.81,2-2.36,1.85-4.05,1.23-3.36-1.24-6.48-.67-9.72.78-1.85.83-4.32,1.51-6.13,1a16.07,16.07,0,0,0-9.73.11c-1.74.53-3.82,1.23-5.68-.38a1.8,1.8,0,0,0-2.43.28c-2.17,3.1-5.53,2.19-8.38,2.35a53.26,53.26,0,0,1-11.34-.26c-5.58-.88-11.11,1.63-16.79,1.28-8.45-.51-16.63,1.94-25,2.19-9,.28-17.91,1.58-26.88,1.95-5.55.22-11.11.77-16.7.41-2.28-.15-4.64,1.18-6.93,1.07-10.41-.48-20.63,1.39-30.94,2.1-6.73.47-13.47.9-20.2,1-2.47.05-4.3,1.93-6.83,1.62-1.74-.21-3.11-.27-3.41-2.49s-1.78-3-4-2.84c-3.71.25-7.43.27-11.14.35-2,0-3.43-1.41-5.44-1.79-4.64-.87-8.85.14-13.16,1.09-2.43.54-4.5,1.31-6.73-.95s-4.88.14-7.39.05a28,28,0,0,1-4.82-.16,40.61,40.61,0,0,0-16.14,0,9.76,9.76,0,0,1-4-.18c-2.52-.57-4.85-.47-6.95,1.22-.29.23-.82.65-.89.59-2.94-2.57-6.91-.32-10.27-2.34-1.67-1-5.41-3.89-7.73.68-.94,1.85-10.59,2.82-12.47,1.68-1.45-.88-2.76-.62-4.47-.36-4.88.76-9.66,2.9-15,.67-1.78-.75-5.28-3.21-7.37.6-3.17-2.21-6.31.33-9.29.05a26.89,26.89,0,0,0-9.87,1.28c-3.35.9-6.84.74-10.28.66-1.62,0-3.27-.43-4.77.42-2.75,1.56-4,.26-4.53-2.34-.21-1-.45-2.41-1.71-1.18-2.18,2.12-4.84,1.08-7.12,1.7-6,1.62-12.35,1.15-18.11,3.92-3.51,1.69-7.39,1.2-10.94-.61-.75-.39-1.55-1.58-2.23-1-3.93,3.18-7.21-.08-10.6-1.06-1.84-.54-2.74-.34-3.31,1.36-1.18-.74-.43-3.32-2.31-2.49s-.53,2.48.23,3.41c2,2.37.42,3.86-1.47,4-2.16.16-4.22,3.37-6.87.18-.67-.81-3.92.71-5.79,1.33-4.1,1.37-7.16-.15-10.35-2.1-.81,2.37-4.57,3.43-6.63,1.8-1.3-1-2-.14-2.14.85-.39,2.1-1.44,2.27-3.21,1.68-1.45-.48-3.28-.65-4.29.49-4.48,5.06-11.15.63-16,3.88-1.38-3.23-4.64-.77-6-1.71-3.09-2.16-4.68-1.38-6.23,1.31-1.44,2.51-3.49,2.11-5.46,1.09-1.43-.74-3-1.27-4.28-.63-2.25,1.14-3.68.75-4.62-1.52-1.33.81-1.35,2-1.76,3-.24.56-.37,1.59-.67,1.64-2.91.43-5.67,2-8.73,1.2-.86-.23-1.92-.62-.89-1.72.65-.69,2-1.05,1-2.26-.73-.88-1.62.11-2.44.15-1.13.06-2.32.1-2.48,1.67-.24,2.39.79,3.52,3.74,2.77-3.23,3.22-5.84,2.54-9.08-1.78-1.33,1.15-.18,4.08-2.94,4.14-.67-.72-.44-1.64-.57-2.48-.35-2.25-1.41-3.29-4-3.35-3.93-.08-7.65,1.93-11.69.83-2.14-.59-4.52-.42-2.57-3.68a1.4,1.4,0,0,0-.25-1.31c-.44-.4-.87,0-1.17.44-.38.63-1.29,1.39-1.14,1.81,1.92,5.65-2.86,4.36-5.41,5.22-3.24,1.08-6.47-1.89-9.82.59a11.27,11.27,0,0,1,2.81-7.11c1.09-1.28,1.85-2.11,3.68-1.64,1.49.38,8.59-4.2,9.11-5.61a2,2,0,0,0,.13-.73c0-1.05-.49-1.34-1.56-1.59-2-.47-2.85-5.08-5.86-1.66-1.32,1.49-2.23,3.27-4.07.65a.78.78,0,0,0-.65-.26c-5.65,1.45-11.78,1.2-16.83,4.73-.59.41-1,1.09-1.56,1.53-1.55,1.19-2.39,4.26-5.34,1.33-1.16-1.15-2.55,1-4.49,2.27,3.17.32,5.14,2.78,7.91.05,1-1,4.48-2.23,5.3-.29.68,1.6,1.68,5.3-2.23,6.18-.11,0-.27.14-.28.23-.58,3.31-1.91,6.76-1.38,9.89.28,1.64,3.78,1.32,5.84,0,1.57-1,3.25-2.22,4.88-.11.57.75,1.52,1.47,1,2.63a2.14,2.14,0,0,1-2.19,1.16c-4.92-.23-9.32,2.31-14.43,2.2-3-.06-6.37,3.47-10.09,3.64-7.1.32-13.48,4.08-20.62,4-2,3.48-7,.26-9.07,3.93-.69,1.2-2.32-.36-3.53,0-6,1.68-11.17,5.08-16.81,7.5a1.35,1.35,0,0,0-.71,1.6c.68,2.69-1.11,2.76-2.91,2.79-2.07,0-2.38-1.74-2.48-3-.2-2.31,1.4-2.77,3.38-2.42.07,0,.17-.16.37-.35-.61-2.35-2.62-2.54-5.12-2.78,1.88-1.71,2.72-3.35,1.78-5.59-1-2.45,1.28-3.75,2.32-5.48,2-3.34,3.8-6.33,8.44-7.21,4.92-.92,9.42-3.77,14.37-5.07,1-.27,2-1.27,3.06-.07,1.47,1.7-1.27,1.71-1.18,3.1a2.27,2.27,0,0,0,3.11-.68c1.52-2.39,3.06-4.32,6.26-4.29,1,0,1-1.29.87-2.17a7.55,7.55,0,0,0-3.16-4.85c-.79-.56-1.27.27-1.51,1.07-.11.32-.34.79-.61.86-8.67,2.25-16.64,6.65-25.54,8.22-1.75.31-3.13-1.11-5-.8-.88.14-1.26-1.6-1-2.75a3.4,3.4,0,0,1,2.87-2.63c1.8-.33,1.29.9,1.07,1.88-.12.54,0,1,.62,1.16s1.44-.38,1.37-.93c-.32-2.4.54-4.95-.66-7.2-2.22-4.13-1.22-6.61,3.37-7.91.59-.16,1.25-.09,1.86-.22,4.73-1,4.91-3.08,4.08-7.87-.76-4.44,0-9.18-1.48-13.68-.3-.93.64-1.43,1.73-1.3,4.2.52,5.91-1.06,5.75-5.22-.1-2.62,4.37-8.2,7-8.57,1.2-.17,2-.69,1.93-1.83-.16-3.63,3-3.83,5.1-5.07.56-.32,1.39-.55,1.67.11,2,4.77,2.58,1.41,3.34-.58.47-1.22,1.53-1.56,2.59-1.91,6.88-2.27,13.61-4.75,21-5.35,6.2-.5,12.2-3.08,18.39-4.14,4.17-.71,8.26-2.75,12.7-1.52.91.25,1.54-.66,2.31-1,3.08-1.29,6.17-2.7,9.69-2,4,.83,7.46-1.43,11.27-1.83,3.3-.36,6.59-.36,9.7-3.44,1.93-1.93,6.76-2.16,10.27-3.06,1.48-.39,2.95,1.44,5.75-.46,4-2.69,9.45-3.43,14.61-3.57,1.11,0,2.26-.55,3.11.52,1.55,1.94,3.54,1.51,5.49,1.06,5.31-1.22,10.59-2.51,15.89-3.76.72-.17,1.46-.28,2.2-.38,3.12-.44,6.25,1.13,9.54-1.38,1.18-.9,5.2-.65,7.89-.56a6.53,6.53,0,0,0,4-1.13c3.22-1.94,5.71-1.07,6.82,2.44.46,1.46,1.23,2.13,2.66,2.07,4.28-.18,8.81.42,12.77-.8,6.53-2,13.38-2.3,19.84-4.41.73-.24,1.47-.35,1.85-1.09,1-1.94,2.44-2,4.39-1.45,3,.87,5.69-.31,7.86-2.36,1-.93,1.74-2.4.45-3.64s-1.88.38-2.62,1c-1.33,1.14-2.55,2.08-4.59,1.44-1.56-.5-3.22.37-4.58,1.21a5,5,0,0,1-3.92.84c-4.5-1.23-8.41.82-12.49,1.94-.77.21-1.71,1.12-2.3.1s.34-1.77,1.12-2.46a4.2,4.2,0,0,1,3-1,2.13,2.13,0,0,0,2.12-2.56c-.33-1.64-1.61-1.06-2.71-.72a4.44,4.44,0,0,1-1.84.21c-1.56-.21-3.7-.28-3.53-2.34.13-1.68,1.95-2,3.6-1.7.59.11,1.62.39,1.73.19,2.1-3.73,6.87-3.52,9.49-6.46.43-.49,1-.83.66-1.52-.41-.9-1.2-.84-1.87-.38s-1.14,1-2,.91-1.58-.22-1.63-1.16a6.09,6.09,0,0,1,.37-1.74c3.45,1.85,3.77-4.05,7-2.82,5.61-5.25,13.41-3.24,19.79-5.94a9.75,9.75,0,0,0,1.74-.65c1.31-.92,4.13-.91,3.47-3.08-.57-1.89-2.75-.74-4.28-.4-2.29.5-3.64-1.08-5-2.47-.45-.46-.77-1.13-1.4-.44-.23.25-.11.91,0,1.35.14.62,2.06.78.49,1.84-1.25.85-3.31,1.15-3.75.08-2.17-5.28-6.89-3-10.38-3.51-4.23-.63-8.46,1.25-13,.08-2.37-.6-5.47,2.11-8.58,2.29-1.87.1-3.7.67-5.09-1.25-.3-.41-1.41-.84-1.6-.67-2.26,2-5.76.57-7.72,2.44s-3.24,1-4-.2c-1.25-1.88-1.93-1-3.5-.48-7.18,2.19-13.79,6.68-21.81,5.65a6,6,0,0,0-3.95.82,1.63,1.63,0,0,1-2.22-.78,1.2,1.2,0,0,1,.51-1.88c1.44-.59,2.58-1.46,1.72-3.07a3.43,3.43,0,0,0-4.19-1.71c-6.27,2.3-12.95,2.27-19.39,3.44-5.87,1.06-11.28,3.54-17.14,4.31-1.5.2-3.69,1.64-4.17-1.63-.19-1.33-1.32-1.14-2.15-.1-1,1.23-1.37,3.91-4,1.52-.67-.61-2,.24-2.53,1.1-2.66,4.57-7,5.8-11.83,6.22a13.4,13.4,0,0,0-5.89,2c-4.18,2.51-4.35,3-1.22,6.23.38.4.78.74,1.23.36,3.83-3.22,9-2,13.19-3.87,4-1.78,8-3.71,12.37-4.73a11.82,11.82,0,0,0,1.77-.58,2.17,2.17,0,0,1,3.1,1.17c.62,1.42-.57,1.9-1.54,2.51-7,4.41-15.19,4.82-23,6.6s-15.81,2.76-23,6.54c-.86.45-2.14.53-1.87,1.88.22,1.1,1.47.67,2.21,1a2.93,2.93,0,0,0,1.06.34c1.24.06,3.1-1.12,3.44.89s-1.85,2.57-3.26,2.95c-7.63,2.05-15.24,4.33-23,5.66-4.6.79-8.62,3.17-13.25,3.64-6.2.64-11.8,3.58-17.84,4.93a4.83,4.83,0,0,0-3.66,5c0,.91.59,1.94-.93,2.39a2.65,2.65,0,0,1-2.93-.53c-4-3.2-3.56-2.71.46-6,3.46-2.81,7.87-3.23,11.22-6,2-1.61,4.83-.7,7.14-1.62,1.25-.5,3.1-.7,2.92-2.36-.23-2.1-2.28-1.65-3.65-1.47-1.79.23-3.73.36-5,2-.6.74-1.63,1.17-2.33.55-1.68-1.49-2.15-.26-3,.9a2,2,0,0,1-3.23.26c-.92-1.11-.93-2.36.69-3.38,5.27-3.32,10.78-5.91,17.14-6.2a9,9,0,0,0,2.22-.23,2.16,2.16,0,0,0,1.69-1.81c.12-1.26-1.1-1.17-1.81-1.51-2.14-1-4.11.09-6.16.52-4.52,1-6.19,1.54-7.25-3.79a3.68,3.68,0,0,0-2.69-3.18c-1.91-.64-2.2-1.46-.61-3.16a25.73,25.73,0,0,0,5.7-10.45c1.21-4,4.07-7.62,8.93-8.62,4.46-.92,8.55-3.05,12.88-4.33,10.39-3.09,20.55-7.3,31.6-7.56,9-.22,17.51-3.17,26.29-4.41A65.81,65.81,0,0,0,148.87,325c.94-.36,2.16-.48,2.57-1.38,1.46-3.24,2.69-2.5,3.85.36,1.5-1.12.74-3.72,3.27-3.73a8.12,8.12,0,0,0,7.81-5.4c-.61-1-1.43-.54-2.25-.29-1.76.53-3.07.61-2-1.9a1.44,1.44,0,0,0-.62-2c-3.88-1.44-7.58-4.27-12.06-1.6-1.22.73-2.53,1.7-5,.59,4.3-1.6,6.86-5.79,11.91-3.81,1.59.63,3.31,0,5.06-.44,3.94-1,8-3.28,12.15-.65a.81.81,0,0,0,1.26-.19c2.8-4.15,7-2.88,10.8-2.6,1.1.08,2.23.62,3.28.15a9.58,9.58,0,0,1,7-.77c2.48.74,4.5-1.45,7.09-1.54,1.91-.07,3.71-1.7,5.71.09.41.36,1.16-.11,1.5-.74,1.5-2.79,3.78-3.26,6.64-2.34,1.95.63,3.17-.15,4.14-2.07,1.65-3.24,3.46-3.52,6.42-1.43,1.39,1,12.09,1.28,13.22,0,2.19-2.5,6.11-1.95,8-5.11.94-1.58,1.68.35,2.29,1.15,1.19,1.56,2.15,3.67,3.92.24a21.08,21.08,0,0,1,2.54-3.11c1.85.56,0,2.34,1.66,2.93,1.93-2.69,4.07-4.44,7.85-2.29a5.1,5.1,0,0,0,5.46-1.11c2.54-2.45,6.21-2.19,9.22-2,3.78.17,7.3-.64,10.92-1.06,1.71-.2,3.64-.58,3-2.76-.5-1.77-2.51-1.64-4.11-1.49-.31,0-.55.53-.88.65a3.44,3.44,0,0,1-3.55-.22,1,1,0,0,1-.26-1.32,3.25,3.25,0,0,1,3.16-1.58c2.88,0,6-.69,7.41,3a.78.78,0,0,0,1.26.31c.34-.29.79-1,.67-1.17-2.41-3.51.69-4.1,2.74-5.18.74-.38,1.35-.74,1-1.66a1.21,1.21,0,0,0-1.58-.62,6.65,6.65,0,0,1-3.27.24c-1.84-.38-2.61-1.15-1.77-3-6.72,2.24-13,5.08-19.86,5.58a1.54,1.54,0,0,1-.75-.05c-5.8-3.41-11.52-.11-17.27.2a1.11,1.11,0,0,0-.32.14c-2.53-5.27-6,2.64-8.71-.59,0-.07-.68.19-.88.43-3.3,4.07-6.92,4.14-11.07.21-.24-.22-.7-.21-1.06-.3l-.63-.64c4.22-2.89,7.25-2.28,9.77,2.27.94-2.62,1.23-5.66,4.94-5.4.83.06,1.05-1,.94-1.76a2,2,0,0,0-2.12-1.74c-.66,0-1.33.55-2,.84-1.19.51-2.44.47-2.68-.93a1.75,1.75,0,0,1,1.92-1.87c2.66.66,4.72.09,4.76-2.78s-2.17-3.93-4.9-3.87c-.21,0-.43-.22-.66-.34.25-1,1.37-1,1.92-1.61.77-.92,2.85-.43,2.74-2.1s-1.81-.8-2.75-1.2c-.33-.14-.88-.33-.91-.54-.44-3.7-3.29-3.45-5.6-2.95s-4.71-1.68-6.66.72c-.15.17-.49.4-.61.34-5.2-2.68-10.08,3.12-15.39.52-1.67-.81-3.84.67-5.84-.09-.72-.27-1.3.35-1.73,1.09-2.9,5.07-6.86,5.34-10.64.77-1.53.82.3,3.58-2.11,3.79s-.88-2.41-2.24-3.36c-2.37,1.79-2.5,9-8.16,3.67l3.84-2.12c-1.7-1.27-3-1.37-4,.14-.49.69-1,1.24-1.8.76s-.13-1.33,0-2c1.23-5.35,2.74-6.77,9.05-6.2a24.63,24.63,0,0,0,9-1.1c1.21-.33,2.38-1,3.21.61.46.87,1.08.87,1.81.28,1.93-1.57,3.09-.15,5,2.15-1-2.93,0-3.82,1.76-4.28,6.8-1.75,13.33-4.24,20.5-4.87,5.13-.45,10.13-2.09,15.35-.76a1.45,1.45,0,0,0,1.81-.94,4.06,4.06,0,0,1,4.87-2.54c4.41.75,8.31-2,13-1.08,5.05,1,9.88-2.36,15-3.15,3.95-.61,1.57-3.11.42-4.83,6.59-2,12.76-5.08,19.11-6.14,5.85-1,10.62-5.36,16.83-4.45,1.08.16,2.41-.38,2.31-1.83s-1.45-1.3-2.36-1.12c-11.59,2.32-23.57,1.15-35.1,4.12a17.34,17.34,0,0,1-8.53,0c-.48-.13-1.14-.48-1.42-.29-4.69,3.19-10.23,2.85-15.42,3.27-3.67.31-7.31,2.53-11.11.7a1.79,1.79,0,0,0-2.32.61c-1.78,2.08-3.76.33-5.46,0s0-3.16-2-3.86c.73-1.23,1.86-1.79,3-1,1.37,1,1.95,1.29,3.16-.47.75-1.1,2.11-.14,1.95,1.55-.09.92.4,1.42,1.34,1.28.56-.08,1-.7.81-1.06-1.36-2.1.79-2.73,1.46-4.05,1.44-2.82,5.1-2.95,6.5-5.75.17-.33,1.63-1,2.28.06,1.22,2,2.25.65,3.32-.11.19-.14.28-.42.45-.59,2.78-2.57,3.58,1.8,5.54,1.58,1.68-.18,1.46-5.23,4.74-1.95.95.95,1.58.37,2.51-.29,3.42-2.43,7-2.47,10.68-.37a4.6,4.6,0,0,0,4.88-.41c2.29-2.13,5-1.36,7.32-1.5,2.58-.14,4.92.16,6.46-2.4.11-.19.48-.45.59-.39,3.35,1.66,6.25-.44,9.36-1,.79-.13,1.32-.12,1.75-.81s.75-1.45.25-2.08c-.79-1-1.2,0-1.68.49-.11.14-.55.22-.6.15-3.46-4.83-7.5-1-11.3-.78-.87.06-1.93.45-2.58.09-3.45-1.92-7.31-.93-10.88-1.74-2.44-.55-4.68-1.38-7.08.22-.8.53-2.28,1-2.75-.68s.72-1.83,1.92-2c11.52-1.17,22.8-4.11,34.42-4.58,3.31-.13,6.59-.83,9.89-1.27.37-.05.86-.25,1.09-.09,4,2.72,7.18-1,10.76-1.5a52.91,52.91,0,0,1,7.22-.06c8.18,0,15.25-3.9,23-5.16.37-.06.79-.32,1.09-.22,5.83,1.93,11-3.14,16.67-1.63,2.45.65,3.23-1.43,4.9-1.85,3.16-.79.81-2.48,1-3.86s2.81-1.45,3.69-3.06c.43-.79,2-.43,2.26-1.62-4.59-3.72-10.91.13-15.49-3.89,4.68-.22,8.54-3.62,13.43-2.81,3.13.52,5.39-1.19,5.22-4.16s1.53-2.89,3.12-2c2.28,1.34,3.87,1.15,6-.42,2-1.43,4.65-1.52,7.16-1.48,1.07,0,2,1.05,1.62,1.62-1.37,2.31-.51,6.27-4.07,6.82-2.19.34-1.66,4.09-4.46,2.92-.95-.87,1.17-3.8-.76-2.9-2.48,1.15-4.71.66-7,1a2.64,2.64,0,0,0-2.42,2.81c-.05,1.3-.63,2.87.75,3.79s2.2-.43,3.22-1c2-1.23,4.08-2.34,6.12-3.5,0,4.4,0,4.4,7,6.33-1.66,1-3.3.68-4.79.55-3.31-.3-6.38,1.15-9.71,1-2-.09-2.91,2.39-4,4-.39.56,0,1.88.81,1.75,2-.34,3.28,3,5.67.63s5.65-.51,8.53-1c6.79-1.07,13.78-1.11,20.32-3.52,3.58-1.32,7.45-.58,11-1.9,1.59-.59,3.52-.91,2.91-3.48-.43-1.81,1.06-1.64,2.12-1.71,2.46-.15,4.88.15,7.24-1.24,1.85-1.09,2.73,1,3.86,2.06s2.18,4.12,3.76.32c.25-.6.75-.78,1.13-.33,2.44,2.84,4.06.52,5.4-1.06,3.13-3.67,7.57-2.58,11.44-3.45,2.38-.54,4.59-.62,6.59-2.67,2.57-2.62,6.17-.87,8.82.13,2.26.85,3.24.43,4.84-.8a12.53,12.53,0,0,1,6.76-2.59c2.78-.16,5.16-.15,5.88-3.52.22-1,1.28-1.08,2.16-1.13,2-.13,4.55,1.44,5.72-1.74.16-.43.87-.07,1.31.2,4.35,2.71,4.35,2.7,7.16-1.62.8,1.82,1.34,4,4,2.67.89-.43,1.6.4,1.77,1.41a2.31,2.31,0,0,0,1.86,2.1c2.34.47,2.83,4.92,6,3.12a14,14,0,0,0,4.77-4.94c2.63-4.47,6.36-4.11,10.58-3-.52,2.34-2.71,3.26-4.09,4.93a16.13,16.13,0,0,0,6.16-2.35c5.32-3,11-6.21,17.63-4.14,1.11.35,1.84,1.23,2.69-.29a1.91,1.91,0,0,1,1.59-.71c5,1.05,9.67-2.47,14.67-1a1,1,0,0,0,.73,0c4.13-3,9.1-1.31,13.62-2.14,3.57-.66,7.22-1,10.76-2.06a3.51,3.51,0,0,1,3.21.54,2.88,2.88,0,0,0,3.79,0,3.57,3.57,0,0,1,3.22-.4A5.65,5.65,0,0,0,640,145c1.84-.37,4.23-1.12,4.07-3.06-.18-2.16-2.36-2.41-4.42-1.73-4.94,1.61-10.12-.66-15.11.87-1.88.58-3.93.63-5.82,1.19-1.49.44-2.53,1.09-3.68-.86s-2.49.08-3.7.57-2.19,1.94-3.21.54,1-1.67,1.43-2.53c2.79-5.18,6.79-5.8,11.75-3.45a.94.94,0,1,0,.43-1.82c-1.58-.66-2.25-1.17-.74-2.84s3-1.28,4.73-.84a.47.47,0,0,1,.23.83c-2.08,2.22.77,3.08,1.25,4.91.27-3.2,1.36-4.14,4.46-3.1,3.42,1.15,3.6-3,5.65-4.4,1.74.91.08,3.19,1.62,4.11.25-.1.62-.16.65-.29,1.12-4.94,2.72-5.83,7.9-4.18a2.64,2.64,0,0,0,2.13-.23c2-1,3.32-.1,5.24.94,2.59,1.41,2.94,2.26,2.38,5.07-.33,1.69,1.59,3.95,2.79,5.77a2.08,2.08,0,0,0,3,.44c1.77-1.36-.2-2.32-.66-3.77a14.83,14.83,0,0,0,7.21-.68c1.67-.62,3.08,0,2.69,2.18-.34,1.94-.88,4.24,2,4,2.39-.16,4.92-1.17,5.14-4.32,0-.57-.45-1.18.31-1.86,1.31.19,2.47,1.18,4,1.3s2.84,1,3.79-1c.25-.52,1.25-.7,1.93-1s1.8-.71,2.25.37c.38.92-.63,1.26-1.23,1.57-2.27,1.17-3.46,2.73-2.17,5.72,2.7-3.43,5.47-5.52,10-3.15,1.87,1,4.62.82,4.7-2.74.07-2.64,2.26-2.78,4-2.82,2.07,0,2.9,1.46,3.21,3.44.22,1.44-1,4,1.06,4.07,1.71.09,4.07-.1,5.42-2.59,1-1.84,1.77-2.89-.23-4.25-.59-.4-1.51-.81-1-1.7a1.47,1.47,0,0,1,2-.37c1.9,1.7,3.27.29,5-.35,2.82-1,5.93-.11,9-1,1.5-.43.88,1.94.7,3.26-.6,4.24,3.69.78,4.8,2.88.32.61,2.45.26,2.6-1.56s-.49-3-2.45-3-3-.67-2.64-2.65a62,62,0,0,1,1.64-7.26c.42-1.4,1.87-1.51,3.11-1.28s1.73,1.29,1.55,2.56c-.26,1.79-2,4,.92,5,1.64.54,2.52,3.13,4.87,1.77a1.4,1.4,0,0,1,1.66.56c2.08,2.65,4.25,1.45,6.15-.11a6.56,6.56,0,0,1,5.77-1.52c5.09.84,5.91,0,7.31-5,.55-2,3.59-2.72,2.67-5.5-.1-.31,1.07-.65,1.62-.33s2,.32,1.21,1.69c-.42.76-.33,1.92.49,1.41,1.5-1,2.31-.31,3.21.56s2.52,0,3.29,1.22c-.29,1.9-2.16,0-2.68,1.22.59,3.15,2.36,3.34,5.49,3.75,5.12.67,10.16-1,15.17.31a3.14,3.14,0,0,0,2.52-.3c3.4-3.41,8.58-2.85,12.29-5.74,2.17-1.69,5.16.25,7.77.07,5.92-.4,12.24,4.68,17.56.15,4.08-3.47,8.85-3.39,13.2-5.15.81-.33,1.35-.19,1.4.43.22,2.91,5,3.1,4,6.47-.24.83-1.46,1.32-.28,2.3.82-1.69,3.29.12,3.87-1.64,1.53-4.61,4.47-6.86,9.43-6.55,1.16.07,2.36-1,3.56-1,2.47,0,5.59-1.23,6,3.2.18,2.07,2.3,1.81,3.94,1.85,1.88,0,2.76-.69,2.76-2.63,0-.86-.28-2.38,1.26-2.14s1.36,1.48.81,2.65a7.07,7.07,0,0,0-.72,2.1,2.52,2.52,0,0,0,.37,1.74c.48.59,1.09.15,1.63-.22,3.41-2.32,6.57-2.39,9.14,1.22,1.43-.84.76-2.16,1.1-3.15s1.48-2.18,2.1-1.53c2,2.14,2.58.62,4-.74,2.88-2.68,3.09-2.45,4.86,1.81,1.95-2.64,3.91-5.41,7.23-1.72a1.87,1.87,0,0,0,1.74,0c4-2.4,7.58.21,11.27.82,1.3.21,2.13.8,3.62,0,3.05-1.55,7.69-.4,9.77,2,.83,1,1.4,2.08.71,3.36-1.34,2.46-6.73,4.86-9.59,4.39-3.12-.52-6.26-1.14-9.34.36-1.33.64-2.73-.21-4-.09s-3.81-2.86-3.94,1.27c0,.63-1,.27-1.56-.06-2-1.2-3.73-.33-4.19,1.43-.55,2.1,2,3.57,3.17,3.67,2.53.21,5.41,1.57,7.82-.78.49-.48,1.62-1.14,2.1.22.26.74,1.45,1.46-.15,2.39-2.52,1.46-.57,2.92.39,4.21,1.43,1.92,2.72.68,3.62-.51,1.7-2.24,2.91-2.4,5-.18s5.21.71,7.81.87c4.26.27,8.57-.44,12.86-.68,1.36-.07,1.36-1.23,1.87-2,1.45-2.21,2-5.2,5.46-5.67,1.29-.17.92-1.44-.14-2.13-3-1.94-2.88-5.26-3.62-8.19-.39-1.56.75-2.32,1.91-1.84,3.13,1.28,5.18.21,6.81-2.44.47-.76,1.54-.93,1.9-.29,2.4,4.26,5.25,1.25,7.88.5.82-.24,1.14-.56,1.66.41,1.6,3,3.83,1.15,4.47-.25,1.86-4.09,3.76-.85,4.82,0,2.27,1.89,2.28,5.33,4.39,7.58,1,1.05-.73,1.61-1.47,2a2.75,2.75,0,0,0-1.61,3.05c.18,1.38,1.22,1.77,2.37,2,2.66.57,4.36,2.35,6,4.39,1.06,1.32,2.54,2.93,4.42,1.77s4.16-.88,5.74-3.81a37.48,37.48,0,0,0,3.13-9.1c.3-1.21,3-2.25,4.3-.59a2,2,0,0,0,3.19.31c2.12-2.5,4.58-1.16,6.53-.44a5.23,5.23,0,0,0,5.87-1,3.19,3.19,0,0,1,4.16-.16c1.13.95-.39,2-.76,2.94-2.11,5.36-1.61,8.91,1.66,10.66,2.41,1.3,5,.36,7.21-.17,6.12-1.48,12-.24,18,.23,4,.31,8.11.13,12.17.11,4.95,0,9.78-.55,14.86.07,3.77.46,8.37-.3,12.36-1.33,2.16-.56,2.87-3.55,3.3-6.06.34-2-.46-5.38,3.78-4.4,1.25.29,1-1.17,1.13-1.93a1.59,1.59,0,0,1,1.84-1.46c1,.12.84,1.12.83,1.78,0,2.78,1.15,4.51,3.93,5.05.8.15,1.47.51,1.46,1.4,0,.66-.62,1-1.15,1.35-1.26.9-4.07.67-3.18,3.25.82,2.34,3.76,2.16,5.19,1.84,9.58-2.15,19.34-.64,28.79-.45s18.69-1.77,28.15-1c5.55.44,11.46-.85,17.13-.32,10.76,1,21.48-.89,32.19-.06,7.42.57,14.85.1,22.27.34,4.7.16,9.68,1.21,14.55-.88,2.53-1.08,6-.43,8.72,0,6.6,1.08,13.12,0,19.68.31,5.58.3,11.17.82,16.77,1,2.59.07,5-2.82,7.45-.81,3,2.45,6.08,1.4,9.11.67,4.83-1.15,9.59.1,14.38.1,1.26,0,3.16-.26,2.9,1.81-.19,1.55-.91,3.18-3.07,3.14-2,0-4,.22-6,0a48.93,48.93,0,0,0-14.74.77c-2.34.42-4.4-.45-6.39-1.38-2.9-1.36-5.47-1.24-7.76,1.14-.17.17-.28.43-.47.56-3.92,2.61-4,2.88-1.61,6.92.34.58.69,1.11,1.35,1.14,5.35.22,11.4,2.22,15.39-2.64,2.64-3.21,4.14.05,6.12,0,2.45-.12-.89,2.35.84,3a9.74,9.74,0,0,1,12.5-.28,4.91,4.91,0,0,0,3.19.8c4,0,8-.07,11.26-2.79,1.25-1,2.22-.72,3.25.29,2.57,2.54,5.38,3.74,8.55,1,1.79-1.51,1.74,1.23,2.87,1.11,1.35-3.74,2.14-3.85,6.23-2.35,7.27,2.68,14.87,2.28,22.44,1.86,1.17-.07,1.68-1,2-2a2.28,2.28,0,0,0-1.26-2.85c-3.25-1.32-6.56-3.38-10-.75-1,.73-1.65.24-2.39,0s-1.88-.8-2.48-.18c-2,2.15-4.07,1.18-6.42.63s-4-.92-5.67-2.85c-1.22-1.4-3.15-3.67-6.16-1.8-.73.46-3.56,1.75-4.86-.89-.11-.22-2.87,1.32-3.73-2,.64,5.08-1,4.84-3.76,3.17-1.63-1-4,.55-5.79-1.52,7-3.47,14.35-4.72,21.59-2.67,2.59.73,3.43.14,5.39-.8a15,15,0,0,1,11-.81c4,1.45,7.78-.71,11.48.47,7,2.23,14.19,1.11,21.26,1.78.87.09,1.72.55,2.49-.07,2.06-1.65,2.71.27,3.16,1.47.76,2-1.42,2.49-2.29,2.34-2.25-.38-4.47.37-6.58-.06a36,36,0,0,0-6.7-.38c-1.31,0-3.07-.44-3.46,1.37-.43,2,1.94,1.45,2.72,2.46a2.18,2.18,0,0,1-2.9.92c-1.51-.63-2.47.17-2.84,1.54s.68,2,1.88,2.23a40,40,0,0,0,16.6-.11c.71-.18,1.61-.84,2.07-.6,3.75,1.93,7.89.5,11.84,1.67a20.31,20.31,0,0,0,14.29-.79,7.55,7.55,0,0,1,6.51-.07c3,1.09,5.8.63,8.7.55,6.49-.2,12.91,1.34,19.4.75,8.15-.73,16.27.95,24.31.46,4.64-.29,9.11-.36,13.32,1,2.87,1,4.63.42,6.82-1.16,1.53-1.11,3.33.37,5.08.34,4.6-.07,9.18-1.39,13.62-1.11,6.47.39,13-.16,19.38.75,2.48.35,4.65-.45,7-.36,6.43.25,12.86,1,19.32.1,2.71-.38,5.47-.21,7.86,1.59a3,3,0,0,0,2.11.54c6.34-1.34,12.82.9,19.2-1,2.31-.67,5.06,0,7.59.25,2.1.18,4.06,2.61,6.37-.09.51-.6,3,.21,3.83,1.59s1.66,1.76,2.65.85c2.18-2,4.77-.38,7.06-1.07,1-.31,1.73.47,2.21,1.11,1,1.35-.73,1.1-1.15,1.6a2.62,2.62,0,0,0-.42,2.79c.7,1.82.35,3.7.4,5.56,0,1.47-.57,2.48-2.15,2.4-1.42-.08-3.23,1.92-4.19-.52-.64-1.61-1.09-1.17-2.4-.65-2,.8-4.28,2.05-6.21-.88-.9-1.37-3.22-1-4.75-.37-3.28,1.33-6.57,1.16-9.9.54a4.07,4.07,0,0,0-2.56,0c-5.55,2.6-11,.07-16.33-.8a42.13,42.13,0,0,0-13-.29c-5.12.78-9.85.23-14.74-.45-2.24-.31-4.32-.55-6.49.72-1.79,1-3.94.11-5.86.09-4.35,0-8.7-1.93-13.09-.16-2.3.93-4.55,1-6.38-1.32a2.24,2.24,0,0,0-3.6-.14,2.21,2.21,0,0,1-2.37.64c-3.91-1.15-8.07.75-12-.88-2.9-1.21-5.58,1.2-8.25.65-4.9-1-9.49.86-14.25.87-.37,0-.87-.09-1.1.11-2.24,2-4,4-7.43,1-1.67-1.45-4.92,2.88-3.75,5.41.42.91,1.35,1.62.21,2.54s-1.47-.58-2-.64c-1.86-.22-2.79-.63-3.64-2.67-.61-1.44-2.76.61-3.71,1.24-2.84,1.88-5,2.79-6.62-1.17a2,2,0,0,0-2.17-1.17,1.42,1.42,0,0,0-1.18,1.65c.11,4.35-3.54,4.48-6.08,4.47-2.92,0-2.52,1.21-1.57,2.54,1.42,2,2.53,4.26,6,4,2.25-.19,5.06.13,7,2.08,2.74-2.49,5.73.05,8.58-.43,1.08-.19,2.19-.42,3,.78.22.32,1,.63,1.29.48,4.94-2.86,10.46-.78,15.36-1.81,4-.85,7.21.81,10.75.68a60.49,60.49,0,0,0,10.78-1.54c1.19-.26,2.35-.84,3.58-.65,8.1,1.23,16.09.07,24.14-.63,2.22-.19,4.59,1.23,7.94,1.16-1.64,1.41-2,2.87-3.77,1.82-1.55-.92-2.36.34-2.84,1.47s.05,2.14,1.28,2.7c2.07.93,3.74,2.38,6.38,2.45,5.35.15,10.57,1.18,16.08,1,6.87-.28,13.86.54,20.79.31,6.17-.21,12.54-.68,18.44.17,9.34,1.33,18.9-1.7,28,1.94a2,2,0,0,0,1.46,0c6-2.9,10.68,1.15,15.75,3,.77.27,1.41,1.08,2.33.77,6.91-2.37,14-1,21.06-1.35,6.39-.28,12.72-.31,18.82,1.91,1.45.53,2.66-.39,4-.37a190.31,190.31,0,0,1,22.21,1.5c4.63.61,10.13,1.45,14.8-1.49,1.39-.88,2.49-1.43,4,.42,2.28,2.72,10.32,3.21,14.13,1.38,2.72-1.31,5.12-2.19,8.21-.06,1.74,1.2,4.2,2.59,7,1.58,1.72-.61,2.47,1.73,4,2.37,1.75.74,2.49,1.2,3.12-1.1.33-1.19,1-3.24,3-2.53,2.32.82,1.46,2.59.53,4.34,1.56-1,3.17-1.7,3.52-3.3.25-1.09.6-1.83,1.55-1.36,1.68.81,2.54-.47,3.69-1,.79-.39,1.64-.92,2.39-.14s.42,1.57-.39,2.2c-1,.75-1.7,1.71-.78,2.84s2,1.17,3.31.43c1.64-.9,4.25.25,5.26-3-.77,4.53,2.17,2.82,3.89,3.35,2,.63,3.31,3.13,5.92,2.6l.63.64c0,.12,0,.3,0,.36-1.4,1.38-8.35,1-9.46-.5-2-2.69-3.35-2-5.68-.38a20.8,20.8,0,0,0-5.09,5.12c-.8,1.06-2.07-1-2.7-1.84-1.3-1.78-2.33-3.12-4-.4-.43.71-.78.75-1.32,0-1.11-1.46-1.42-.34-2,.58a5.52,5.52,0,0,1-2,2.19c-2.2,1.09-3.12,2.74-1.78,4.77s4.55,3.1,6.18,1.7c3.21-2.76,5.63-1.57,8.4.09,1.81,1.09,3-.54,4.41-1,.63-.22,1.41-.74,2.09-.06.87.85-.31,1.25-.46,1.88-.82,3.52-2.77,4.93-6.61,4.7-6.19-.36-12.46.29-18.63-.2-5-.4-9.89.45-14.84.16-2.7-.16-4.86,2.12-7.81,1.75-1.23-.16-.76,2.44-2.46,3.45a14.81,14.81,0,0,1-9.16,2.26,21.07,21.07,0,0,0-3.37,0c-1.39.1-3,.26-3,2.06,0,1.5,1.56,1.77,2.84,1.83,4,.18,8.08.21,11.74,2.33a2.71,2.71,0,0,0,2.85.27c4-2.36,8.52.15,12.73-1.41,1.64-.61,3.87,1.14,4.66,3.05.92,2.27,2.26,2.18,3.74,1s2.69-1.9,3.75.39a1.36,1.36,0,0,0,1.84.82c1.62-.6,1.59.31,1.45,1.49-.12,1,.73,2.59-.93,2.73a7.91,7.91,0,0,1-5.3-1.14c-.81-.57-.91-3.2-2.31-1.67s-5.28,2.22-3.86,5.5c1.51,3.48-.41,3.15-2.4,2.44s-4.95.88-6.43-1.9c-2.54,2.68-5.33-1.24-8.73.59-2.56,1.38-7.29,1-11,.61-2.91-.31-5.75-.52-8.14-3-1.49-1.51-13.07,1-14.67,2.61-1.27,1.25-.28,2,.53,2.75,1.69,1.58,4.43,1.67,5.64,4a1.08,1.08,0,0,0,1,.15c3.63-2.68,6.64,1.58,10.09.89a1.53,1.53,0,0,1,1.27.52c1.23,1.76,1.47,1.77,2.54-.15,1.68-3,3.9-2.51,7.07-2.21,3.48.32,6.79,1.92,10.34,1.4.85-.12,1.85-.61,2.22.51s-.55,1.54-1.43,1.83c-1,.35-2,.87-1.53,2.11a1.86,1.86,0,0,0,2.51,1.06c2.41-.78,4.88.41,7.32-.49,1.68-.63,3,.62,3.53,2,1.23,3,3.4,4,5.33,1.63,2.07-2.49,5.35-2.7,7.42-2.62,2.31.08,6-1.91,7.7,1.91.21.48,1,.27,1.17-.27.34-.93.5-2.21,1.84-1.86a24.78,24.78,0,0,0,6.83,1.13c.23,0,.64.76.67,1.19.06.92-2.14,2.37.51,2.61,1.74.16,3.84.8,5-1.43.23-.44.47-.86.8-1.45,1.07.54.94,2.45,2.5,2.25,3.93-.49,7.13,2.63,10.72,2.49,2.92-.12,5.67-.86,8.63.24,1.28.48,2.51.85,2.36,2.14s-1.63.86-2.55.81c-2.57-.14-4.93-1.46-7.65-1.18-1.24.12-1.86.28-2,1.5-.24,2.11-2.3,4.24-.54,6.26.91,1,2.21,2.34,4.24,1.6,2.78-1,5.06.4,5.61,3.27s.84,5.17,4,1.29c1-1.26,4-.17,6.11,0,2.68.26,4.56,3.25,7.28,2.4,4.45-1.39,9.74-.37,13.3-4.21,2.41-2.57,4.12-.51,4.77,1a5.16,5.16,0,0,0,6.16,3c4.18-.87,8.08-.26,12.14.18,2.28.25,4.75.73,6.91-.77a1.59,1.59,0,0,1,1.76-.21c4.77,2.72,10.53,1,15.35,3.43.22.11.6.33.65.28,5-5.48,8.41,1,12.49,1.87,2,.42,2.55.2,2.71-1.45.32-3.15,3.07-4.12,5.1-5.51,1.67-1.15,2.63.29,2.93,2.06,1.17,6.82,4.15,9.57,11,9.17a81.22,81.22,0,0,0,8.54-.68,7.6,7.6,0,0,0,4-1.59c2.14-1.85,5-1.08,6.36,1.48.68,1.31,1.39,2.41,3,2.47,1.93.08,2.83,1,3.25,2.88.35,1.56,1.16,2.07,2.41.25,2-2.88,8.86-2.7,10.71.21,1,1.65,2,3.11,4.3,2.78a1.62,1.62,0,0,1,1.9,1.4c.23,1,.86,1.58,1.91,1.08,2.51-1.22,5.34,1.12,7.78-.72,1.84,3.18,5,.75,7.24,1,4,.49,7,4.11,11.24,3.16,1.42-.32,3.22.16,3.46-1.95.21-1.76-.29-3.25-2.39-3.56-1.09-.16-2.18-.53-1.6-1.85s1.67-.81,2.53-.2a5.45,5.45,0,0,0,3.21.81c1.19,0,2.53.38,2.83,1.43.43,1.48-1.31,1-2,1.57-2,1.42-1.36,4,1,5.32s5.86.61,7.27,3.85c.17.4.84.11,1.3-.18,2-1.31,2.62-.2,2.71,1.69,0,1-.15,2.14,1,2.62.86.36,1.74,1.16,2.8.51.9-.56.82-1.35.57-2.29-.69-2.62.31-3.58,3.08-3.4a20.55,20.55,0,0,0,7.79-.47c2.4-.76,3.12-1.61.84-3.34-.47-.36-1.27-.46-.75-1.29.37-.6,1.16-.88,1.6-.4,1.29,1.38,5.2.75,3.58,4.48-.13.31.24,1.2.51,1.26,3.26.71,3.26,2.75,2.34,5.29a1.2,1.2,0,0,0,.58,1.61c.77.29,1-.48,1.46-.86a25.54,25.54,0,0,1,2.35-1.79c.5-.33,1.15-.65,1.69-.06s.16,1.2-.3,1.61c-2.05,1.83-1.26,2.8,1,3s2.57,1.94,2.6,3.44c.05,2.06-1.86.77-2.68,1.19-3.67,1.91-4.43-2.4-7.23-3,.44,2.12-.38,4.58,2.75,5.22.46.1,1,.28.94.94a1,1,0,0,1-1.4.78c-1.54-.63-3.67.24-4.53-2.21-.55-1.59-2.41-1.84-4-2.35-2.34-.75-2.7.51-3.35,2.2s-2,.5-2.81.05c-2.4-1.3-4.55-1.81-6.8.39-1,1-2.64.83-3.91.24a14.2,14.2,0,0,0-11.56-.55,7.54,7.54,0,0,1-4.78-.17c-3.88-1.39-8.61.55-11.89-3.06a.41.41,0,0,0-.35-.07c-6,3.88-11.73-.58-17.49-1.13-6.75-.65-13.43-.39-20.14-.56-1,0-1.76.5-1.57,1.59s.88,2.65,2,2.12c2.29-1,3.92,1.41,6.06.65.68-.24,1.39.6,1.63,1.31a1.66,1.66,0,0,1-1.23,2c-1.5.55-3.19,1.33-4.65,1.09-4.11-.65-8.34,2.56-12.32-.45a.36.36,0,0,0-.36,0c-4.71,4-6.78-.95-9.65-2.92-.92-.63-1.44-.88-2.13,0-3.18,4.25-7,2-10.41.67-2.63-1-5-1.37-7.42-.1a6.67,6.67,0,0,1-3.6.64c-1,0-2.72.37-2.51-1.31s1.51-.46,2.33-.31c1.84.31,3.09-1.22,4.79-1.49.93-.15.45-1.36-.22-1.71-1.08-.55-2.91-1.54-3.25-1.37-3.32,1.65-6.49-.22-9.7-.12-4.35.13-5.37,4-6.07,6.54-1,3.52-2.53,3.23-4.66,2.16-1.72-.86-2.92-.85-4.39.38a5,5,0,0,1-4.8,1.29c-.88-.27-1.82-.37-2.17.74a1.6,1.6,0,0,0,1.15,2.07c4.89,1.6,9.09,4.59,15.14,3.09a19.23,19.23,0,0,1,16.22,3.44c.62.47,1.08,1.16,1.82.31,2.23-2.55,4.67-1.63,7-.31,1,.55,1.49,1.21,2.29-.2,1.37-2.41,3.52-2.1,5.48-1a5.5,5.5,0,0,0,5,.34c3.75-1.41,4.68-.74,5.29,3,.29,1.76,2.11,2,3.59,1.58s2.9-.56,4,1c.24.35,1.12.73,1.25.61,2.89-2.61,6.47-.86,9.58-1.12a19.83,19.83,0,0,1,11.75,2.56c3.82,2.47,7.82.49,11.43,2.86-1.58,3.16.62,4.05,3.8,4.25,1.13.07,2.64.51,2.49,1.68-.17,1.43-1.81,1.09-3,1.31-4.51.84-8.55-1.52-12.93-1.8-2.55-.16-4.84.84-7.32.89-5.36.09-9.9-3.3-15.18-2.4-1.93.33-4.24-.2-4.44,2.74-.17,2.53,1.28,3.26,3.6,3.76a23.77,23.77,0,0,0,5.88.22c3.51-.14,6.81,1,10.14,1.84,2,.54,4.67-.5,5.84-.14,3.62,1.1,7.62-1.19,10.88,1.61,1.67,1.43,3.69,2.18,5.83.78.57-.38,1.35-.75,1.6-.11,1.36,3.56,3.78,1.93,5.88,1.21,3.14-1.06,5.73,2.11,8.93,1,.87-.31,2-.28,2.75-.89,1.32-1.1,1.63-2.44-.49-2.87a4.82,4.82,0,0,1-3.24-2.17c-1.08-1.52-1.64-4.56-4.67-1.33-1.36,1.45-3.42-.71-3.73-2.33s-1.25-3.23,1.38-4.82c2.94-1.77,6.54.42,9-2.34.2-.23,1.18.12,1.74.34,2.43,1,4.47,3.15,7.58,1.93.78-.3,1.17.89,1,1.93s.2,2.48,1.49,2.62a2,2,0,0,0,2.28-2.34c0-1.58.66-1.79,2.18-2.09,2.21-.42,4.18.41,6.27.36,1.76-.05,1.76,1.39,1.8,2.68.1,2.78-2,4.74-2.76,7.19a1.23,1.23,0,0,1-1.91.5c-.9-.68-1.74-1.61-1-2.82a42.35,42.35,0,0,1,2.75-3.54c-1.54-.85-3.6,1-4.58-1.54.36,3.92-1.12,6.21-4.82,7.31-1.65.49-3.37.83-3.16,2.91s1.85,1.9,3.63,2c1.35,0,2.6.82,4.21.33,4.2-1.3,4.42-1.06,4.4,3.63,1.55-1.47,2.57-3.71,5.09-2.45.54.27,1.26-.4,1.26-1.07,0-2,1.16-2.59,2.83-3.6,2.48-1.51-.13-3-1.27-4.23,2.93-2.33,4.06-.07,5.29,2.66,1-2.47,2.4-4,2.58-6.29,3.12,2.32,7.23,2,10,4.76.55.54.89-.91,1.39-1.37,3.62-3.43,4.91-3.05,6.1,1.79s4.2,5.62,7.72,2.35c.63-.59.79-2.32,2.59-.64,1.11,1,.86-1.5,1.63-2.14,1.24-1,1.21-2.05-.18-3-.64-.44-1.94-.84-1.21-1.88a1.82,1.82,0,0,1,2.71-.09c3.61,3.37,8.12,3.73,12.64,3.77,1.3,0,1.61.74,2.34,1.29,1,.75,1.14-1.22,2.46-.69-1.9,2,3.37,4.28-.54,6.39-3.41,1.84-2.63-2.75-4.74-2.93-1.85.24,3,3.8-1.42,2.93-2-.4-1.61,3-3.43,2.74-.82-.11-1.57-1.39-2.17-2.26-.49-.72-.75-1.51.45-2.12,1-.51,2-1.56,1-2.67-.84-.94-2.08-.34-3.13.12-2,.89-5.11,6.25-4.63,8.34.69,3.07,3.26,1.74,4.95,1.69,2.82-.07,3.56,1.09,3.11,3.58-.09.49-.23,1-.81,1.11-.54-2.38-3.29.37-4.42-2.15-1-2.14-2.47,1.1-4.13,1,1.69,1.44,4.16,1.62,4.77,4.24.21.93,1.64.44,2.62,0,5.39-2.49,5.62-2.33,6,3.45.11,1.56,2.77,3,4,1.92,2.17-1.84,3.39-2.18,3.34,1.27,0,1.36,1.37,1.25,1.94,2-2.43,2.45-5.8.75-8.54,2-1,.46-1.24-.8-1.54-1.64-.81-2.26-2-2.13-2.89-.14-.76,1.72-1.46,2.64-3.22,1.13-.69-.6-1.39-.3-2.07.08-3.81,2.12-7.42,1.94-11.35-.15-2.59-1.37-6.07-1.36-8.59-2.46-3.26-1.43-5-.23-7.12,1.24a2,2,0,0,1-2.71-.18c-1.44-1.24.09-1.55.71-2.15s.68-1.17.11-1.63-1.09,0-1.37.61c-.51,1.13-1.44.46-2.21.61-2.35.47-5.06-.29-7,1.85-.76.86-1.62.48-2.36,0-2.18-1.38-4.67-1.23-7-1.71-1.87-.39-4.76-.09-4.46-3.51a1.2,1.2,0,0,0-1.09-1.31,1.67,1.67,0,0,0-2.08,1.12c-.81,2.1-2.41,2.27-4.27,1.62a2.79,2.79,0,0,0-2.49-.15c-4.65,2.53-9.53,1.82-14.39.9-3.61-.68-7.73-.21-10.63-2.62-3.1-2.57-7.22-1.89-10.32-4.18-1.17-.87-3.55.56-4.55-.64-2.6-3.15-5.29-2.57-8.75-1.71-1.87.46-3.18-.33-2.6,2.47.23,1.15-.83,2.21-2.37,2.35-1.2.11-1.67-.09-2.51-1.25-1.91-2.66-4.51-4.9-7.94-5.46-1.94-.32-3.22-1-3.86-2.9-.93-2.81-2.4-1.18-3,0a12,12,0,0,0-1.69,5.67c0,1.47-.59,2.66-2.08,2.5-2.24-.23-4,1.12-6,1.44-1.39.23-2.8,1.24-3.41-1.28-.31-1.27-2.12-2-3.48-1.57-3.65,1.13-4.8-1.32-5.79-3.84-1.53-3.86-4.26-5.21-8.28-4.43-2.69.52-5,.64-7.17,3.15-1.46,1.72-4.78,1.68-8.32.12,1.55,2.25,2.13,3.33.2,4.89-2.13,1.72-1.25,4.63-.16,6.9,1.45,3-.07,6.18-3.4,6.48-2.22.2-4.43,0-6.63.79-1.78.64-2.43-1.24-2.73-2.32a25,25,0,0,0-2-4.66c2.72-.05,3.79-2.54,6-3.49,1.47-.65-.17-7-2-7.85-1.3-.61-2.84-.61-3.3-2.52-.28-1.13-1.86-1.18-2.61-.77-5.41,2.94-9.84-1.12-14.93-1.74-.94.74,2.38,2.45-.31,3-1.32.25-3,.66-3.84-.63-1-1.56-.6-3,1.56-3.71a1,1,0,0,0,0-1.92c-2.39-.43-5.75-1.48-7,.57-1.72,2.78-3.45,1.6-4.92.91-2.38-1.1-4.29-2.87-7-.38-1,.89-2.19-.79-3-1.56a5,5,0,0,0-7.54,0,5.8,5.8,0,0,1-6.08,1.5c-2.55-.65-4.59,0-6.74,1-3.38,1.49-3.78,4.54-.91,6.86.94.77,2.37,1.44,2,2.78s-2,.61-3,1a6.46,6.46,0,0,1-4.74,0c-1.16-.37-2.66-.73-3.45.5-1.1,1.7-1.81,1.14-2.76,0-.53-.64-1.55-.89-2-.2-1.94,3.31-5.35,1.47-8,2.25-1.77.53-4.73.08-2.71-3.45,1.11-1.95-2.25-2.26-1.69-4.09,1.62-.09,3.23-.2,4.85-.25,2-.07,4.16.47,5.49-1.5s2.8-2.34,5-1.09c-1.78-2.79-5.18-4-5.51-7.61-.09-1-1.76-1.05-2.88-1.29-3.31-.7-7.16,3-10-1.22-.08-.11-.77,0-1,.24-3.25,2.91-7.25,1.69-10.9,1.8-5.69.17-11.4-.46-17,1.33-1.17.38-2.16.84-2,2.24s1.14,1.8,2.38,1.83c2.15.06,3.8.19,6.14-1.34,2-1.31,7-1.21,10.12,1.36.82.67.87,2.23,2.32,2.17,3.14-.13,5.86,1.41,8.8,2C1795.6,381.81,1797.43,380.46,1798.27,382.7Zm-74.38,53.56c-1.57,4-3.27,4.4-5.38,1.45a2.44,2.44,0,0,0-3.12-.55c-2.51,2.21-4.67,5-8.51,2.52-6.72,2.72-13.87.41-20.72,1.75a2.18,2.18,0,0,1-2.73-1.87,2.3,2.3,0,0,0-2.65-1.6,37.71,37.71,0,0,1-16.06-1.84,3.23,3.23,0,0,0-2.72.28c-2.89,1.25-6.51-1.43-6-4.33.64-3.62,2.52-7.24-2.21-9.93-1.08-.62-1.74-2.07-3.15-1.2s-.77,2.17-.41,3.59c.89,3.6,3.7,6.84,1.73,11.08-.86,1.86-1.54,2.71-3,1.21-1.72-1.75-2.88-1.26-4.39.12a9.07,9.07,0,0,1-4,2.54c-1.71.41-1.48,2.11-1.29,3.47s1.56,2.24,2.41,1.62c4.22-3.09,8.6,3.63,12.69-.35.08-.08.46.25.68.22,3.9-.56,7.74,2.23,11.68.12,1.86-1,3.78-2.22,5.52.41.49.73,1.55.46,2.41,0,1.41-.72,6.87.48,8.33,1.37,1.8,1.09,3.79,3.42,5.94,1.38,1.76-1.67,2.68-1.16,3.92.18a4.94,4.94,0,0,0,3,1.34c4.34.78,8.62-1.84,13-.1,1.25.5,3.37-.51,3.6,1.65.19,1.78,1.2,4.12-1.67,5a1.1,1.1,0,0,0-.86,1.42c.47,1.4,2.25.84,3,1.92.29.4,1.18.15,1.19-.34.08-3.35,1.84-4.47,5-4.3a3,3,0,0,0,2.39-1.55c1.39-3.77,2.76-1.52,4.11-.1.9.93,2.31,2.27,3.11,1.28,2.42-3,4.64-1.07,7.14.2-.18-1.61-1-2.56-.38-3.91,2.29-5,1.65-5.82-3.59-5.34-1.57.14-3.38.44-1.64-2.26,1.28-2-1-3.49-2.09-3.21C1725.65,440.26,1724.79,439.1,1723.89,436.26Zm-1613.95-28c-4.58.38-8.5.73-12.42,1-1,.07-2.22.35-2.69-1.26-.88-3-2.87-1.32-4.5-.86a1.08,1.08,0,0,0-.78,1.47c.27.76.88.82,1.47.35,1.3-1,2,0,2.14.9.2,1.06-1,1.4-1.77,1.5-2.26.28-4.24,1.48-6.33,2-3.81.87-7.65,2.64-12.08,1.53,1.25-1.61,3.28-2.56,1.9-4.65-.84-1.26-2.26-1.09-3.42-.81-2.57.63-1.84,3-1.39,4.31.85,2.55-.52,2.33-2.09,2.27-1.31-.05-2.71-1.2-3.92,0-2.66,2.55-6.05,3.12-9.44,3.76a3.48,3.48,0,0,0-2.16,1.37,2.34,2.34,0,0,0-.36,2.46c.46,1,1.35.81,2.25.66,7.63-1.3,15.16-3.08,22.77-4.45,2.72-.49,6.23-3.47,8.88.77.38.6,2,.41,2.83-.17,2.08-1.41,5-1.31,6.52-3.77a2.72,2.72,0,0,1,2.27-1.08c5.36-.46,9.74-4.28,15.2-4.39,1.19,0,2-.91,2.91-1.58.71-.52,1.06-1.46.46-1.91-3.5-2.63,0-2.76,1.25-3.15,1.42-.47,2.46-1.74,4.08-1.73,1.19,0,2-.64,1.55-1.91s-1.32-1.25-2.46-.88c-4.87,1.58-10,1.78-15,2.77-2.67.53-5.27,1.42-7.92,2.08-1,.25-1.64.64-1.41,1.76.17.82,1.1,1.61,1.55,1.26,2.06-1.6,4.67-.33,6.58-1.31C106.84,405.27,108.09,406.13,109.94,408.27Zm1330.1,14c2.71,2.07,5.28-.41,8.17.24a101.72,101.72,0,0,1,10.43,3.13c4.88,1.67,10.45-1.17,15.6,1,1,.4,1.81-.62,2.71-1,1.16-.47,2.35-.6,2,1.3-.12.76-.42,1.69.66,1.66s1.25-1.1,1.28-2-1.64-1.85-.14-2.49c2.43-1,1.54-2.44.63-3.78s-1.75-3-4.33-2.36c-4.32,1.06-8.69,1.27-13-.69-1.94-.87-4.83,0-6.43-1.16-3.76-2.69-3.33,1.59-4.74,2.59-2.15-2.36-10.2-4.41-12.06-2.42-2.77,3-6.13,5.46-8.29,9.13,2.69,1.94,5.58.78,8.1,0C1442.13,425.05,1439.42,424,1440,422.3Zm-577.83-282c1.12,1.28.16,4.12,2.68,3.95,4.92-.33,9.75.41,14.84-.73,4.2-.94,8.57-2.75,13.14-2.23.53.06,1.16-.62.85-.87-3-2.38.49-3.46,1.14-4.85a3.15,3.15,0,0,0-.14-3.09c-.8-1.68-1.53-.05-2.32.16-1.82.49-3.56,1.38-5.1-1-1.3-2-4.19-2.4-5.43-4.72-.52-1-1.25-.36-1.7.35-3,4.72-7.51,6.69-12.93,7.22C863.94,134.81,863.27,137.7,862.21,140.28Zm539.64,42.92c2.56,2.86,5.67,3.15,8.92,1.13a29.86,29.86,0,0,1,6-2.74c3.89-1.38,7.65.29,11.42-.5,2.51-.53,5.07-1.37,7.71-.36,2,.75,3.73,1.24,5.94-.09a4.14,4.14,0,0,1,5.13.43c1.75,1.73,3-1,4.71-1a.91.91,0,0,0,.67-1.42c-.77-1.37-2.26-.64-3.39-1a5,5,0,0,0-2.14-.5c-8.32,1.71-16.71.49-25.06.68a253.84,253.84,0,0,1-26.31-.56c-1.89-.15-4.19.72-4.47,3.49s1.06,4.31,3.63,4.66c1.68.23,3.19.33,3.93,2.18a1.54,1.54,0,0,0,1.92.76c.88-.17,1.14-.86,1.19-1.66C1401.69,185.76,1401.75,184.79,1401.85,183.2Zm-66,227.82c1.87,0,3.74,0,5.6,0,1.67.05,3.68-.08,2,2.6-.78,1.27-.07,2.13.89,2.84s1.84.15,2.63-.54c1.62-1.44,2.76-3.31,5.13-4,1.32-.4,1.79-2.33,1.45-3.91-.44-2-2.23-.82-3.17-1.28-2.58-1.27-3.93,1.64-6.21,1.24a61.77,61.77,0,0,0-12.39-.47c-2.52.07-5.25.53-7.55-.79-1.74-1-3-1.33-4.65.11a3.58,3.58,0,0,1-2.47.5c-3-.32-5.34,1.61-8.12,2a1.18,1.18,0,0,0-1.09,1.29c0,.53.38,1.09.9,1,3.86-.72,7.55.76,11.35.81C1325.43,412.45,1330.51,410.56,1335.81,411Zm-1112,31.44c5,0,8.63-2.65,7.94-5.8a10.69,10.69,0,0,1,0-5.83c.35-1.06.31-2.87-1.08-2.55-2.78.65-6.58-.61-7.88,3.47-.62,1.95-1.78,2.44-3.72,1.56-2.64-1.19-4.11,1.35-5.07,2.67-1.28,1.74.09,4,2.14,4.73C218.74,441.58,221.28,442.87,223.85,442.46ZM1868.1,329.14c-1.93,0-2.92,0-3.92,0-1.82,0-4.57-.36-4.25,2.16.26,2.05.89,5.27,4,5.43a5.45,5.45,0,0,1,4.89,2.57c.37.58,1,1.42,1.79.84s1.69-1.13,1.81-2.24-.17-1.75-1.25-2c-4.06-.79-1.36-2-.14-3a6,6,0,0,1,5.24-1c2.59.52,5.21,1.87,8,.56,1.34-.63,2.42-1.28.93-2.62s-3.47-2-3.7-4.43a1.38,1.38,0,0,0-2.22-.21A10.94,10.94,0,0,1,1868.1,329.14Zm-41.42,120.39c-1.62-.59-2,1.1-3.16.69-3.7-1.33-4,1.69-4.33,3.83-.42,2.93,2.71,5.16,4.21,5.13,4.85-.09,8.1,5.43,13.25,3.35.17-.07.69.34.85.64,1.3,2.53,3.2,1.62,4.65.5,1.19-.92,2.61-2.38,1.39-4.16s-3-2.79-5.17-2c-1,.36-1.79.88-2.76.41-2.56-1.24-5.08-1.66-7.82-.39-1.46.67-3-1-2.61-1.61C1826.75,453.91,1825,451.47,1826.68,449.53Zm-377.92-40.17a5,5,0,0,1-2.71,1.54c-1.3.43-1.26,1.41-.59,2.38,1.33,1.93,6.73,1.83,6.78-.17.11-4.69,2.41-4.63,5.72-3.66a1.67,1.67,0,0,0,1.09-.17c1.21-.65,3.4-.4,3.12-2.53-.24-1.9-2-2-3.53-1.93-5.39.34-10.86-1.5-16.21.56a3.1,3.1,0,0,1-1.83-.06c-1.27-.37-2.74-.84-2.88,1s1.53,1.59,2.76,1.67C1443.17,408.18,1446,407.43,1448.76,409.36ZM1505,424.75c-.33-2-1.75-1.86-3.13-2-3.53-.36-7.22,0-10.32-2.3-.64-.47-1.14-.42-1.53.22a56.8,56.8,0,0,0-3.64,6.32c-1,2.17.7,3.77,2,5.2a1.7,1.7,0,0,0,2.65-.2c2.68-3.43,6.53-4.1,10.47-4.51A4,4,0,0,0,1505,424.75Zm36-41.85c-2.14.34-3.86.53-5.54.93-1.39.32-3.89-1.08-3.93,1.31,0,2.22,2.48,2.37,4.31,2.6,1,.12,2-.13,3,.08,4.89,1,10.11.61,14.67,3.18,1.1.62,1.92.09,1.63-1a11.56,11.56,0,0,1,.07-5.07c.23-1.47-.79-1.64-2.12-1.79C1549,382.68,1544.78,385.4,1541.06,382.9ZM311.33,363.59a8.07,8.07,0,0,0-1.08-.66c-3.37-1.32-6.69.81-9.81.39-6.28-.85-11,3.32-16.63,4.2-.33.06-.73.66-.82,1.07a.85.85,0,0,0,.83,1c2.1,0,4,.73,6.33.39,4.59-.66,8.72-2.65,13.22-3.47C306,366.06,309.28,366.46,311.33,363.59ZM828,138.21a24.46,24.46,0,0,0-4.3,2.29,2,2,0,0,0,.17,2.74c1,1,1.29,2.43,2.07,3.35,1.17,1.37,3,4.5,4.87,2.1,2.12-2.67,4.68-3.53,7.52-4.39a2.06,2.06,0,0,0,1.7-2.11c0-1.26-.87-1.46-1.83-1.91C835,138.8,831.36,140,828,138.21ZM709.2,423.82c1-.16,1.84-.35,2.51.58a1.81,1.81,0,0,0,2.91.24,2.15,2.15,0,0,0,.79-2.34c-.45-1.21-1.62-.84-2.55-1.05-3.65-.85-7.69.12-11-2.59-1.11-.91-2.4-.26-3,1.17-.72,1.83-2.28,2.09-3.94,2.16-1.12.05-2.24,0-3.36,0s-2.79-.14-2.94,1.52,1.59,1.64,2.67,2a3.94,3.94,0,0,0,2.17.17C698.74,424.47,704.25,425.57,709.2,423.82Zm1089.11,27c-3-3-5.81-2.91-8.46-.93-1.08.8-1.77,1.52-3.32,1.61a3.81,3.81,0,0,0-3.34,3c-.26,1.3-.53,2.8.65,3.88,1.73,1.59,10-.37,10.8-2.65C1795.31,453.7,1796.1,451.87,1798.31,450.78ZM1341.64,182.51c4.64.62,9.18-.6,13.77-.73.76,0,1.62-.12,1.72-1.06.14-1.24-.93-1.16-1.76-1.42-7-2.18-14,.16-21,.13a1.49,1.49,0,0,0-1.66,1.62c.07,1.06.92,1.36,1.86,1.47C1336.94,182.8,1339.29,181.91,1341.64,182.51Zm-983,32c5.19-.62,10.25-1.68,14.76-4.63.67-.44,1.93-.48,1.46-1.7s-1.51-1.21-2.53-.82c-4.26,1.6-8.84,1.19-13.21,2.13-2.07.45-4.17,1-4.18,3.36C354.93,215.53,357.12,214.3,358.65,214.46Zm955.23-35.65c-2.21-.57-3.18,1.12-4.69,1.23-1.2.09-2.35.36-2.07,1.94s1.62,1.34,2.69,1.3c1.84-.07,4.07-1,5.44-.29,3.21,1.7,5.88,1,8.78-.37.81-.37,1.72-.41,1.79-1.54.08-1.32-.94-1.42-1.86-1.87C1320.47,177.49,1316.81,180.05,1313.88,178.81ZM659.1,422.23a3.27,3.27,0,0,0-3.32,1.59,3,3,0,0,0,.39,3.49c1.21,1.59,2.36.56,3.54-.12a4.17,4.17,0,0,1,3.6-.37c3.2,1.51,5.89-.3,8.75-1,1-.23,2.69-.29,2.61-1.54-.1-1.43-1.73-1.58-3-1.52C667.53,423,663.37,423.49,659.1,422.23Zm1042.63,43.16c1.28-.21,3.25.05,3.42-1.89.18-2.25-1.7-2.5-3.36-2.5-3.6,0-7.06-1.42-10.72-1-.87.11-2.06-1-2.32.65a2.33,2.33,0,0,0,1.64,2.62C1694,464.69,1697.64,466.16,1701.73,465.39Zm39.82-25c-1-.09-1,.57-1.25,1.14-.81,1.88.35,4.78-.24,5.42-2.68,2.83.09,3.87,1.22,5.45.57.8,1.34,1.68,2.47,1a2.78,2.78,0,0,0,1.21-2.57c0-1.07-.9-2-.26-3.22C1746.67,443.88,1745.08,440.42,1741.55,440.35Zm-132.93-65.09c3,.44,2.29-2.42,3.19-3.78.78-1.17.15-1.88-1.3-1.54-2.16.51-4.41,1.8-5.72-1.49-.26-.65-2.22-.71-2.61.21a7.45,7.45,0,0,1-3.7,3.74c-1.18.65-.15,1.71,1,1.86C1602.54,374.63,1605.58,374.93,1608.62,375.26Zm-24-.73c1.52,0,2.33,1.14,3.35,2.06a2.94,2.94,0,0,0,4.08.08,4,4,0,0,0,1.12-4.74c-.44-.84-1-2.53-2.32-1.87-3.64,1.75-8.26,1.07-11.17,4.71-.56.71-1.49,1-.61,1.92.7.75,1.8.82,2.24-.07C1582,375.14,1583.37,375,1584.61,374.53Zm203.6-85.69a8.52,8.52,0,0,0,1.4-.47c1-.55,2.68-.72,2.39-2.34s-1.77-1.06-2.8-1.06a6.18,6.18,0,0,1-4.12-1.35c-2.37-1.92-4.42-.27-6.46.69A1.9,1.9,0,0,0,1778,287c1.22,2.17,3.46,2.1,5.54,1.88C1785.09,288.67,1786.62,287.85,1788.21,288.84Zm-23.78-17.14c.06-1.34-.64-1.81-1.87-1.55-.69.15-1.77.81-2,.6-2.41-2.68-5.81-.92-8.62-1.95-1.77-.65-3.35,1.06-3.15,3.1.15,1.44,1.12,3.33,2.89,2.53s3.93-.7,5.3-2.29,2.23-1.44,2.77.54c.33,1.22.86,2.12,2.32,1.68A3.25,3.25,0,0,0,1764.43,271.7Zm258,209.91,5.21-.24a2,2,0,0,0,2.16-1.65c.19-1.23-.39-2.72-1.42-2.72-2.7,0-4.83-1.81-7.48-1.85a3.88,3.88,0,0,0-3.91,2.18c-.37.67-1,1.25-.35,2s1-.05,1.58-.29c1.71-.75,3.3-1.21,2.77,1.77C2020.81,481.76,2021.55,482,2022.43,481.61Zm-211.9-200.82c-1.36-2.41-2.2-3.48-4.32-4.26-2.83-1-5.91-.65-6.71,2.2-.35,1.23.86,3.07,1.93,3.63,1.9,1,4.14.45,4.62-.88C1807,278.93,1808.33,279.8,1810.53,280.79Zm-1628,166.76c1-1.24,1.85-2.59,3.56-2.8,3.28-.4,3.65-2.79,3-5.2-.78-3.06-3.64-1.67-5.18-1.29-4.43,1.08-5,3.21-2,6.49C183,445.85,181,446.52,182.54,447.55Zm1473.05,3c-2.13,2.31-5.53,2.81-8.33,4.42-1.34.78-.5,2.29,1.18,2.38,2.12.11,4.22,0,5.87,1.73a.81.81,0,0,0,1.29-.15c1.36-1.92,2.54-4,2.27-6.41A2.11,2.11,0,0,0,1655.59,450.58ZM786.86,148.83c.49-.19,1-.23,1.13-.47,1-2.08,2.57-4.15,2.78-6.33.15-1.53-2.3-.53-3.49-1a14.89,14.89,0,0,1-1.66-.8c-2.13-1.13-3.45.61-4.41,1.75-1.42,1.69.38,2.06,1.64,2.7.79.4,1.15,1.57,1.82,2.29A23,23,0,0,0,786.86,148.83Zm934.26,318.32c1.89.44,3.44-.62,4.93-1.73,1-.74,1.2-1.88-.11-2.28-3-.93-6.06-2.22-9.29-.84-1.28.55-2.57,1.29-2.37,2.92s1.73,1,2.69,1.35A9.61,9.61,0,0,0,1721.12,467.15ZM569.6,433.48c2.38-.28,4.71-.45,7-.87,1.46-.27,2.28-1,.85-2.52-1.24-1.33-7.63-2.79-9.13-1.73-1.2.84-2.32,2-2,3.69C566.72,434,568.43,433.27,569.6,433.48Zm177.58-283.9c2.17,0,5.82-3,5.81-4.73,0-2.45-1.91-2.19-3.51-2.2-3.27,0-4.89,1.69-4.82,4.77C744.7,149.35,745.81,149.67,747.18,149.58ZM68.2,483.25c2.13,1,2.57-1.65,4.21-1.79,1.24-.11,1.59-1.15,1.23-2.25s-1.3-1-2.18-.74c-1.51.52-2.9.84-3.82-1a.69.69,0,0,0-1.23-.12c-1,1.51-2.68,3.07-2.71,4.64s2.28.57,3.48,1A10.22,10.22,0,0,0,68.2,483.25Z"/><path class="brushsvg" d="M1665.72,497c-3.18,4.48-7.53,4.33-11.73,4.06-3.18-.21-6.36-.76-8-4.35-.53-1.16-2.32-1.15-3.72-1.32-4.79-.6-9.68-.37-14.27-2.54-1.31-.63-3.37.31-5.08.53-1.33.17-2.33,1.12-4.06,0-2.7-1.76-6.31-2.17-2.48-6.53.9-1,.17-4.06-3.05-4.22a26.47,26.47,0,0,0-11.94,2.39c-1,.42-2.9.37-2.48,2.18.31,1.38.82,2.95,2.69,3.21a16.06,16.06,0,0,1,1.87.54c-3.06,1.45-6.16.61-8.72,2.41-1,.72-2.46-1-3.16-2.48-.6-1.27-1.17-2.05.56-2.94a2.21,2.21,0,0,0,.92-3.21,2.05,2.05,0,0,0-2.1-1.23c-1.61.11-2.06,1.16-2.16,2.54-.07,1.17-.61,2-1.88,1.71-1.84-.43-.42-1.46-.29-2.25a3.19,3.19,0,0,0,.16-.73c-.16-1.63,3-3.32.76-4.48a6.87,6.87,0,0,0-7.69.61c-3.49,2.83-5.89,2.44-8.39-1.19-1.59-2.31-3.62-1.85-5.55-.73a34.31,34.31,0,0,0-4.42,3.3,5.82,5.82,0,0,1-5.1,1.42c-2.09-.38-4.38,0-2.71,3.15.8,1.49-.31,1.79-1.17,2.12-1.19.45-1.72-.46-1.57-1.38.88-5.36-5-5.92-6.66-9.48a1.63,1.63,0,0,0-1.29-.5c-3.3,3.92-7-3.05-10.38.42-1.11,1.15-2.6,1.28-4.38,1.24-2.24-.06-4.7,1.58-4.74-2.45,0-.23-.6-.71-.79-.65-3.49,1.07-5.81-3.41-9.36-1.93-4.69-3.6-8.78.67-13.17,1.06-1.74.15-2.37,1.77-2.9,3.12-1.09,2.77-2.3,4-4.76.21,1.25,3.68-1.44,3.75-3,4.44a3.22,3.22,0,0,1-4.49-1.46c-1.35-2.83-4.33-3.12-6.6-4.35-1.7-.93-1.31,2.88-3.66,2.43.08-2.25,1.92-4.49.47-7-.62-1.06-1.22-2.32-2.37-1.81-3.37,1.48-6.68-.89-9.95.12-1.32.4-1.58-.44-2.24-1.26-1.69-2.08-6-1.81-7.93,0-2.07,2-4.77,1.44-7.11.67-4.1-1.33-8-3.25-12.53-2.17a2.58,2.58,0,0,1-2.66-.93c-2-2.23-7.39-3.54-9.35-1.42-2.37,2.57-4.75,1.37-6.76.89-3.21-.76-7.13.43-9.57-3.11-.74-1.08-2.28-.15-3.07.41-3.12,2.24-6.93,1.66-10.32,2.74-.57.18-1.91.22-1.52-.82.55-1.46.36-2.78-.87-3.15-1.85-.56-3.87-1.67-5.79-.9-2.88,1.14-5.64,2.4-8.87,2.22-.84,0-2.2.55-1.79,1.86s1.78.28,2.29.48c1.85.73,4.82,2.09,4.83,3.24,0,2-3,2.22-4.53,1.83-2.66-.65-4.93-2.88-8-1.77-.25.1-.95-.23-1-.39-.31-3.79-3.3-1.67-5-2.28a1.16,1.16,0,0,0-1.54.71c-1.62,4.64-3.52,2-5.69-.42.07,3.36-1.46,3.79-4,2.88.8-3.06,1.23-6.17.23-9.31-.49-1.57.22-2.65,1.89-3,2.15-.47,5.1-.36,6.34-1.2,2.93-2,5.47-.28,8-.69,4.55-.72,8.56-.23,12.37,2.2,1.41.91,3.45,1.2,4.25.48,2.79-2.56,6-1.92,9-1.58,5.81.65,12.16-1.13,17.22,3.38a1,1,0,0,0,1.34,0c.38-.3.89-.89,1.18-.81,5.26,1.59,10.38-1.6,15.77-.19,4.07,1.07,8.46,1,12.72,1.14,2.38.08,4.69-.2,6.36,2a2,2,0,0,0,2.71.57c4.2-3.86,8.75-.52,13-1,6.33-.63,12.27,3.23,18.57,1.08.71-.25,1,.22,1.52.56,2,1.3,4,2.17,5.52-.65.16-.29.44-.71.69-.74.95-.08,2.28.3,1.89-1.37-.28-1.22-1.31-1.6-2.58-1.72a31.83,31.83,0,0,1-5.48-1c-1.85-.52-2.06-1.48-1-3.31,1.32-2.29,3.44-.17,5-1.5,1.75-1.46,3-.6,3.57,1.78.36,1.66,1.88,1.7,2.82.49a8.44,8.44,0,0,1,2.28-1.73c2.75-1.92,4.6-1.37,5.75,1.73.43,1.16.38,3.5,2.27.88a.74.74,0,0,1,.31-.18c3.15,3.95,6.46-.49,9.67.18.24.05.56-.11.74,0,4.36,2.75,9,.26,13.44.66,2.44.22,5.37-1,6.75,2.36a1.1,1.1,0,0,0,1,.41c4-1.83,7.65,1.06,11.7.45,4.94-.74,10.14-.56,14.74,2.19a1.63,1.63,0,0,0,2.29-.36c1.51-1.48,3.34-.6,4.93-.21a2.35,2.35,0,0,1,1.9,2.82c-.32,1.3-1.48,1.18-2.65,1.37-10.3,1.62-20.16-1.38-30.14-2.83-2.93-.42-6.59,1.42-8.66-2.3-4.2,2.46-8.23-.39-12.35-.41-7.46,0-14.91-.25-22.37-.47a1.74,1.74,0,0,0-2,1.7c-.16,1.32.94,1.28,1.81,1.09s1.89-.73,2.26.4c1,2.91,3.61,2.64,5.75,3.35,2.68.89,5.62.65,8.2,2.2a4.15,4.15,0,0,0,4-.3,4.78,4.78,0,0,1,5.87.4c2.31,1.83,4.93.5,7.21,0a19.08,19.08,0,0,1,8.45.24c4.33,1,8.67.21,13,.36,5.79.19,11.56,1.26,17.41,1.17,1.11,0,1.1,1.35,1.67,1.69,1.8,1.06,3.23,3.43,6,1.49,2.34-1.6,5.29-1.22,8-1,1.38.12,2.36.55,2.49,2.49.16,2.42,2.12,2.5,3.41,1,2.5-3,5.62-2.77,8.78-2.19,8.07,1.45,16.3,1.53,24.35,2.65,6.58.91,13.18.49,19.88,2,9.62,2.22,19.52,4.89,29.92,3.39,3.89-.56,8.22,2.14,12.4,3.12,3.14.74,6.48.72,9.17,2.87.16.13.62.15.7,0,3.68-5.07,8.73-2.2,13-1.78,3.5.34,6.74-1.13,10.21-.28,6.31,1.54,12.68,2.92,19.08,4,2.38.41,4.94-.33,7.39-.18,3.93.25,8.34-.54,10.76,4,.17.32.88.41,1.36.47,1.12.16,2.29.38,2.59,1.62.14.6-.67.92-1.23,1.23-1.16.66-2.89,1.17-3.45.15-3-5.49-6.21-1-9.23-.25a16,16,0,0,1-3.19.78c-4.68.23-6.33,3.36-4,7.62.56,1,2,2,.73,3.16-.94.85-2.36.57-3.49-.2s-2.58-1.3-3.65-2.47-2.33-2.46-3.82-2c-3.09,1-6.56-.51-9.46,2-1.89,1.61-8.86.62-10.54-1.36-.9-1.05-3.18-3.11.12-4.15,1.85-.57,2.07-1.63,1.79-3.06a2.64,2.64,0,0,0-3.23-2.36c-1.39.23-3.07,1.4-2.86-1.44,0-.18-.39-.56-.4-.55-3.24,2.28-7.73-2-10.63,2-.49.7-1.09,1.63-2,.5-.62-.76-.57-1.38.41-2.1,1.37-1,.63-1.59-.64-2.34-3.14-1.85-6.33.17-9.51-.36a2.33,2.33,0,0,0-1.89,3.75c.54.83.83,1.83-.14,2.22a6.47,6.47,0,0,1-4.34.48c-.78-.24-1-.76-1.09-1.67-.23-4.18-2.18-5.77-6.09-4.94-3,.64-5.85,1.11-8.66-.61a1.91,1.91,0,0,0-2.67.59,3.76,3.76,0,0,0-.94,3.12c.58,2.26,5.22,4,7.21,2.77C1662.19,496.06,1663.74,496.25,1665.72,497Zm62.43-4.18c-2.14,1.4-3.72,3.47-6.58,1.52-1.08-.74-5.67,4.18-5,5.33,1.75,2.89,4.76,2.56,7.62,2.76,2.47.17,3.27-1.45,3.18-3.16A22.29,22.29,0,0,1,1728.15,492.82Z"/><path class="brushsvg" d="M236.4,273.73c1.1,2.93.66,4.77-3.05,4.82-1.44,0-2.85.82-4.31,1.08-3.33.59-5,2.56-4.88,6.13-2.84-1.12-5.39-2.15-8.16-1.25a1.38,1.38,0,0,1-2-1c-.32-.89-1-1.62-2-1.28a2.48,2.48,0,0,0-1.84,2.52c0,2.78-.84,4.72-4.11,4.89-1.19.06-2,.44-2.62-1.06-1-2.28-3.74-1.78-4.22-.61-1.21,3-4,1.74-5.69,2.92-.57.38-1.39.75-1.57.11-1.17-4.07-3.75-.87-4.83-.49-5.68,1.95-11.45,3.55-17.4,3.28-2.85-.13-4.41,2-7,2.29-2.89.34-5.87.3-8.76.93-3.89.86-7.22,3.55-11.25,3.64-5.28.13-9.95,4.08-15.48,2.35-3.2,2.84-7.81.91-11.37,3.64a13.79,13.79,0,0,1-8.6,3c-2.49-.14-5.17,3.18-7.58-.42-.38-.57-5.94,3.8-6.24,4.9-.41,1.51.42,1.28,1.52,1.62,5.41,1.68,10.72.09,15.54-1.41,8.7-2.7,17.73-3.35,26.48-5.52a3.67,3.67,0,0,1,2.5.41c.41.18,1,.51,1.06.86.17.8-.57,1-1.18,1.1-4,1-7.93,2-11.91,2.91-4.82,1.13-9.68,2.07-14.45,3.34-1.89.5-3.53,1.84-5.54.22-.92-.74-1.56.27-2.1.94A7,7,0,0,1,100.1,321c-7.11.27-13,5.23-19.48,5.87-6.26.62-12,5.07-18.64,2.76a6.4,6.4,0,0,1,6.35-4.18c1.58,0,3.8.46,3.85-2.19,0-2.4-2.44-1-3.61-2.24,2.92-2.14.93-4.22-.55-5.83-1.77-1.93-1.67-3.77,0-5.06,2.93-2.2,4.74-6.81,10-5-3.6-3.12-1.19-8.66-6.44-11.7,3.36.19,5.09-.51,6.3-2.66,1-1.72,3.28-1.53,5-2.27,7.85-3.5,16.42-4.4,24.56-6.83,2.19-.66,4.19.46,6,1.47,1.62.9,2.36,1.65,3.43-.9,1.37-3.27,5.14-3.49,8.18-4.43.3-.09.94.06,1,.27,2.18,4.91,3.71,1,5.3-.43,1-.89,2.14-1.95,3.26-1.33,2.68,1.52,5.4,1.12,8.19.89,3.56-.3,7.31.14,10.65-.85a173.36,173.36,0,0,0,19.65-6.87c2.18-.94,6.89-1.15,9.13,2.93-1.87,1.47-4.46,1.53-6.44,3-1,.73-2.38-1.44-4.54-.73-2.49.82-4.1.72-6.39,1.71a42.76,42.76,0,0,1-8.5,2.48,5.52,5.52,0,0,0-3.41,2c-.42.51-.74,1.52-.32,1.65,3.29,1,2.18,3.68,2.37,6,1.13-1.72,2.89-2.68,3.68-4.59s2.05-2,4.1-.87c2.93,1.67,5.72,3.67,9.75,3,7.7-1.27,15.09-4,22.78-5,7.29-.91,13.91-4.42,21.27-4.75.79,0,1.67-1,2.31.15,1,1.77,2.47.84,3.16.21,4-3.6,8.93-3.18,13.67-3.68Z"/><path class="brushsvg" d="M777.91,441c-.61,1.2-.92,1.84-1.26,2.48-.42.8-.89,1.84.08,2.3,1.14.53,1.55-.78,1.66-1.49.22-1.54,1.38-2.07,2.29-3,1.74-1.82,3.53-3.86,3.29-7.53,1.32,1.74,1.83,3.29,3.45,3.42,2.21.19,2.31-1.21,2.3-2.9,0-.79,1-1.18,1.66-1.25,3.19-.34,6.37-.75,9.52.56a1.91,1.91,0,0,1,1.27,2.65c-.75,2.3.48,2.58,2.25,2.56,2.38,0,4.53.23,4.87,3.32.12,1.07,1.17,1.15,2.09,1.11,1.28,0,1.67-.87,1.71-2,.06-1.3.8-2.71,1.9-1.41,3.57,4.18,6.59.79,9.69-.42.94-.37,1.67-1.91,2.7-.62s-.52,1.87-1.21,2.67c-.94,1.08-1.47,2.76-3.51,1.89a1,1,0,0,0-1.35.85,1.11,1.11,0,0,0,1.09,1.26c2.72.21,5.27,2.26,8.21.6.61-.35,1.83.24,1.77-1.11,0-1-.92-1-1.68-1.11s-1.69-.21-3.68-.46c4.14-1.9,5.71-5.06,8.11-7.38a4,4,0,0,1,5.42.35c1.6,1.82,3.15,2.21,4.58.29s3.56,1.45,4.39-1.22c1.33,1.43.09,3.59,2,3.87,1.5.23,2.2-1.33,3-2.37.47-.57,1.27-1,1.48-1.64,1.62-4.94,5.64-2,8.52-2.38.57-.07,1.61,2.94,2.27,4.59,1.27,3.16,6,4.72,8.74,2.9.68-.44,1.43-.78,1.06-1.65-.47-1.09-1.07-.23-1.75,0-3.1.91-4.22-2.63-7.74-2.8,3.58-1.67,6.59.49,9.14-1.43.5-.37,1.39.13,1.77,1,1.06,2.26,2.06,2.32,3.76.3,1.25-1.48,6.83,0,7.75,1.72.71,1.29-.41,1.74-1,2.49s-1.5.76-2.35.91c-1.57.26-3.29.83-2.65,2.75a2.85,2.85,0,0,0,4.05,1.39c1.81-1.21,5.49-.13,5.42-4,0-.25,1.24-.59,1.94-.79,1.89-.56,3.32-1.4,3.69-3.66.29-1.71,1-2.81,3-.94,3,2.85,5.89,2.82,9,.15,1.22-1.07,2.59-1.93,4-1.38,3.55,1.35,7.51-.49,11,1.83,1.23.82,3.87-3.45,5.21,1.8-.32-3.72,1-3.69,3.26-3.52,3.06.24,6.08-.3,8.83,1.79.74.57,1.15,1.4.78,1.5-2,.55-2.27,3.18-3.87,3.55-4.2,1-4.59,4.25-5.68,7.5-.57,1.68-3.09,1.82-4.72,1.07-1.39-.65-3-1.2-4-2.67-.41-.65-1-1.24-1.83-.72a1.12,1.12,0,0,0-.15,1.68c1.65,2.07.15,2.37-1.39,2.31a112.25,112.25,0,0,1-14.34-.95c-1.79-.3-3.06-1.25-5,0-1.09.72-2.76-.78-4.18-1-3.21-.6-6.22-1.38-9.82-.83-4.32.66-8.38,2.6-13.32,1.81-3.88-.62-8.63-1-12.87.73-2.63,1.08-5.12-.87-7.44-1.52-3.28-.94-5.41,1.44-8.35,1.22-6.12-.46-12.3,0-18.44-.28-1.33-.06-2.59-1.39-4.18-1.65-1.27-.21-2.4-.57-3.54.28-2.41,1.79-2.87-.56-3.82-1.82-.54-.73,1.86-2.45-.48-2.33-1.43.06-3.6-.06-4.2,2.33-1,3.73-3.42,5.16-7.21,4.27-.58-.14-1.59.1-1.73-.17-1.25-2.51-3.47-1.3-5.26-1.81-3.83-1.1-6,2.05-9.21,2.35-4.83.45-9.52,1.3-14.44.39-1.64-.31-2.58-3.6-4.77-1.21-1.19-1.12-.58-2.58-.58-3.86s-.65-3.5,1.48-3.64C772.79,442.56,774.9,441.51,777.91,441Z"/><path class="brushsvg" d="M1262.48,454.07c-3.78.32-5.7,4.05-9,1.39-2.44,2.68-7.46-1.31-9.09,3.52a1.7,1.7,0,0,1-.79.75c-1.37.73-9.53-.76-10.7-1.89-.7-.67-1-2-2.14-1.93-6.36.56-12.68-3.72-19-.12-2.44,1.39-5.3,2.29-6.45,6.46-.59-2.67-2.39-3.83-1-5.69.14-.19-.13-1-.2-1-3.15.07-4.72-5.28-8.81-2.45-1,.72-2.93.36-4.4.22-4.75-.43-9.47-1-14.09.81a6.73,6.73,0,0,0-1.93,1c-3.44,2.73-3.36,2.61-5-1.57-1.07-2.7-3.43-2-5.22-.82-1.24.84-1.56,1-2.42-.42a4,4,0,0,0-5.29-1.6c-4.78,2.7-9.2.9-13.5-.75-2.12-.82-3.41-.93-5.37.33-2.31,1.49-4.9,2.15-7.69.1s-4.27,1-4.5,2.54c-.42,2.93-1.83,2.06-2.9,1.13-2.44-2.12-6.3-1.6-8.21-4.66-.43-.7-1.4-.12-2,.33s-.65,1.2,0,1.53c1.39.7,1.08,1.72.29,2.35a2.81,2.81,0,0,1-3.77-.17c-1-.9-2-1.75-3-2.59-2.17-1.79.44-2.37,1.16-3.52,1.2.91,1,2.55,2.72,3.18-1-4.62,2.92-2.84,4.74-3.8,2.39-1.25,4.64-1.9,7.54.09,3.39,2.32,7.4.35,11.14-.45a111.74,111.74,0,0,1,11.07-1.74,5.48,5.48,0,0,1,3.56.89c6.2,4.6,13.12,3.4,20.11,3.15,5.77-.2,11.58.79,17.37,1.25,5,.39,10.06.1,15.09.08,7.87,0,15.8.93,23.62.35,5.23-.39,10.61-.38,15.73-1.54,3.18-.72,6.17,1.07,9.19-.15.18-.08.64.05.68.17,1.68,5.09,6.19,2.89,9.52,3.74A23.16,23.16,0,0,1,1262.48,454.07Z"/><path class="brushsvg" d="M1775.11,498.08a18.92,18.92,0,0,0,8.3-.75c.9-.32,1.63.29,2.37.8,2.31,1.6,4.54,2.61,7.61,1.37,2.82-1.14,6.4.94,9.09-.88,3.93-2.66,8.2-.95,12.25-1.65a6.24,6.24,0,0,1,5.42,1.9c4.09,3.84,6.28,4.09,10.39.71,1.91-1.55,3.23.41,4.19.94,2,1.12,3.66,3,7.1,2.06-1.71,2.05-3.15,3.05-4.81,3.2-6.27.59-12.31,3-18.74,2.4-1-.1-2.36,0-2.57,1.05-1,5.13-6.08,2.59-8.73,4.84-3.16,2.68-6.44,1.41-9.37-1.16-.6-.52-1.81-1.36-2.7-.58s.74,1.31.65,1.59a2.34,2.34,0,0,1-3.13,1.43c-1.13-.37-2.82-.49-3.26-.87-1.93-1.64-3.92-1.35-6-1.16-.73.07-1.64-.05-1.87-.91-.71-2.67-2.69-2.88-5-2.82a2.35,2.35,0,0,1-2.68-2.45c-.09-1.45.41-2.19,2-2.52,3.82-.79,3.9-1.34,1.1-4.28C1776.15,499.74,1775.24,499.37,1775.11,498.08Zm17.49,10.76c1.3.92,2.41-.38,3.48-1.36s.91-2.69-.2-2.7c-3.64,0-6.91-2-10.5-1.76-1.83.12-2.05,1.83-.76,2.53C1787,506.86,1789,509.11,1792.6,508.84Z"/><path class="brushsvg" d="M1058.56,420c.41,4.05,3.6,3.51,5.78,4.24.89.3,2.16-1.06,3,.28a1.06,1.06,0,0,1-.69,1.5c-1.41.13-2.26,2.13-4.27.66-2.32-1.7-5.08.51-7.69.28-.25,0-.65.72-.83,1.17-1.21,3,2,3.86,3,5.71a2.28,2.28,0,0,0,3.84.09c.64-.79,1.61-1.6,2.43-.33,1.15,1.8,3.25.95,5.22,2.09a13.56,13.56,0,0,1-14,1,3.83,3.83,0,0,0-3.58-.14c-4.51,2.69-8.58.62-13.07-.66a4.1,4.1,0,0,1,3.3-1.22,4.4,4.4,0,0,0,4.37-4.22c.28-2.35-.32-4.41-3.37-4.8-4.93-.64-10-.71-14.6.69-2.25.67-3.46-.69-5.18-.54-5.19.46-10.26.93-15.59.23-4.21-.55-8.82.7-13.3.44a5.39,5.39,0,0,0-2.23,0c-2.77,1.18-3.48-4.26-4.15-2.51-1.1,2.89-3,2.06-4.36,2.1-2.6.06-5.17-.93-7.87-.54a1.5,1.5,0,0,1-1.63-1.67c.09-1.17.63-2.23,2-2.3a51.91,51.91,0,0,1,6-.07c5.71.38,11.38-.66,17.11-.21,2.48.2,4.62-2.37,7.41-2.09.74.08,1.75-.28,2.2.09,2.8,2.34,5.33,2,8.26.06,1.32-.87,2.55.67,3.74,1.65,1.47,1.21,3.21,2.92,4.58-.79,1.1-3,4.4-.85,6.6-1,1.68-.13,3.36.94,5.24-.27.73-.46,2.91-.65,1.91,2-.82,2.13,1.09,2.55,2.25,1.69,1.73-1.3,2.75-.58,4.3.14s3.48,1.52,5.35.31a2.88,2.88,0,0,1,2.87-.05C1055.79,424.32,1057.69,423.78,1058.56,420Z"/><path class="brushsvg" d="M1677.52,477.69c-3.26-.72-6.76.71-9.66-.85a7.7,7.7,0,0,0-7-.52c-2.76,1-5.78-.91-8.75-1.14-5.88-.45-11.78,0-17.67-1.33a73.11,73.11,0,0,0-23.88-1.72c-.86.08-1.89.22-2.48-.52-1.18-1.46-2.25-1.57-3.69-.33a2.31,2.31,0,0,1-2.09.36c-6-4-13.08-1.4-19.43-3.16-.94-.26-2,0-2.83-.74s-2.25-.88-2.34-2.19c-.06-.79.75-1.2,1.49-1.46,1.32-.48,2.85-.21,3.36.8,1.38,2.75,1.61,2.32,3.46,0,1.45-1.79,4.86-1.7,7.14.1.78.63,1.4,1.66,2.42,1.34,4.13-1.3,8.13,1.36,12.23.28.24-.06.65-.13.72,0,2.62,4.16,5.06-.05,7.52-.29,2.74-.26,5-.8,7.76.93,2,1.28,5,1.35,7.58,1.33,11.8-.08,23.38,2.28,35.07,3.34,3.76.34,7.72-.36,11.46,1.19,1.8.75,1.7,1.89,1.62,3.25S1678.68,478.11,1677.52,477.69Z"/><path class="brushsvg" d="M538.63,141.79c-2.66-2.49.68-3.69.35-5.68.54.27.76.38,1,.5,3.87,2.13,3.87,2.13.14,4.86a10.09,10.09,0,0,0,9.77-1.22c3.51-2.4,4.83-.13,6.75,1.62,1.2-1.1.74-2,.19-3.08a2.75,2.75,0,0,1,.69-3.63,3.27,3.27,0,0,1,3.7.93c.93,1.11.35,2.21-1,3a1.7,1.7,0,0,0-.29,2.63,2.29,2.29,0,0,0,1.59.84c1.26,0,.93-1.1,1.05-2,.52-3.59,3.23-4.7,8.15-3.26-.81.89-2.67,1-1.23,3.16s-1.26,4.27-2.13,6.32-2.2-.51-3.44-.44c-2,.12-4.06-1.61-6,1-1,1.29-3.56.5-5.41.4-3.08-.18.07-3.19-1.75-4-3.27,4.07-4.71,5.55-11.08,3.33-1.87-.65-3.45-.73-5,1-1.86,2-4.54,2-7.11,2.47-5.41,1.06-10.5-1.63-15.85-.77-.89.14-3,0-3.16-1.29-.27-1.78,1.95-2.22,2.87-3.33-.05-.76-.53-1-1-.87-1,.22-1.83.19-2.05-.92s1.09-1.12,1.65-1.68,1.31-1.26,2.14-.22a3.66,3.66,0,0,1,1,3.38c-.24,1-.63,2.67.83,2.82,1.28.14,3,.1,3.82-1.6.74-1.54,1.2-3.21,2.79-4.3,1-.69,1.44-1.59,2.85-.28s2.53-.52,3.76-1.22c1.61-.91,4-3,3.91,1.4a1.71,1.71,0,0,0,1.57,1.8c.76.14,1.84.16,2-.58C535.09,140.12,536.86,141.36,538.63,141.79Z"/><path class="brushsvg" d="M1648.74,171.45c-.11-2.71-3.6-4.48-.75-6.84,1.91-1.57,7.62-1.09,9.65.93.94.93,1.45,1.84,2.47.34a6.84,6.84,0,0,1,10.53-.44c.85,1.05,1.34,1.46,2.66.5,3.52-2.57,7.38-2.1,11.17-.65,1.6.62,3,1,4.5-.24,1.14-.93,3.09-.84,3.73.16.83,1.29-.78,2.63-1.75,3.23-6.55,4-13.59,6.1-21.35,4.84-.49-.08-1.27-.15-1.38-.42-2-5.25-6.37-2.05-9.63-2.59a2,2,0,0,1-1.41-.57c-3.08-3.35-3.82-3.38-6.58-.29C1650.12,170,1649.62,170.49,1648.74,171.45Z"/><path class="brushsvg" d="M1582.3,410.34c-.82-2.11-2.11-1.61-2.58-2.35-.36-.58-1-1.31-.2-2,.57-.49,1.34-.84,1.81.2s1.71.86,2.53,1.34c1,.58,2.27,1.54,1.78,2.57-1.24,2.59-.79,4.67.23,7.29.66,1.7-2.62,2.46-3.62,4.2-.42.73-1.5,1-1.62,2.22-.41,4-1.61,4.81-5,3.1a7.32,7.32,0,0,0-4.76-.61c-2.13.24-4.55-.92-6.6-1.95-.58-.3-2-2.73,1-3.09.9-.1,1.69-.94,2.59-1.26,1.46-.52,1.79-1.57,1.72-2.94s-1.08-1.76-2.3-1.86c-.85-.07-1.9-.07-1.88-1.31s.9-1.06,1.84-1c2,.2,2.06-1.68,2.18-2.82.17-1.55-.14-3.22-2.1-3.87a7.76,7.76,0,0,0-5.08-.13c-1.56.52-3.31,0-3.62-1.67-.23-1.23,2.14-1.22,2.51-2.61,0-.11.59-.22.65-.14,2.85,3.85,7.67,2.18,11.24,4,.55.28,1.3.41,1.37,1.1C1575,412.73,1579.07,409.45,1582.3,410.34Zm-2.23,5.28c0-2.26-2.54-3.86-3.53-2.24-1.17,1.89-7.85,1.23-3.34,6.09.47.51-.23.84-.55,1.17-.6.64-1.4,1.38-.24,2.08.74.45,1.43-.08,1.73-.88s1.38-.74,1.72-1.2C1577.17,418.88,1580.31,418.64,1580.07,415.62Z"/><path class="brushsvg" d="M985.77,443.17c2.26,1.18,4.45.29,6.72-.5A2.92,2.92,0,0,1,995,443c2.66,2.67,6.68,2.16,9.53,4.28.91.67,1.56-.28,2.3-.4,3.84-.64,7.25-2.81,11.2-3,2-.1,4-.22,5.66,1.05a3.6,3.6,0,0,0,3.24.48c1.85-.6,3-.24,4.82.78s4.72.44,7.09.15c1-.12,1.72-.15,2.3.51s.29,1.38-.06,2.1a1.47,1.47,0,0,1-2.09.87c-2.75-1-5.34.58-8.08.51s-5.31.85-6.69-2.66c-.62-1.6-4.17-1.29-5,.54-1,2.3-2.44,2.65-4.47,1.88-1.71-.66-3.17.36-4.74.57a12.68,12.68,0,0,1-6.76-.57c-1.25-.52-2.61-1.51-4.13-.08-.81.76-1.77.43-2.31-.83-.82-1.92-1.84-3.76-3.45-.47-.26.53-.88.91-1.12.59-2.7-3.76-5.33.24-8,.11-2.09-.1-3.07-2.28-5.12-2,.07-.46.1-1.31.21-1.32C981.76,445.8,983.15,443.29,985.77,443.17Z"/><path class="brushsvg" d="M948.64,439.24c2.71-6.23,12.67-5.62,16.44-2.9,1.22.88-.15,2-.68,2.83a6.05,6.05,0,0,0-.12,6.63c1.19,1.77,4,2.65,5.5,1.44,1.8-1.48,3.39-.81,5.09-1a2.31,2.31,0,0,1,2.64,2.47c-.17,1.74-1.82.76-2.91.73-5-.15-10-.32-15-.38-1.91,0-2.82,2-4.82,2.42-2.31.52-3.11-2.05-5.45-1.36-2.16.63-5,2-7.16-.75-.47-.62-1.46,0-2.06.39-1.68,1-2.8,0-4-.92-.59-.47-.79-1.25-.15-1.51,1.47-.59,1.79-3.26,3.79-2.46,3.59,1.44,8.16-1,11.12,2.89.62.82,1.26.25,1.65-.56,1.1-2.3,2.77-2.75,5.23-2.06,1.84.52,4.52-2.26,4.16-4.13-.22-1.12-.67-3-2.24-2.38C956.18,440,952.65,438,948.64,439.24Z"/><path class="brushsvg" d="M1855,505.92c-1.74-.12-3.07.8-4.49,1.6s-3.15,1.29-3.83-.46.7-2.88,2.48-3.43a5.15,5.15,0,0,1,2.53,0c6.85,1.12,13.68,2,20.62.36,2.12-.5,4.26.13,5.15,2.6s.52,4.33-2.7,4.52c-1.35.08-2.67.62-4,.67-2.3.09-2.85,1.31-3,3.38-.27,4-3,5.52-6.19,3.24a9.8,9.8,0,0,0-7.21-1.76c-1,.12-1.86.21-1.78-1.06s1.13-1.3,2-1c2.4,1,4.34-.49,6.44-1.07,1.93-.54,2-2,1.45-3.57C1862,509,1856.15,505.9,1855,505.92Z"/><path class="brushsvg" d="M1813.17,210.26c-1-2.85,1.52-3.72,3.07-3.77,2.78-.1,5.68-.23,8.48.83a23.22,23.22,0,0,0,8.94,1.53c4.72-.08,10.24-.44,15.33,2.37-1.74,1.14-4.38,1.42-3.2,4.32.35.86-.91,1.38-1.76,1.57-1.3.3-1.31-.73-1.48-1.59s.33-2-.94-3.06c-.34,4-4.56.93-5.84,3.47-.19-.1-.46-.16-.55-.32-2.17-4.11-5-1.85-7.52-.63-.78.37-1.5.74-1.91,0-1.72-3.21-4.75-2.1-7-1.64s-3.68,1.07-3.69-2c0-.13-.85-.26-1.31-.39Z"/><path class="brushsvg" d="M1389.42,446.61c0,3.63-2,5.18-5.57,3.56-3.25-1.49-6.41-.92-9.63-.78-4.78.21-9.41.9-14.23-1.16-2.13-.91-4.42-1-6.3-2.94-1.08-1.09-3.28-1.75-4.09.94-.27.88-1,1.3-1.7.89-1.28-.72-.07-1.35.2-2.07.93-2.44,3-1.6,4.76-1.86,2.06-.31,5.05,1.33,5.53-2.54.06-.55.67-.65,1.17-.31.86.62,1.51,1.32.88,2.49-.38.71-1.35,1.46-.32,2.25s1.88.3,2.69-.43a2.82,2.82,0,0,1,3.16-.5c4.45,2.44,9,.66,13.48.55a9.1,9.1,0,0,0,4.24-1.25C1386.86,441.66,1389.37,443,1389.42,446.61Z"/><path class="brushsvg" d="M479.82,156.57a2.41,2.41,0,0,1,0,.38c-.27,1.43-8,5.39-9.19,4.6a17.37,17.37,0,0,0-6.81-2.74c-1.16-.2-3.05-2-4.21-3.23s-1.06-2.55-3.17-1.84c-.22.08-3.34-.21-2.59-2.66.66-2.16,1.64-2,3.59-1.08s4.45,2,5.44-1.72a3.11,3.11,0,0,1,3.18-2.13c1.5.26,1.44,1.89,1.78,3a8.61,8.61,0,0,0,9.59,6.31C478.59,155.26,479.7,154.75,479.82,156.57Z"/><path class="brushsvg" d="M1468.78,145.73c-9.34-.74-17.59-.81-25.83-.87a6.22,6.22,0,0,1-2.2-.33,1.91,1.91,0,0,1-.91-2.25c.14-1,1.1-.89,1.78-.54,3.37,1.71,6.59.4,9.94-.16,4.28-.72,8.67-.4,13-.77,4.77-.41,9.63.81,14.49.52.75-.05,2-.16,2,1.06.05,1.06-1.1,1.5-1.83,1.5A30.82,30.82,0,0,0,1468.78,145.73Z"/><path class="brushsvg" d="M2009.89,403.71c4.54-.94,8.39,1,12.47,1.22,2.94.15,4.34,4.43,2.43,6.74-.48.59-1.83,1.44-2,.21-.7-4.51-4.27-3.57-7-3.91-1.66-.19-3.39.48-5.11-.09-.3-.1-1,.09-1,.21-.58,4.64-5.06,2.34-7.3,4.05a1.76,1.76,0,0,1-2.4,0c-.8-.83-.4-1.65.1-2.37C2002.49,406.21,2004.28,401.42,2009.89,403.71Z"/><path class="brushsvg" d="M599.93,447.13c3.19,1.58,7.19,1.23,10.05.65,4.83-1,9.65,0,14.32-1.21a7.23,7.23,0,0,1,1.83-.31c1.46,0,3.08-.43,4.09,1.14a1.25,1.25,0,0,1-.06,1.71c-1.34,1-2.54.94-4.34.36-2.36-.77-5.47.19-7.65.81-3,.86-6,.6-8.93,1.12-3.68.65-7.46,2.16-11.58,1-1.36-.38-2.4-.13-2.64-1.73s.16-2.95,2.25-3A17,17,0,0,0,599.93,447.13Z"/><path class="brushsvg" d="M1886.5,507.93c4.42-1.88,8.5.36,12.62.4,2.81,0,5.73-.07,7.92,2.36a2.45,2.45,0,0,0,2.82.5c3.82-1.87,7.93-.63,11.87-1.22,2.1-.31,3.8,1,3.55,3.28s-2.6,1.84-3.89,1.5c-3.73-1-7.15-2.31-11,.18-1.11.71-3.75-.69-5.56-1.44a7.52,7.52,0,0,0-3.17-.51c-2.63,0-5.87,1.5-7.1-2.75-.35-1.24-2.21-1.3-3.64-1.37S1887.93,509.46,1886.5,507.93Z"/><path class="brushsvg" d="M1262.81,452c3.1,2,6.39-1.2,9,1.61,6.84-1.43,13.26,2.54,20.1,1.6,1.26-.17,3.2-.63,3.65,1.54a2.27,2.27,0,0,1-1.19,2.83c-1.67.79-3.81,1.3-4.89,0-2.44-3-5.24-3.23-8.6-2.41a3.71,3.71,0,0,1-3.19-.7c-.74-.57-1.87-1-2.31-.07-1.72,3.54-4.53,1.43-7,1.67-3.78.37-3.81-2.91-5.3-4.78A7.85,7.85,0,0,1,1262.81,452Z"/><path class="brushsvg" d="M1328.71,457.74c-1.28,2.35-2.49,4.32-5.38,4.05-.23,0-.61.06-.69.21-2,4-3.78,3.93-6.78.46-1.67-1.93-.56,2.74-3,2-.71-.7.37-1.73.32-2.73-.1-2.28,0-2.32-2.11-1.41-.7.29-1.4.3-1.42-.44,0-1.52-1.94-2.56-1.15-4.07.48-.91,1.63-.58,2.21.19,1.79,2.41,4.46.63,5.85.3C1321,455.26,1324.56,457.53,1328.71,457.74Z"/><path class="brushsvg" d="M1252.68,442.41c-5.48-1-10.77.6-16-.8-2.44-.65-2.38-1.85-1.31-3.46,1.32-2,3.42-3.12,5.44-4.28.38-.22,1.16-.34,1.4-.12C1245.42,436.71,1250.91,436.73,1252.68,442.41Z"/><path class="brushsvg" d="M1931.71,404c-1.17.23-2.11-.23-2.28-1.3-.54-3.34-3.36-3.41-5.7-4.27-2.86-1.05-4.58.42-6.45,2.31-.91.91-2.36,2.06-4,1.2-1.13-.59-.75-1.62-.49-2.63.41-1.6,0-3.72,2.45-4s4.9-.37,7.35-.56c.74-.06,1.07.36,1.37,1,1,2,1.85,2.42,2.66-.19.74-2.43,2.73-.8,4.14-1a2.32,2.32,0,0,1,2.72,1.48c.56,1.66-.46,2.2-1.81,3C1929.37,400.45,1932.58,402.32,1931.71,404Z"/><path class="brushsvg" d="M1050.23,135.83c1.36-1.63.89-2.17.73-2.74-.64-2.33,1.72-5.46,4.16-5.59,1.35-.08,1.32.89,1.31,1.74,0,3.09-5.9,8.1-8.83,7.28-2.26-.63-3.74-2.74-5.24-4.41-.53-.6,0-2.83,1.46-3.87,1.71-1.26,3.3-1.92,3.62.95C1047.73,131.71,1049.91,132.92,1050.23,135.83Z"/><path class="brushsvg" d="M686,445.35c-.38.62-1,.63-1.63.64-3.35.05-6.65-.06-9.49,2.42-1.31,1.15-3.41.8-5.06.32a7.7,7.7,0,0,0-5.78.28c-1.84.88-3.18,0-4.22-1.32-.56-.69-1.11-1.83-.3-2.69a4,4,0,0,1,4.18-.82,10.29,10.29,0,0,1,3,1.4c2.6,1.81,3.49-.79,5.17-1.66,1.28-.66,1.81,4.13,4.47,1.16C677.33,444,684.43,444.48,686,445.35Z"/><path class="brushsvg" d="M690.81,445.6c1.71-.94,3.47-1.31,4.64-2.94a3.07,3.07,0,0,1,2.75-.86c1.18.12,2.95,2.78,3.34-1.07.11-1.06,3.3.74,5.17-.12.77-.35,1,.81,1.13,1.55.23,1.69-.56,2.48-2,3.48-2.55,1.81-4.77,2.48-7.83,1.25A26.87,26.87,0,0,0,690.81,445.6Z"/><path class="brushsvg" d="M568,450.23c5.16-.31,10.16-2.48,15,.75.88.59,1.49.18,2.21-.57,1.66-1.71,3.78-1.79,6.44-1.42-3.2,4.13-6.89,5.36-11.64,4.56C576,452.87,571.33,454.66,568,450.23Z"/><path class="brushsvg" d="M643.81,444.79c2.8-1.47,4.63,2.53,7.52,1.55a10,10,0,0,1,.69,2.43c0,.74-.85.93-1.43.75-3.08-1-6.1-.44-9.15.13-.92.17-2.09.3-2.74-.67-.88-1.32-1.54-1.72-2.1.17-.44,1.51-1.58,1.36-2.69,1.06-.64-.17-1.24-1-.79-1.35,1.25-.86-.36-3.45,2-3.33C638,445.68,640.75,444.31,643.81,444.79Z"/><path class="brushsvg" d="M1874.5,387.33c-.63,1.64,1.87,3.16-.42,4.81-.89.65.27,2,1.43,2.44s1.3,1.4,1,2.43-1.34,1-2.18,1c-3.46.05-6.35-1.34-8-4.35-1.69-3.2,1.71-3.58,3.31-4.12S1873.16,389.05,1874.5,387.33Z"/><path class="brushsvg" d="M231.48,360.47c4-.54,7.44-3,11.82-2.12,1.95.4,3.8-1.79,4.65-4,.35-.94,1.21-1.44,2-1s.08,1.22-.1,1.93c-1.06,4-3.61,6.66-7.61,7.37a55.28,55.28,0,0,1-6.49.8A5,5,0,0,1,231.48,360.47Z"/><path class="brushsvg" d="M1062.44,446.11c3.65,1.43,7.32,1.84,11.07.3.94-.38,1.63.37,1.89,1.33.31,1.16-.18,1.62-1.34,1.5-.35,0-.91-.15-1.06,0-4.72,5.89-9.68.62-14.5.23-1.23-.09-1.45-1-.17-2A5.59,5.59,0,0,1,1062.44,446.11Z"/><path class="brushsvg" d="M209.49,368.44c-8.66-2.47-16.15,3.31-24.92,1.45a17.57,17.57,0,0,1,10.28-3.77c2.52,0,5.22.09,7.33-1.05C205.82,363.1,207.49,364.79,209.49,368.44Z"/><path class="brushsvg" d="M1840.44,488.44a23.46,23.46,0,0,1,4.64,1.76,17.07,17.07,0,0,0,4.2,1.42c1.2.38,2.78-.28,3.46,1.36.08.21-.15.67-.36.87-1.29,1.25-2.66.37-3.79-.17s-1.71-1.21-3,.22-3.79.94-5.65.52c-1.29-.29-2-2.3-4-1.24-.41.22-.91-1-.9-1.78a2.12,2.12,0,0,1,1.54-2.28A38.16,38.16,0,0,1,1840.44,488.44Z"/><path class="brushsvg" d="M1860,214.58c-3.07,1.68-4.85-2.47-7.87-2.61-.56,0-1.16-1-.49-1.37,1.62-1,1.21-2.17.81-3.56-.34-1.18.36-1.73,1.52-2.08a1.53,1.53,0,0,1,2.19,1.3c.28,4,3.25,4.43,6.2,5.2,1.06.28,3.33-.12,2.75,2.09-.46,1.73-2.15,1.23-3.5,1A15.45,15.45,0,0,0,1860,214.58Z"/><path class="brushsvg" d="M1742.87,485.93c-1.41-.55-3.86-.95-4.2-2.91s1.15-3.56,3.65-3.3a1.39,1.39,0,0,0,1-.41c2.37-2.83,3.87.22,5.71.84.76.26.66.84.43,1.51a5.37,5.37,0,0,1-5,4C1744.06,485.72,1743.69,485.8,1742.87,485.93Z"/><path class="brushsvg" d="M1886.77,497.89c-5.71-2.12-10.94,2.53-15.92-.95C1877,490.84,1883.63,490.9,1886.77,497.89Z"/><path class="brushsvg" d="M2103.72,397.48c0-2.47-1-4-3-4.81-1.11-.46-2.26-1.65-1.44-3,1.11-1.84,1.67.28,2.46.61,2.52,1.07,4.76.75,6.47-1.39,1.67.9.37,2.83,1.66,3.66.91.09,1-.56,1.14-1.16.27-1,.79-2.07,2-1.55.9.37.64,1.49.51,2.35-.69,4.85-1.42,5.18-5.29,2.42C2106.34,393.28,2106.05,393.45,2103.72,397.48Z"/></svg>