<svg id="Calque_1" data-name="Calque 1" xmlns="http://www.w3.org/2000/svg" viewBox="0 0 249 216"><defs><style>.cls-1{fill:none;stroke:#106466;stroke-miterlimit:10;stroke-width:5px;}</style></defs><g id="Groupe_8" data-name="Groupe 8"><path id="Tracé_5" data-name="Tracé 5" class="cls-1" d="M130.16,64.08c15.59-3.47,33.45-3.71,45.85,6.37,9.11,7.41,13.61,19.13,15.85,30.67,1.75,9.1,2.29,18.76-1,27.44-6.06,16.12-23.2,24.75-38.89,31.87-3.75,1.71-7.64,3.44-11.76,3.56-14.44.39-22-17.61-35-23.72-6.93-3.23-14.92-2.86-22.41-4.37-16.18-3.27-42.44-23.2-25.06-39.2C75.39,80.42,107.25,69.19,130.16,64.08Z"/><path id="Tracé_6" data-name="Tracé 6" class="cls-1" d="M154.94,73c15.45,4.08,31.42,12.07,37.8,26.71,4.7,10.77,3.31,23.25,0,34.52-2.62,8.89-6.57,17.72-13.46,23.93-12.79,11.55-32,11.33-49.18,10.46-4.12-.21-8.37-.45-12.08-2.25-13-6.29-11.42-25.72-20.24-37.16-4.67-6-12-9.4-17.9-14.17C67,104.73,52.83,75,75.62,68.73,98.78,62.39,132.24,67,154.94,73Z"/></g></svg>