<svg id="Calque_1" data-name="Calque 1" xmlns="http://www.w3.org/2000/svg" viewBox="0 0 2000 2000"><defs><style>.cls-1{fill:#106466;}</style></defs><title>4</title><g id="Groupe_16" data-name="Groupe 16"><path id="Tracé_66" data-name="Tracé 66" class="cls-1" d="M859.36,816.68c6.24-8.72,15.19-14.92,18.61-25.53,1.42-4.41,11.55-3.66,15.12,1a19.16,19.16,0,0,1,5,14.94,7.59,7.59,0,0,0,3,7.4c2.27,1.85,4.33-.81,6.33-1.76a124.66,124.66,0,0,1,71.11-11.64c13.72,1.75,25.49,7.73,37.28,14.1a32.75,32.75,0,0,0,10.74,4.21c16.07,2.43,31.71,21.74,34.79,34.27,1.17,4.73-2.25,9.08-4.12,13.38-1.28,3-1.46,6.54-6.73,6.82-3,.15-5.72,4.3-5.76,8.5-.27,33.4-11.27,64.35-21.64,95.48-1.5,4.51-2.9,8.81-.43,14.52,2,4.5-.92,11.26-2.07,16.93-2.09,10.19-7.7,19.13-10.64,29a13.49,13.49,0,0,0-1.11,4.33c1.08,17.94-9.06,31.13-18.62,44.61-5.63,7.92-8.54,17.52-14.94,24.92-9,10.47-16.44,22.22-26.22,32.13-4.3,4.36-6.1,10.64-10.53,15.16-6.44,6.58-10.38,15-18.06,21.06a174.15,174.15,0,0,0-23.27,20.3,136.54,136.54,0,0,1-23.76,20.49,232.93,232.93,0,0,1-21.79,12.13c-7.14,4-14.91,6.41-22.13,10-11.21,5.49-23.93,7.73-36.09-1.21-6.1-4.49-10.78-10.67-17.18-14.35-19.68-11.31-28.38-30.86-38.2-49.53-5.91-11.23-4.67-24-6.16-36.19-1.54-12.6-.2-25.37-2.33-38-1.07-6.34,3.51-11.72,4.33-18a526,526,0,0,1,14.16-66.31,392.31,392.31,0,0,1,29.13-76.77,467.4,467.4,0,0,1,24.66-44.73c7.21-11.08,14.68-22,22-32.92,8.27-12.3,19.19-22.08,28.33-33.49a36.67,36.67,0,0,1,9.53-8.68c2.11-1.27,3.88-3.15,3-5.87C863.48,813.6,861.12,818.85,859.36,816.68Zm-61.93,321.17c2,7.63,1.36,16.05,5.06,23.7,2,4.1,4.37,5.33,8.7,4a65.13,65.13,0,0,0,16.36-7.6c27.39-17.81,50.47-40.42,71.38-65.36,2.9-3.45,4.75-8.44,11-5.3,1,.52,3.47-.67,4.61-1.75a58.5,58.5,0,0,0,7.75-8.66,428.08,428.08,0,0,0,37.79-62.65c3.1-6.6,6.3-13.32,3-20.92-1-2.3.45-4.22,1.49-6,2.25-4,3.57-8.41,5.72-12.31,4.53-8.26,6.44-17.76,12.39-25.3a54.73,54.73,0,0,0,11.44-34.77,55.26,55.26,0,0,1,2.3-16.51,11.05,11.05,0,0,0-1.08-10.25c-1.64-2.59-5.14-8,.3-11.16a35.3,35.3,0,0,0,9.17-8.27c4.48-5.25,2-6.63-2.55-8.67-9.91-4.43-20.3-2.77-30.56-2.93a63.87,63.87,0,0,0-28.31,6A92.31,92.31,0,0,0,906.74,895c-15,21.93-26.92,45.71-41.27,68.05-11.08,17.23-22.47,33.52-41.58,43.07-5.07,2.53-10.58,7.07-12.08,13-3.69,14.61-6.9,29.4-9.22,44.28-2.15,13.83-2.83,27.87-4.31,41.81C797.13,1116,797.72,1126.77,797.43,1137.85Z"/><path id="Tracé_67" data-name="Tracé 67" class="cls-1" d="M541.16,769.09c4,2.36,2,6.37,3.71,9.17,2-.9,1.3-2.62,1.08-3.85-1.83-9.84-5.91-18.24-15.44-22.91-1.14-.56-2.75-.67-2.32-2.43a2.49,2.49,0,0,1,3.12-1.66h0c4.69.7,9.57,1.11,12.23,6.29,3.71-11.06-2.44-28.77-12.34-36.27-2-1.54-4.8-2.51-4-5.89a11,11,0,0,1,5.79-6.91c7.54-4.92,13-2.16,18.41,2.9,6.39,6,15.08,8.19,21.8,13.76a28.47,28.47,0,0,1,6.53,5.86,59.74,59.74,0,0,0,12.39,14,12,12,0,0,1,3.81,5.88c4.42,13.51,9.2,27.05,12.36,40.77a276.36,276.36,0,0,1,8.42,54.84,445.09,445.09,0,0,0,7.68,73.27c3.49,18.13,7.55,36.15,11,54.77,2.45-10.66,11.77-17.71,13.68-28.55,1-5.67,4.57-10.27,7.46-15,14.78-24.1,27.49-49.42,43.2-73,4.49-6.73,5.29-15,9.5-21.91,14.51-23.79,30.89-46.32,46.33-69.49a120.55,120.55,0,0,0,16.85-32.71c.85-2.93,2.46-5.43,5.8-5.08,4.72.49,9.94,1.16,12.15,6.08A79.11,79.11,0,0,1,797,775.72a600.78,600.78,0,0,1-16,74.48,338.5,338.5,0,0,1-20.29,53.87A206,206,0,0,0,750.88,928c-3.43,10.35-9.91,19.13-14,29.06-4.66,11.41-10.71,22.12-15.56,33.4a104.6,104.6,0,0,1-6.33,13.47c-8.7,14.26-14.18,30-21.38,45a392,392,0,0,1-24.62,44.8A150.57,150.57,0,0,1,652.79,1116a109.06,109.06,0,0,0-12.13,17.35,153.46,153.46,0,0,1-18.55,23.26,39.74,39.74,0,0,0-7,11.55c-4.05,9.29-12.78,14.27-18.88,21.64a22.93,22.93,0,0,0-4.26,5.66c-2.09,5.47-3.89,8.58-10.62,4.3-3.45-2.2-6-3.51-4.52-7.51,1.57-4.33.07-6.63-3.91-7.77a7.51,7.51,0,0,1-5.81-6.66c-.88-4.09-2-9.1-7.81-9.86-1.7-.22-2.25-2-2.41-3.5-1.1-10.07-1.93-19.89,1.06-30.11,3.33-11.4,6.55-23,4.45-35.47-1.85-11-4.25-22.9-1.76-33.29,2.43-10.15.46-19.73.25-29.14-.26-11.73-1.59-23.78-2.68-35.66-3.83-41.89-7.07-83.84-10.58-125.77-1.46-17.4-.94-34.84-1.23-52.27-.24-14.62.15-29.45-4.68-43.64A15.84,15.84,0,0,1,541.16,769.09Z"/><path id="Tracé_68" data-name="Tracé 68" class="cls-1" d="M1056.65,1357.52c9.4-1.82,17.47-6.56,25.68-11.18,4-2.26,6.6-6.36,11-7.75,19.78-6.19,37.35-17.56,57.07-24.13a181.05,181.05,0,0,0,24.75-11c12-6.14,25.91-6.81,37.6-13.57,14.16-8.19,30.82-9.08,45.42-15.52,18.18-8,37.73-12.09,55.68-20.62,6-2.87,12.42-4.92,18.68-7.28,1.4-.53,3-.7,3.56-2.94-3-1.66-7.33.52-10.45-3.12,10.11-4,17.19-11.93,26.53-17s18.5-10.74,27.45-16.66c7.9-5.21,13.36-12.66,20-18.91,9.28-8.66,13-20.59,13.42-32.88.83-21.33-4.09-40.74-19.16-57.39-11.51-12.71-19.54-28-27.75-43.25-7.45-13.85-11.18-28.8-17.5-42.89-7-15.52-4.28-32.08-.39-48.25,4-16.64,10.59-32.36,16.66-48.27a65.1,65.1,0,0,1,10.64-16.7c11.47-14.46,21.49-30.25,35.89-42.32,9.4-7.89,18.41-16.64,28.16-23.64,11.07-8,25.49-11.29,38.46-16.6,11.69-4.79,24-6.17,36-8.82a27.53,27.53,0,0,1,6.41-.45c12,.24,24-2.41,36.07-1.08,7.43.81,14.59,2.57,20,8.35a6.74,6.74,0,0,0,2.66,1.73c4.74,1.57,6.07,4.76,4,9.08a6.21,6.21,0,0,0,2.25,8.5,6.77,6.77,0,0,0,.66.33c5,2.73,5.08,7.22,5.2,11.66.16,5.57-1.29,11.14.12,16.75.67,2.68-.71,4.63-3.47,3.77-6-1.86-7.51.45-8.65,6.17-1.35,6.71-13.82,11.41-21.58,8-13.26-5.82-26.73-3.29-40.08-1.93a148.57,148.57,0,0,0-50.84,14.23,107.54,107.54,0,0,0-40.58,34.4c-14.59,20.54-23.74,43.6-32.17,67a34.26,34.26,0,0,0,2.25,26.4c8.77,19.33,23.14,34.84,34.82,52.19,12.72,18.92,26.66,37.09,33.94,59.26,5.11,15.52,9.71,31.07,8.9,47.5-.26,5.32-.71,11-1.16,16.25-.58,6.46-3.19,12.6-2.92,19.19a32.53,32.53,0,0,1-7.12,20.23c-5.08,7.18-7.08,16-11.57,23.72a179.14,179.14,0,0,1-24.5,34.31c-7.68,8-15.68,15.54-26.47,20.25-8.06,3.54-15.79,7.47-24.51,8.88-5.33.87-1.57,4.71-1.92,5.86-14.24.93-28.35-.32-41.06,4.26-9.48,3.42-19.12,5.57-28.7,8.25-2.35.65-5.1,1.48-4.94-3.22.14-4.19-3.87-3.18-6.47-3.34a349.68,349.68,0,0,0-61.7,2.8c-5.76.67-12,.22-17.23,1.73-7.21,2.09-14.89.79-21.76,4.29-7.12,3.63-15.33,3-22.9,5a88.24,88.24,0,0,1-18.79,4.2c-4,.16-8.11,4-11.55-1.8-1.43-2.44-12.34,1.38-12.93,4.86-.39,2.34-1.57,2.16-2.75,2.57a71.66,71.66,0,0,0-12.45,5.43c-6.64,3.9-15,.94-21.64,5.12a1.58,1.58,0,0,1-2.18-.53,1.65,1.65,0,0,1-.23-.78c0-1.53,1.53-2,2.77-2.24,7.37-1.34,13.56-5.52,20.24-8.47,1.81-.8,4.6-1.58,3.14-4.58-1.2-2.48-3.31-1.39-5.54-1.27-13.57.7-25.09,9.37-38.84,9.55A28.13,28.13,0,0,1,1056.65,1357.52Z"/><path id="Tracé_69" data-name="Tracé 69" class="cls-1" d="M1085,1102.68a56.35,56.35,0,0,0,14.28-11.48,758.22,758.22,0,0,0,52.52-59.06c5.41-6.67,10.67-13.49,16.27-20,14.09-16.45,20.68-36.68,29-56.11a885.23,885.23,0,0,1,42.24-85.34c7.81-13.88,17-27.12,21.63-42.66.6-2.06,1-4.19,1.53-6.28.38-1.44.44-3.56,1.4-4.15,5.44-3.35,10.77-7.73,16.76-9.13,10.89-2.55,19.44,5.29,28.64,9.41,4.74,2.13,3,12.43-3,17.38a48.92,48.92,0,0,0-12.85,15.22c-6,11.72-12.13,23.35-17.78,35.23-14.74,31-29.54,62-41.15,94.37-5.89,16.41-9.53,33.63-14.24,50.46-6.17,22.06-12.3,44.11-18.6,66.13a141.59,141.59,0,0,0-6.57,47.85,89.17,89.17,0,0,0,3.81,21.56c1.77,5.56,5.07,6.66,10.32,5.83a145.55,145.55,0,0,0,59.68-23.37c14.8-10,30.73-18.32,44.36-30.06,1-.81,2.18-2,3.34-.7s0,2.43-.92,3.35c-13.87,14.74-24.94,31.9-39.69,45.9-3.89,3.69-7,8.09-12,10.69-1.6.85-3.75,2.64.65,3,1.84.15.5,1.69-.1,2.31-1.47,1.51-3.11,2.86-5.22,4.76,6,2.55,10.1-2.14,15.11-2.07a142.6,142.6,0,0,1-28.41,19.06c-10.35,4.76-20.75,9.37-31.13,14l-1.72.81c4.46,6.51-5.14,5.95-5.22,10.38a8.43,8.43,0,0,1-4.47,6.79c-1.22.78-2.75,1.49-2.59,3.39.12,1.34,1.33,4.16-.33,3.66-3.43-1-4.3,4-8,2.1a145.49,145.49,0,0,1-16.06-9.71,8,8,0,0,1-3.09-4.79c-1.82-12.89-13.12-20.15-18.24-31.22-4.93-10.63-12.63-19.93-18.58-30.13a28.26,28.26,0,0,1-2.4-17.73c.2-1.7.88-3.78-.76-4.84-1.86-1.22-3,.85-4.34,1.84-1.9,1.41-3.94,2.65-5.79,4.13-3.37,2.68-7.11,4.36-8.66,9.59-1,3.47-6.18,6.16-10.63,7.71a38.15,38.15,0,0,0-14.45,10.19c-7.24,7.38-14.66,13.25-26.93,12.93-8.59-.22-12.06-2.07-14.42-9.45a5.64,5.64,0,0,0-5.34-4.71c-9,.1-13.68-5.86-16.52-13.23-3-7.85-5.91-15.72-9.57-23.33a26.1,26.1,0,0,1-1.27-18.44,488.82,488.82,0,0,0,12.77-51.53c2.24-13.74,7.6-26.66,9-40.69,1.07-10.7,7.92-19.94,11.22-30.27,6.42-20.12,13.48-40.11,21-59.8,8.88-23.15,20.38-45.31,31-67.76,5.46-11.51,11.56-22.72,17.39-34.05a21.41,21.41,0,0,0,2.09-10c0-4.79-1.85-9.93,2.09-14.23.45-.48.21-1.66.17-2.5-.09-1.64-3-3.71.08-4.77,2-.71,4,.9,5.47,2.74A189.16,189.16,0,0,1,1149,847.11c2,4.21-.26,8-.2,12.06a80.48,80.48,0,0,1-1.68,20.53c-7.63,31.25-15.6,62.42-24.8,93.24q-10.65,35.68-21.57,71.3c-5.71,18.5-11.31,37.06-16.31,55.78C1084.23,1100.81,1083.8,1101.67,1085,1102.68Z"/></g></svg>