<svg id="Calque_1" data-name="Calque 1" xmlns="http://www.w3.org/2000/svg" viewBox="0 0 2000 2000"><defs><style>.cls-1{isolation:isolate;}.cls-2{fill:#d0e8e2;}</style></defs><title>Plan de travail 1 copie 12</title><g id="ÉCOUTEZ_NOS_ÉTUDIANTS" data-name="ÉCOUTEZ NOS ÉTUDIANTS" class="cls-1"><g class="cls-1"><path class="cls-2" d="M460.75,535.8v157h42v36.46h-42v157h57.47V927H412.54V495h102V535.8Zm-10.51-64.89,23.48-53.15h42.64L479.9,470.91Z"/><path class="cls-2" d="M590.52,930.69a62.76,62.76,0,0,1-21-3.7,56.31,56.31,0,0,1-18.85-11.13,52.16,52.16,0,0,1-13.29-19.15q-4.95-11.75-4.94-28.43V553.72q0-16.69,4.94-28.43a52.37,52.37,0,0,1,13.29-19.16A56.28,56.28,0,0,1,569.51,495a62.78,62.78,0,0,1,21-3.71h11.12a62.86,62.86,0,0,1,21,3.71,56.28,56.28,0,0,1,18.85,11.12,52.37,52.37,0,0,1,13.29,19.16q4.94,11.75,4.94,28.43V669.28h-48.2V560.52q0-16.07-3.71-22.25t-10.5-6.18h-2.47q-6.81,0-10.51,6.49t-3.71,22.55V860.86q0,16.08,3.71,22.56t10.51,6.49h2.47q6.79,0,10.5-6.49t3.71-22.56V752.09h48.2V868.28q0,16.68-4.94,28.43a52.16,52.16,0,0,1-13.29,19.15A56.31,56.31,0,0,1,622.65,927a62.85,62.85,0,0,1-21,3.7Z"/><path class="cls-2" d="M736.36,930.69a62.76,62.76,0,0,1-21-3.7,56.31,56.31,0,0,1-18.85-11.13,52.28,52.28,0,0,1-13.29-19.15q-5-11.75-4.94-28.43V553.72q0-16.69,4.94-28.43a52.49,52.49,0,0,1,13.29-19.16A56.28,56.28,0,0,1,715.35,495a62.78,62.78,0,0,1,21-3.71h11.12a62.88,62.88,0,0,1,21,3.71,56.48,56.48,0,0,1,18.85,11.12,52.47,52.47,0,0,1,13.28,19.16q4.93,11.75,5,28.43V868.28q0,16.68-5,28.43a52.26,52.26,0,0,1-13.28,19.15A56.5,56.5,0,0,1,768.5,927a62.86,62.86,0,0,1-21,3.7Zm4.33-398.6q-14.24,0-14.22,29V860.86q0,16.08,3.71,22.56t10.51,6.49h2.47q6.8,0,10.5-6.49t3.71-22.56V561.13q0-29-14.21-29Z"/><path class="cls-2" d="M883.16,930.69a67.58,67.58,0,0,1-20.92-3.4,49.65,49.65,0,0,1-18.76-11.12A59,59,0,0,1,830,896.71q-5.22-11.75-5.22-28.43V495h48.2V860.86q0,16.08,3.71,22.56t10.51,6.49h3.09q6.16,0,9.89-6.49t3.7-22.56V495H952V868.28q0,16.68-4.93,28.43a52.14,52.14,0,0,1-13.22,19.15A56.11,56.11,0,0,1,915.13,927a64,64,0,0,1-21.52,3.7Z"/><path class="cls-2" d="M1094.79,535.8h-41.4V927h-48.21V535.8h-42V495h131.63Z"/><path class="cls-2" d="M1154.73,535.8v157h42v36.46h-42v157h57.48V927H1106.53V495h102V535.8Z"/><path class="cls-2" d="M1351.25,927H1222.09V891.76l74.78-360.29h-63V495h111.24v35.22l-74.78,360.29h81Z"/></g><g class="cls-1"><path class="cls-2" d="M433.24,1565.58l-15.38-84.73h-.37v84.73H405.43V1436h16.32l14.46,83v-83h13.16v129.59Z"/><path class="cls-2" d="M472.36,1566.69a18.85,18.85,0,0,1-6.3-1.11,16.82,16.82,0,0,1-5.66-3.34,15.8,15.8,0,0,1-4-5.74,22,22,0,0,1-1.48-8.53V1453.6a21.94,21.94,0,0,1,1.48-8.53,15.84,15.84,0,0,1,4-5.75,17,17,0,0,1,5.66-3.33,18.86,18.86,0,0,1,6.3-1.12h3.34A18.86,18.86,0,0,1,482,1436a17,17,0,0,1,5.66,3.33,15.72,15.72,0,0,1,4,5.75,21.93,21.93,0,0,1,1.49,8.53V1548a22,22,0,0,1-1.49,8.53,15.68,15.68,0,0,1-4,5.74,16.82,16.82,0,0,1-5.66,3.34,18.85,18.85,0,0,1-6.3,1.11Zm1.3-119.58q-4.26,0-4.26,8.71v89.92c0,3.22.37,5.47,1.11,6.77a3.46,3.46,0,0,0,3.15,2h.74a3.46,3.46,0,0,0,3.15-2c.75-1.3,1.12-3.55,1.12-6.77v-89.92q0-8.7-4.27-8.71Z"/><path class="cls-2" d="M522.42,1488.08v-32.44q0-4.82-1.11-6.68a3.51,3.51,0,0,0-3.16-1.85h-.74a3.46,3.46,0,0,0-3.15,2q-1.11,1.95-1.11,6.76v15.58a30.78,30.78,0,0,0,3.71,15.57,128.42,128.42,0,0,0,8.15,12.52,121.11,121.11,0,0,1,8.16,12.6,31.86,31.86,0,0,1,3.71,15.85v20a22.16,22.16,0,0,1-1.48,8.53,16.28,16.28,0,0,1-3.9,5.74,15.74,15.74,0,0,1-5.56,3.34,19.37,19.37,0,0,1-6.49,1.11h-2.78a21,21,0,0,1-6.49-1,15.82,15.82,0,0,1-5.74-3.33,17,17,0,0,1-4.18-5.84,20.86,20.86,0,0,1-1.57-8.53V1513.3h13.16v32.44c0,3.22.49,5.47,1.48,6.77a4.35,4.35,0,0,0,3.53,2h.74a4.11,4.11,0,0,0,3.43-2c.93-1.3,1.39-3.55,1.39-6.77v-15.57a30.88,30.88,0,0,0-3.71-15.57,126.69,126.69,0,0,0-8.16-12.52,121.75,121.75,0,0,1-8.15-12.61,31.71,31.71,0,0,1-3.71-15.85v-20a20.83,20.83,0,0,1,1.57-8.53,16.68,16.68,0,0,1,4.08-5.75A16.86,16.86,0,0,1,510,1436a18.86,18.86,0,0,1,6.3-1.12h1.85a18.62,18.62,0,0,1,6.4,1.12,17.13,17.13,0,0,1,5.56,3.33,15.74,15.74,0,0,1,4,5.75,21.94,21.94,0,0,1,1.48,8.53v34.48Z"/></g><g class="cls-1"><path class="cls-2" d="M640,1174.39v157h42v36.46H640v157h57.47v40.79H591.81v-432h102v40.79Zm-10.51-64.89L653,1056.35h42.65l-36.47,53.15Z"/><path class="cls-2" d="M835.92,1174.39H794.51v391.19h-48.2V1174.39h-42V1133.6H835.92Z"/><path class="cls-2" d="M906.08,1569.29a67.47,67.47,0,0,1-20.91-3.4,49.83,49.83,0,0,1-18.76-11.12,58.72,58.72,0,0,1-13.53-19.47q-5.24-11.73-5.23-28.43V1133.6h48.21v365.86q0,16.07,3.71,22.55c2.47,4.33,6,6.49,10.5,6.49h3.09c4.11,0,7.42-2.16,9.89-6.49s3.71-11.84,3.71-22.55V1133.6H975v373.27q0,16.68-4.92,28.43a52.5,52.5,0,0,1-13.22,19.16,56.18,56.18,0,0,1-18.76,11.12,64.06,64.06,0,0,1-21.53,3.71Z"/><path class="cls-2" d="M994.12,1565.58v-432H1063a69.38,69.38,0,0,1,21.52,3.4,52.06,52.06,0,0,1,18.76,10.82,52.85,52.85,0,0,1,13.22,18.85q4.92,11.43,4.93,28.11V1504.4q0,16.68-4.93,28.12a52.85,52.85,0,0,1-13.22,18.85,52,52,0,0,1-18.76,10.81,69.09,69.09,0,0,1-21.52,3.4Zm48.2-391.19v350.4h17.31q6.16,0,9.88-5.87t3.71-21.94V1202.2q0-15.43-3.71-21.63c-2.47-4.11-5.77-6.18-9.88-6.18Z"/><path class="cls-2" d="M1188.79,1133.6v432h-48.21v-432Z"/><path class="cls-2" d="M1285.18,1451.25h-34l-9.27,114.33h-41.4l38.31-432h61.8l40.79,432h-46.35Zm-30.9-35.84h27.81l-13-148.32h-1.86Z"/><path class="cls-2" d="M1444.62,1565.58l-51.3-282.42h-1.23v282.42h-40.17v-432h54.38l48.21,276.86V1133.6h43.87v432Z"/><path class="cls-2" d="M1641.14,1174.39h-41.41v391.19h-48.2V1174.39h-42V1133.6h131.63Z"/><path class="cls-2" d="M1731.36,1307.26V1199.11q0-16.06-3.7-22.25c-2.48-4.11-6-6.18-10.51-6.18h-2.47q-6.81,0-10.51,6.49t-3.71,22.56v51.91q0,30.28,12.36,51.91a424.33,424.33,0,0,0,27.2,41.72,410.35,410.35,0,0,1,27.19,42q12.35,21.95,12.36,52.84v66.74q0,16.68-5,28.43a54.55,54.55,0,0,1-13,19.16,53.16,53.16,0,0,1-18.54,11.12,64.68,64.68,0,0,1-21.63,3.71h-9.27a70,70,0,0,1-21.63-3.4,52.89,52.89,0,0,1-19.16-11.12,56.52,56.52,0,0,1-13.91-19.47q-5.25-11.73-5.25-28.43V1391.31h43.88v108.15q0,16.07,4.94,22.55t11.74,6.49h2.48c4.52,0,8.34-2.16,11.43-6.49s4.63-11.84,4.63-22.55v-51.92q0-30.27-12.36-51.91a425.28,425.28,0,0,0-27.19-41.71,406.07,406.07,0,0,1-27.19-42q-12.37-21.93-12.36-52.84v-66.74q0-16.68,5.25-28.43a55.5,55.5,0,0,1,13.6-19.15A56.14,56.14,0,0,1,1690,1133.6a62.78,62.78,0,0,1,21-3.71h6.18a61.94,61.94,0,0,1,21.32,3.71,56.9,56.9,0,0,1,18.54,11.13,52.48,52.48,0,0,1,13.29,19.15q4.93,11.74,4.94,28.43v115Z"/></g></g></svg>