<svg id="Calque_1" data-name="Calque 1" xmlns="http://www.w3.org/2000/svg" viewBox="0 0 2000 2000"><defs><style>.cls-1{opacity:0.96;}.cls-2{fill:#106466;}</style></defs><title>8</title><g id="Groupe_15" data-name="Groupe 15" class="cls-1"><path id="Tracé_27" data-name="Tracé 27" class="cls-2" d="M1609.09,1098.93a7.39,7.39,0,0,1-7.43-1.33c-.82-.68-1.93.17-2.32.71-.77,1.07-2,1.09-2.87,1.55,0,1.26,1.32.83,1.6,1.61-.09.12-.19.35-.29.36a10.26,10.26,0,0,1-5.65-1.13,2.68,2.68,0,0,0-2.52-.13,4.67,4.67,0,0,1-4.76-.58,14.38,14.38,0,0,0-7.81-2.86c-1.32-.31-2.6-.79-3.89-1.22-.55-.18-1.56.29-1.44-.9.09-.77.78-.77,1.36-.85,1.77-.29,3.7-.09,4.16-2.71.19-1.11,2.27-.45,2.92-1.61.92-1.66,1.37-3.53,2.39-5.18a2.28,2.28,0,0,0-2.51-3.12,15.65,15.65,0,0,1-7.79-2.28c-3-1.7-4.48-1.07-5,1.34-.29,1.45-.19,2.52,1.6,2.78.58.08,1.55,0,1.39,1.07a2,2,0,0,1-1,1.68c-1.07.5-2.17,1.18-3.35.65a29.71,29.71,0,0,0-7-1.17c-1.45-.28-3-1-4.35.55-.52.59-1.49.16-2.2-.22a3.7,3.7,0,0,0-3.38-.45,3.73,3.73,0,0,1-5-1.79,2.55,2.55,0,0,1-.13-.29,7.41,7.41,0,0,0-7.17-3.91c-1,0-1.15-.6-1.43-1.16-.89-1.76-2.45-1.56-3.83-1.09-2.92,1-.53,2.31,0,3.5-3,1.78-5.34,1.3-8.92-1.7a3.81,3.81,0,0,0-4.71-.94,6,6,0,0,1-7.5-2.8c1.49-.94,2.79-2.21,4.58-.41a.94.94,0,0,0,1.31-.18v0c.39-.49.1-1-.27-1.29-.94-.81-2-1.51-2.09-3.11l-2.6,2.11a2.93,2.93,0,0,1-2.18.39c-1.29-4.24-6.36-.42-8.15-3.87-.41-.79-2.32-.67-2.82.87-.57,1.75-1.81,1.76-3.18,1.6-.55-1.06,1.45-1.33.54-2.31-.58-.63-.28-3-2.35-.91-1.43,1.43-3.46,2.82-5.88.66-1.34-1.2-4.12.13-4.88-.35a10.14,10.14,0,0,0-5.31-.94c-.79,0-2-.79-2.26.45s1.1,1.85,2.11,2c2.3.36,3.34.62.67,2.45-.92.64-.78,2.43-2.31,3.09-.77.33-.37,1.4.38,1.93s1.59.26,1.92,1.19c-.41,1.07-1.33.72-2,.53-6-1.8-12.23-1.77-18.23-3.23-2.35-.57-3.38-2.55-4.37-4.88-.89,1.75-1.9,2-3.24.56-1.19-1.24-2.05-.83-2.37.84-.1.59.29,1.51-.88,1.47a1.22,1.22,0,0,1-1.35-1.09,1.32,1.32,0,0,1,0-.44,1.47,1.47,0,0,0-1.13-1.74l-.36,0c-1-.12-1.43.43-1.67,1.28-.14.47-.31,1-.86,1.1-2,.3-3.45.84-2,3.29.34.56-.23,1.12-.81,1.36a1.27,1.27,0,0,1-1.71-.54l0-.07c-.92-1.72-2.09-1.57-3.67-.77s-3.73,0-4.78.73c-3,2-4.35-.64-6.29-1.58s-4.35-.26-6.29-1.87a12.45,12.45,0,0,0-2.84-1.92c-1.72-.78-3-1.25-3.93,1.08s-3.28,1-4.26.38c-3-2-6.54-1.48-9.74-2.41-.62-.18-1.06-.26-1.28-.92-.34-1-1-1.14-1.81-.48-1.76,1.49-3.13.72-4.53-.63a6.84,6.84,0,0,0-7.9-1.47c-.93.47-2.15.77-1.65,2.29.38,1.23.71,2.33,2.45,2.4,2.45.09,4.79,2.42,7.35.33.62,1.46,2.2,1.73,3.2,2.63s-.36,1.14-1.18,1.09c-3.48-.19-7-.28-10.44-.64-1.75-.18-2.88,0-3.18,2-.14.86-.59,1.46-1.6,1.31-.79-.11-1.61-.2-1.7-1.25,0-.5-.23-1.29-.63-1.17-2.14.67-3.91.68-5.19-1.59-.27-.47-1.12.12-1.19.79-.31,2.8-1.27,1.29-2.2.36-.67-.69-1.39-1.34-2.11-2a1.13,1.13,0,0,0-1.59-.09h0c-.57.48-.46,1,0,1.5s1.16,1.71.35,2c-1.15.36-2.26-.73-3.21-1.44-.62-.47-.55-1.21.29-1.65s1.43-.88,1-1.82a1.9,1.9,0,0,0-2.3-.89,5.49,5.49,0,0,1-5.67-1,1.43,1.43,0,0,0-2,.08l-.09.11a3.23,3.23,0,0,0-.41,2c.09.91.85,1.26,1.72,1.23.67,0,1.36-.39,2,.3-.08.2-.1.52-.26.68-1,.87-2.58,1.34-2,3.16a4.61,4.61,0,0,0,3.78,2.78,21.42,21.42,0,0,1,9.25,2.88,5.53,5.53,0,0,0,7.15-2.76c1.19,1.4,2.92,2.2,3.31,4.7,2-3,5.41-1.42,7.53-3.48.6-.59,1.58.48,1.86,1.36a11,11,0,0,0,4.82,5.35c.64-2.17,1-4.84,4.34-3.47a.59.59,0,0,0,.55-.17c1.87-2.56,2.82-.84,3.6,1,1.21-.76,1-1.86,1.19-2.76s.39-1.9-.65-2.31a2,2,0,0,0-2.63.62c-.66,1.32-1.43,1.14-2.29.5s-.93-1.52-.21-2.51a13.22,13.22,0,0,0,1.46-2.85c1.06-2.56,2.17-2.75,4-.57.34.41.35,1.42,1.07,1.06,3.81-1.88,7.19,1.55,11,.73,2-.43,1,1.85,1.68,3.09,3-3.46,6.08-.72,9.1-.75-2.66,1.78-5.78.91-8.52,1.86-1.86.64-4,.59-5.54,2.09-.94.9-1.36,1.45.27,1.92s2.19,1,1.23,2.88c-.54,1.07-1,3.37.55,4.28s3.13,2.46,5.28.57c1.71-1.5,3.42.65,5.26.34-.14,1.32-2,.62-1.6,2,.3,1,1.15.75,2,.81,1,.06,2.42.47,2.39,1.64,0,1.77-1.59.91-2.52.9a16.5,16.5,0,0,1-8-2.64c-.25-.14-.59-.56-.65-.51-2.53,1.82-4.58-.67-6.87-.72-1,0-2.37-.12-2.74,1.18-.46,1.56-1.08,3.19.18,4.76a2.83,2.83,0,0,0,3.39,1,23.52,23.52,0,0,0,2.46-.94,7.39,7.39,0,0,1,10.11,2.7,7.27,7.27,0,0,1,1,2.94c.47,2.49,1.56,2.41,3.16.92.41-.38,1.2-1,1.36-.88,2.69,1.94,6.5.83,8.92,3.23a5.22,5.22,0,0,0,3.42,1.42,116.85,116.85,0,0,1,13.94,3.11c.87.2,2.31.29,1,1.78-.54.62-.4,1.1.3,1.33s1.49.47,2.09-.4a4.59,4.59,0,0,1,5.54-1,6.52,6.52,0,0,0,6,1.17,5.84,5.84,0,0,1,3.18-.29c1.81.47,2.79.09,3.91-1.82a5,5,0,0,1,6-2.4c3.38,1.2,6.08-.82,8.66-2.21a15.12,15.12,0,0,0,3.35-3.65c1.12-1.39.66-2.64-1.07-3.1a4.87,4.87,0,0,0-5,.7c-.59.52-1.82,2.12-3,.08-.4-.72-1.15,0-1.06.62.24,1.47-.82,2-1.62,2.86s-1.63,1.7-2.67.55c-.85-.94-1.81-2-1-3.49,1.33-2.56.82-3.56-2-3.48-1.48,0-2.35,0-2.61-1.79-.12-1-1.14-2-2.33-.6-.54.65-1.24.44-1.9.47a1.14,1.14,0,0,0-1.19,1.07,1.16,1.16,0,0,0,.86,1.35c.63.24,1.31.84,1.88.74,3.23-.53,4.2,2.22,5.74,4s.7,3.6,0,5.3-2,.6-3,.3a2.81,2.81,0,0,0-2,.35c-1,.48-2.58.39-3-.35-1.51-2.46-4.65-2-6.36-4a.92.92,0,0,0-1.25-.29,1,1,0,0,0-.25.24,2.88,2.88,0,0,1-.68.43,51.91,51.91,0,0,1-3.88-6c-.46-.91.36-1.56,1.58-1.07a28.11,28.11,0,0,0,2.84.72,1.75,1.75,0,0,0,2.44-1.42c.08-2.13.88-4.35-.31-6.44-.13-.21-.14-.73,0-.77.33-.15.82-.34,1.08-.2a3,3,0,0,0,4.14-.77c.06-.09.11-.18.16-.27.67-.92,1.17-.15,1.46.51a4.35,4.35,0,0,0,4.18,2.71c1.63.08,1.82.93.73,2.86,2.06-1.44,3.27-1.83,5.13-.62a12.15,12.15,0,0,0,5.41,1.4,14.51,14.51,0,0,1,7.19,1.91,9.75,9.75,0,0,0,6.22,1.51,4.89,4.89,0,0,1,3.83,1c1,.91,2.27,1.3.48,2.92-1.37,1.24-.06,2.94,1.23,3s2.74.68,4.3.75c-.34-1.92-1.77-3.21-1.88-5.67,8.64,3.91,17.73,5.11,26.43,7.89-1.29,1.47-2.69,3,.31,4.57,1.42.74,1.26,4.78.21,5.79l2.81,1.22c.65-.64,0-1.44.14-2.19.29-1.66.52-3,2.68-1.56a6.54,6.54,0,0,0,6.93-.25c.86-.45,1.56-.93,2.38-.33s.25,1.35,0,2.11a4.27,4.27,0,0,0,1.6,5.16,13.05,13.05,0,0,0,10.39.53c.84-.68,1.38-.36,2.08-.21,3.82.87,7.67,1.66,11.44,2.71,1.22.34,3.15-1.06,3.55.77.44,2.06-1.82,1.75-3,2.4s-2.07,1.94-3.34,2.71a1.69,1.69,0,0,0-.16,2.36,1.13,1.13,0,0,0,.26.23,4.32,4.32,0,0,0,1,.68c1.64.85,3.92,1.29,4.76,2.63.94,1.49-1.21,3.25-1.46,5.09-.28,2-.54,2.85,2.5,2.84a22.87,22.87,0,0,1,10.23,2.73c1,.5,2.15,1.2,2.92.13a4,4,0,0,0,.41-3.84c-.28-.57-1-2.31-2.71-1.25-1.19.74-2.34-.35-3.16-1s1.44-.61.6-1.79c-2.13,1.07-3.07-.89-5.3-1.82a5.74,5.74,0,0,1,4.4-.13c1.37.32,2.7,1.34,3.83-.49.39-.64,1-.28,1.5.13.73.59,1.25,1.55,2.42,1.38-.78-1.47,1.47-2.39.59-4.1a8.12,8.12,0,0,0-2.75-3.59c-.64-.42-1.45-1-.82-1.9.77-1.07,1.3,0,1.87.43a10.22,10.22,0,0,1,2.76,2.12c.65.82,1.87,1.83,2.75,1.37,2.88-1.5,5.27,1.1,8,.64a1.66,1.66,0,0,1,1.24.69c1.14,1.61,2.23,2.9,3.9.51a1.1,1.1,0,0,1,1.06-.18c2.93,2.59,5.18.17,7.57-1a2.11,2.11,0,0,1,2.45-.06c.77.61.38,1.44.23,2.19-.22,1.14-1,1.52-1.93,1-1.46-.86-2.09.23-2.93.9.34,1.16,1.14.7,1.74.65a14.32,14.32,0,0,1,7.72,1.51c1.08.54,2.3.87,2.65-.55.83-3.46,3.67-2.84,5.83-2.7a6.06,6.06,0,0,1,4.4,2.08c-.39.65-1.07.74-1.73.93-1.49.43-1.71,1.72-1.9,3-.22,1.58,1,1.67,2,1.94,1.63.42,1.92,1.22.61,2.39-1.07,1-1.19,2.67-2.83,3.21a.84.84,0,0,0-.6,1,.85.85,0,0,0,.51.57c1.1.56,1.08,1.79,1.89,2.74,1.39-1.6,3.41-1.72,5.21-2.25,1-.28,2.93-.82,2.71,1.7a.7.7,0,0,0,1.33.39c.42-1.86,3.27-3.19,1.28-5.6-.48-.57.1-1.07.45-1.53s.9-.54,1-.3c.85,2.38,3.24,1.21,4.76,2.1s3.35,1.42,2.14,3.84a1.69,1.69,0,0,0,.49,1.89c.51.51,1.12.19,1.63-.09a1.49,1.49,0,0,0,.63-2l0,0c-.39-.84-.95-1.81-.1-2.37s1.64.36,2.43.93c1.27.92,2.7,1.75,3.85-.4.71-1.32,1.53-1,2,.3.72,1.84,1.59,2.15,3.23.76,1-.86,2-.44,3.56.13,3,1.13,4.67,5.51,8.8,3.9a1.44,1.44,0,0,1,1,.23c.06,2.32,3.59,3.64,1.51,6.77-1.63,2.46,1.5,2.72,2.83,3.4,1.52.77,3.39.81,4.57,2.36a1.43,1.43,0,0,1,.15,1.87c-.63.79-1.3.1-1.66-.38-.85-1.12-1.94-1.43-2.58-.2-1.3,2.47-2.64.9-3.62,0-.81-.7-1.18-1.36-2.36-.65a1.85,1.85,0,0,1-2.16-.53c-1.86-1.87-4-.88-6.1-.63a1.63,1.63,0,0,0-1.46,1.79s0,.08,0,.11c.07,1.09.93.9,1.7,1.11a38.32,38.32,0,0,1,6.14,2.18c2.8,1.3,5.92,2.23,7.41,5.42.3.65,1.12.3,1.84.13,2.47-.57,4.72-2.93,7.65-.79.49.36,2.51.61,3.14-.74s-.52-2.37-1.46-2.89c-1.64-.92-2.45-2.62-4-3.65-1.39-.91-1.52-2.33.35-3.54,3.06-2,3.09-3.33.33-6.28,2.51.78,4-.64,5.83-2.09.07,1.32-1.12,3.77,1.65,2.19a1.2,1.2,0,0,1,1.11.18c2.69,3,7.49,1.85,10,5.22-.72.63-1.53,1.45-2.44,2.15a1.65,1.65,0,0,0-.84,1.41c0,.76,2,1.16.52,2a2.18,2.18,0,0,1-2.79-1c-.1-.15-.49-.09-.83-.13,1.77,3,1.76,2.94-1.66,4.41-1.46.63-3,1.46-2.65,3.36s1.5,3,3.64,2.09c1.08-.44,1.65.69,2.14,1.17a15.11,15.11,0,0,0,13.07,4,19.41,19.41,0,0,1,8.5.67c4.2,1.56,5.3.63,4.86-4.49a5.05,5.05,0,0,1-5.48,2c-1.92-.28-1.6-2.08-2.14-3.34,1.1-.41,1.23.25,1.62.87.9,1.39,2.34.64,2.34-.31,0-3.9,3.43-1.14,4.62-2.55,1,2.09,3.13.81,4.59,1.54.47.24.92.49.76,1.06-.22.8-.64.36-1.06.12-.87-.52-1.24.19-1.61.76-.52.81.1,1.39.67,1.67a2.26,2.26,0,0,1,1.25,2.9c-.53,2.67,1.14,4,3.3,4.71a14.63,14.63,0,0,1,5.13,2.63c1.19,1,2.74,2,3.75-.41.34-.8.8-1,1.51-.23,2.27,2.62,5.88,1.54,8.62,3,.71.39,1.36-.55,1.48-1.42s-.28-1.23-1.11-1.4c-1.92-.35-3.86-.68-5.74-1.21-2.51-.71-2.86-1.41-2.28-3.68.27-1.09,1.06-1,1.83-.76a4.77,4.77,0,0,0,2.2.71,1.1,1.1,0,0,0,1-1.17v0c0-.74-.38-1.13-1.11-.74-1.63.87-1.75-.71-2.28-1.44a1,1,0,0,1,.41-1.36.73.73,0,0,1,.19-.07c.94-.44,2-.73,2.66.27a2.44,2.44,0,0,0,3.28,1.07,1.82,1.82,0,0,0,.47-.31,2.16,2.16,0,0,1,.57-.14,3.67,3.67,0,0,1,4.61,2.09c.8,2.4-1.68,2.23-3.42,3.06,1.45.48.88,2.54,2.77,2.39,3.91-.3,3.91-.29,5.32-2.92,1.24.26.91,1.4,1.06,2.13.22,1,.51,1.93,1.61,2.21,2.63.67,4.78,2.53,7.81,2.43a23.13,23.13,0,0,1,7,1.68,1,1,0,0,1,.87,1.11,1,1,0,0,1-.44.71c-1.51,1.33-.62,2.55.21,3.57a5.33,5.33,0,0,1,1.2,2.2c.3,1.23,1,2.31,2.7,2a4,4,0,0,1,2,.46c2.93,1.1,4.86.42,5.94-2.15.41-1-.28-1.4-1-1.83a2,2,0,0,1-1-2.67,2.27,2.27,0,0,1,.19-.34c.83-1.35,1.42,0,2.1.35,1.31.62,2-1.12,3.23-.85.54,1.24-.32,2-1,2.8-1.89,2.2-1.93,3.59.52,4.85,2,1,4,2.88,6.81,1.81a7.3,7.3,0,0,1,6.2,1,6,6,0,0,0,6.08.58,3,3,0,0,1,4.19.83,2.78,2.78,0,0,1,.38.82c.43,1.2,1.56,1.61,2.71,2.75l-8.14,0c-.39,0-.92-.17-1.14,0-4.28,3.81-7-.65-10.13-2.09-.86-.39-1.18-.08-1.76.14a6.88,6.88,0,0,1-5.93,0c-1.19-.58-4.28-1.57-3.62,1s3.55,4.36,5.51,6.46c.17.18.75,0,1.13,0,.65-.11,1.27-1.91,1.88-.21.33.92.22,2.43-1,2.73-1.11.26-2,1.29-3.71-.41a8.43,8.43,0,0,0-8.12-2.75,2.58,2.58,0,0,1-3.26-1.13c-1.05-1.43.78-1.36,1.07-2.13a27.75,27.75,0,0,1,2.17-3.38,2.47,2.47,0,0,0-.6-3.45,1.18,1.18,0,0,0-.19-.11c-.72-.56-1.14-.8-1.52.13-1.92,4.62-6.14,4.94-10.23,5.42-.9.11-1.78,0-2.25,1-1.07,2.18-2.67.82-3.15,0-1-1.71-2.68-3.57-.71-5.81.58-.67.75-2-.13-2.35-1.72-.66-2.84-3-5.17-2-1.63.72-3.18,3-5,.18-.23-.37-.73,0-.93.33-1.39,2.59-4.07,2.28-6.37,2.78a4.37,4.37,0,0,0-1.6.56,3.22,3.22,0,0,1-4.53-.21c-.11-.13-.21-.26-.31-.4a5.82,5.82,0,0,0-6.43-1.7c-3.81.79-8.31,1.49-11-3.07-.35-.6-.86-.4-1.17.05a2.19,2.19,0,0,1-2.28,1c-4.77-1.42-10.25-1.51-13.94-5.05a26.82,26.82,0,0,0-5.94-3.58c-.17-.1-.52.1-.75.17-.31,1,.53,1,.94,1.29a.71.71,0,0,1,.25,1,.92.92,0,0,1-.8.23c-1.29-.36-3-.41-3.74-1.26A8,8,0,0,0,1699,1202c-.67,0-.67-.51-.83-1-.57-1.63-1.55-1.78-2.46-.38s-1.85,1.17-2.65.36-1.84-1.75-1.3-3,1.65-1.15,2.72-.52a2.54,2.54,0,0,0,2,.28c.85-.2,1.86-.2,1.88-1.43a1.67,1.67,0,0,0-1.49-1.83h-.36c-2,0-4.27,1-5.51-1.64a.29.29,0,0,0-.28-.08c-4.18,1.26-7-2.43-10.6-3a8.07,8.07,0,0,0-3.17.21c-.54.14-1.37.51-1.43,1.29s.74.85,1.2,1.13a3.85,3.85,0,0,1,1.91,2.08c.23.67,1.82.58,1.29,1.6s-1.65.91-2.65.73l-6-1c-.56-.1-1.31,0-1-.93.48-1.32.65-2.19-1.07-.92-.13.1-.45.16-.49.11-2.74-4-6.16-1.9-9.54-1.26a5.54,5.54,0,0,1-5.14-2.29c-.61-.71-1-1.92-2.27-1.45-2,.77-3.6.72-4.41-1.68-.21-.67-.84-.58-1.48-.35a6.09,6.09,0,0,1-7.51-2.13c-.34-.42-1-.73-.64-1.45.28-.52.85-.39,1.32-.37,1.56.11,2.75-.28,2.86-2.12.14-2.08-1.48-2-2.79-2.22a7.07,7.07,0,0,0-7.77,3.79c-.7,1.3-1.25,1.49-2.73,1.13-2.43-.59-5.26-.65-7.38-1.43-3.69-1.35-7.7-1.31-11.28-3.37a24,24,0,0,0-10.07-3.12c-.3,0-.72.07-.85-.09-3-3.46-8.06-2.66-11.34-5.46-1-.82-2.08-.37-3-.74-.64-.25-1.68-.45-1.7-1.4s.95-1.14,1.68-1.34a12.91,12.91,0,0,1,1.74-.21c1.26-.16,1.6-1.06,1.53-2.12a1.51,1.51,0,0,0-1.46-1.57,1.48,1.48,0,0,0-.62.11,6,6,0,0,1-7.8-3.15,5.29,5.29,0,0,1-.27-.76,2.06,2.06,0,0,0-2.63-1.29l-.25.1c-.89.31-1.67.91-2.77.69-2.66-.53-4.27-.28-1.87,2.75.53.68.09,1.36-.56,2-.94.91-1.69,2-3.21,1.37a140.43,140.43,0,0,0-14.4-3.77,2.64,2.64,0,0,1-1.54-1.28,2.6,2.6,0,0,0-3.21-1.25c-3,.67-5.41-1.66-8.32-2a73.4,73.4,0,0,1-11.43-3.36,106.85,106.85,0,0,0-14.67-4.33c-1.32-.21-3.59-.11-2.63-2.77.06-.14-.46-.69-.77-.73-2.54-.41-5.13-2.1-7.57.23-.32.3-.77.61-1,.31-1.91-2.79-5.83-1-8.18-4a10.06,10.06,0,0,0-8.35-1.83c-3.4.7-5.11-1.94-7.78-2.31-.54-.07-1.19-.9-1.5-.76-2.66,1.22-4.61-.93-6.91-1.35a36.61,36.61,0,0,1-14.54-4.27,23.07,23.07,0,0,0-8.1-1.91,163,163,0,0,1-16.87-5.25c-2.92-1-5.68-3.1-8.86-3.13-4.23,0-7.55-2.28-11.29-3.5a105.57,105.57,0,0,0-10.4-2.49c-2.32-.49-4.32-1.77-6.66-2.08-1.22-.15-.89-1.24-1.08-2.08-.57-2.59-2.53-3.23-4.47-1.46-1.65,1.51-3.43.53-5.06.29-.88-.13-.13-1.18.31-1.58.62-.56,1.39-1.07.6-1.87-.64-.65-1.1.24-1.68.48-3.19,1.32-5.77,3.35-10.08,1.25a44.07,44.07,0,0,0-12.7-3.82,9.39,9.39,0,0,1-6.86-3.06c-.5-.72-1.3-.83-2.32-.32A4.48,4.48,0,0,1,1342,1099a3.24,3.24,0,0,1-.17-.32,3.62,3.62,0,0,0-3.81-2,4.2,4.2,0,0,1-3.85-2.61c-1.28.91-2.1,2.47-4,2.5-2.27,0-3.84-2.48-6.34-1.64-.37.12-.38-.57-.41-.94-.07-.78-.16-1.55-.19-2.33-.1-3.16-3.16-1.82-4.43-3s-.79-4.15-4-2.67c-1,.45-2.39-.07-4-.18a7.51,7.51,0,0,1,5.41-4,7.9,7.9,0,0,1,1.46,0c-.08-3.21,4.58-2.44,4.62-5.37,0-1.79,2.8-1.84,2.18-3.47-.81-2.1-2.68.68-3.83-.43-.81-.79-1.19-.7-2.33-.24-2,.82-.06-2-1.71-2.19-1.13,1.62-2.47,2.27-4,.06a1.21,1.21,0,0,0-2.18.1c-1,1.58-2.94,2.6-3,4.83a1.69,1.69,0,0,1-1.73,1.65h0c-1.26-.11-.87-1.24-.91-2.08a56.89,56.89,0,0,0-.4-5.83c-.13-.94-.13-2.67-1.45-2.49s-3.45.29-3.74,2.23c-.37,2.45-1,4-4,3.55a2,2,0,0,0-2.24,1.65,1.1,1.1,0,0,0,0,.18c0,1.31,1.13,1.49,2.12,1.6,1.93.23,2.77,1.17,1.73,3.26,1.57-.22,1.95-1.28,2.92-1.59,2-.62,3.84-1.72,5.16,1a2.52,2.52,0,0,0,1.59,1.2c2.78,1,3.31,3.33,1.08,5.46-1,.95-1.85,1.48-.38,2.68.63.51.38,1.28,0,1.87s-.79.16-1.27,0q-3.67-1.1-7.38-2a88.76,88.76,0,0,0-14.65-3.42c-3.47-.26-6.5-3.44-10.25-1.4-.81.44-1.8-.36-2.21-1.1-1.3-2.31-3.46-1.87-5.35-1.59a4.87,4.87,0,0,1-6.05-3.27.29.29,0,0,0,0-.09c-.28-.68-.41-1.77-1.27-1.81-1.07,0-.83,1.13-1.08,1.8-.62,1.61-1.78,1.74-3.09,1.08-1.73-.88-.37-1.69.21-2.42,1.28-1.65.12-2.84-.62-4.21-1-1.85-2.55-1.46-4.08-1.23-2.82.44-2.82.46-3.93-2.35-1,1.81-3.39,2.43-2.91,5,.15.81-.85,1.07-1.41,1.3-.93.4-.91-.63-1.3-1.11-1.36-1.59-.52-4.15-2.78-5.45-1.36-.79-6.93-1.83-8.23-.8-1.48,1.16-.38,2.44,0,3.63-2.1,1.3-4.91-.75-6.66,1.89-.37-.87-.49-1.84-.9-2-3.86-1.33-7.49-3.69-11.76-3.28a5.27,5.27,0,0,1-5.45-4c-.1-.81,0-1.65-.87-2a46.75,46.75,0,0,1-9.3-5.84,1.55,1.55,0,0,0-.56-.19c-1.28-.33-6.49,2.46-6.57,3.76a2.07,2.07,0,0,1-2.08,2.06,2.3,2.3,0,0,1-.45,0c-1.84-.83-3.85-.08-5.67-1.12a5.29,5.29,0,0,0-5.28-.67c-1,.51-2.28-.34-3.24-1a24.49,24.49,0,0,0-7.9-3.06c-2.31-.63-4.88.44-7.18-1.24-1.1-.8-2.4.44-3.58.84-.9.31-2,.14-1.68-.69,1.65-3.94-1.61-5.92-3.12-9.09-1.74,3.21-3.6,2.47-5.86,1a12,12,0,0,0-8.39-1.34,16.74,16.74,0,0,1-8.82-2,11.1,11.1,0,0,0-3.4-.85c-2.36-.11-4.31-.51-5.11-3.25a6.06,6.06,0,0,0-2.37-2.52c-1.3-1-2.62-.76-2.75,1-.15,2-1.71,1.94-2.68,1.67-5.84-1.62-12.14-1-17.72-4.24a10.65,10.65,0,0,0-7.29.53,6.51,6.51,0,0,1-4.49-.42c-5.11-1.51-9.28-5.61-15.25-5-4,.45-8-1.71-12.06-2.09-4.34-.42-8.61-1.67-13-2.13a27.2,27.2,0,0,1-8.27-1c-5.49-2.36-11.47-2.87-17.14-4.53a2.92,2.92,0,0,0-1.7-.18c-4.48,1.28-8.44-1.12-12.65-1.75-1.63-.25-3.29-.28-4.93-.52-2.34-.32-4.91.1-6.69-2.15a1.88,1.88,0,0,0-1.64-.41c-3.71,1.32-6.72-1.41-10.07-1.62-3-.19-6.32-2.62-9.28.37a.74.74,0,0,1-1,0,.81.81,0,0,1-.19-.29c-1.46-3.94-4.11-.63-6.16-1-.84-.15-1.09,1-1.15,1.78s.47,1.19,1.2,1.41c1.2.39,2.37.9,3.59,1.26a1.82,1.82,0,0,1,1.52,2.07,1.86,1.86,0,0,1-.25.68c-.67,1.68-1.45,0-2-.18a6.81,6.81,0,0,0-5.09-.41,13.89,13.89,0,0,1-8.73-1.36,12.93,12.93,0,0,0-5.85-1.37,32.55,32.55,0,0,1-11.22-1.46c-4.68-1.3-9.71-1.31-14.34-2.69-5-1.48-10.41-.54-15.2-3.09a9.91,9.91,0,0,0-4.89-.43,47.68,47.68,0,0,1-15.87-3.19,23.64,23.64,0,0,0-9.64-1c-1.16.15-1.46-.75-2-1.42-1-1.27-2-2.36-3.33-.27-.82,1.24-2,.81-2.67-.17-1.18-1.86-2.23-1.5-3.82-.48-2.5,1.57-4.78-.7-7.2-1-.47,0-1-.49-1.59-.4-5.41.7-10.55-1.16-15.69-2.24-2.09-.44-3.82.29-5.76,0-6.3-1-12.56-2.15-18.83-3.27a52.37,52.37,0,0,0-7.3-.21c-.79,0-1.39.17-1.52,1s.38,1.27,1.14,1.43c1.45.29,2.91.51,4.33.85,1.12.27,2.06.76.39,1.71-.69.38-.78,1.06-1.09,1.66-.57,1.08-2,.94-2.12.3-.61-3.33-3.44-2.16-5.3-2.74-.8-.26-1.65,0-2.09-1.05-.62-1.55.87-.78,1.25-1.21.75-.87,1-2,0-2.53a5.91,5.91,0,0,0-5.87.09c-1.36.91-3.34,3-1.86,4.88,1.22,1.53-.36,1.76-.64,3.15,1.82-1.43,2.94.72,4.69,0,.86-.35,1.52,1.38,1.39,2.12-.18,1-1.15.45-1.93.23a26.55,26.55,0,0,0-4.33-.77c-.67-.07-1.32.17-1.67-.71-.73-1.76-2-.82-2.89-.31-.71.41-1,2.19-2.1,1a2.72,2.72,0,0,1-.16-3.77c2-1.65,2.26-2.46-.44-3.42-.9-.32-.48-1.13.39-1.32a8.51,8.51,0,0,1,1.74-.14c1,0,2.21.69,2.89-.63a1,1,0,0,0-.39-1.33l-.24-.09c-1.29-.11-2.26-2.13-3.92-.43-1.27,1.3-2.76,2.55-5,1.34-.69-.36-2.07.34-3,.77a9.36,9.36,0,0,1-8.43-.91,16,16,0,0,0-5.88-1.16,2.39,2.39,0,0,1-2.23-1.36c-1.31-2.05-3.09-3.28-5.51-1.43a1.73,1.73,0,0,1-1.66.24,3.5,3.5,0,0,0-3.71.23,2,2,0,0,1-3.12-1.52c-.19-.87,0-2.12-1.3-2.39s-1.36,1-1.84,1.81c-.9,1.44-2.08,1.11-3.3.4a9.65,9.65,0,0,0-7.62-.72,7.76,7.76,0,0,1-4.88-.1,12.72,12.72,0,0,0-7.55-1.24,4.33,4.33,0,0,1-4.34-1.06,1.41,1.41,0,0,0-1.91-.13c-2.1,2.1-4.59,1-6.81.68a41.93,41.93,0,0,1-8.74-1.75c-4.2-1.45-8.82-.26-13.17-1.31-6.46-1.55-13.13-.77-19.67-1.72-7-1-14.07-1.23-21.07-2.17a123.57,123.57,0,0,1-13-2c-1.73-.42-3.75.28-5.51-.12a211.63,211.63,0,0,0-24.22-2.6c-5.27-.56-10.54-1.14-15.78-2-1.91-.29-3.58.91-5.5.32-1.32-.4-2.37-.63-2.3-2.39s-1-2.55-2.73-2.74c-2.9-.32-5.78-.81-8.67-1.25-1.54-.24-2.46-1.57-4-2.14a25.28,25.28,0,0,0-10.34-.95c-2,.08-3.67.4-5.07-1.66s-3.81-.56-5.72-1a21.28,21.28,0,0,1-3.71-.78,32.16,32.16,0,0,0-12.5-2.18,7.33,7.33,0,0,1-3.09-.69,6,6,0,0,0-5.55,0c-.25.14-.72.39-.77.34-1.92-2.39-5.3-1.2-7.63-3.22-1.15-1-3.65-3.75-6.07-.53-1,1.3-8.58.74-9.88-.4a4.69,4.69,0,0,0-3.41-.91c-3.89-.08-7.87.92-11.66-1.53-1.27-.82-3.64-3.2-5.79-.54-2.15-2.14-4.92-.61-7.19-1.23a21,21,0,0,0-7.82-.36,28.28,28.28,0,0,1-8-.89,6.76,6.76,0,0,0-3.75-.33c-2.34.83-3.12-.34-3.18-2.42,0-.83,0-1.94-1.16-1.15-2,1.34-3.89.17-5.74.34-4.85.43-9.71-.8-14.55.56a9.53,9.53,0,0,1-8.37-2c-.53-.39-1-1.44-1.59-1.1-3.47,1.93-5.57-1.05-8.06-2.27-1.34-.67-2.07-.64-2.74.6-.81-.74.12-2.63-1.45-2.24s-.75,1.84-.28,2.65c1.19,2.11-.21,3-1.69,2.9-1.69-.18-3.73,2-5.34-.8-.41-.72-3.13,0-4.66.24a9,9,0,0,1-7.72-3,3.58,3.58,0,0,1-5,.81,3.09,3.09,0,0,1-.39-.33c-.86-1-1.5-.37-1.77.37-.58,1.57-1.42,1.55-2.72.86a3.16,3.16,0,0,0-3.38-.21c-4.16,3.3-8.72-1-12.89.82-.63-2.69-3.49-1.22-4.4-2.15-2.1-2.09-3.44-1.7-5,.17s-3,1.15-4.37.1a3.86,3.86,0,0,0-3.23-1.08c-1.9.57-2.95.08-3.37-1.8-1.14.45-1.32,1.39-1.77,2.09-.26.41-.51,1.19-.74,1.18a16.32,16.32,0,0,1-6.92-.26c-.63-.29-1.4-.74-.46-1.45.6-.45,1.66-.54,1.06-1.61-.44-.78-1.26-.14-1.91-.22-.88-.11-1.8-.24-2.14,1-.53,1.83.16,2.81,2.47,2.68-2.89,2-4.83,1.15-6.71-2.57-1.37,2.09-1.37,2.09-2.87,2.73-.42-.65-.12-1.33-.1-2a2.73,2.73,0,0,0-2.3-3.1,1.63,1.63,0,0,0-.31,0c-3-.61-6.19.45-9.15-1-1.58-.74-3.44-.94-1.49-3.19a1.09,1.09,0,0,0,0-1.05c-.29-.38-.68-.15-1,.18s-1.19.9-1.12,1.24c.72,4.64-2.8,3-4.89,3.3-2.66.4-4.75-2.34-7.68-.88a8.84,8.84,0,0,1,3.15-5.12c1-.83,1.71-1.38,3.06-.77a15.08,15.08,0,0,0,7.75-3.15,1.59,1.59,0,0,0,.2-.55c.15-.81-.2-1.11-1-1.45-1.47-.63-1.51-4.32-4.3-2.08-1.23,1-2.18,2.22-3.25,0a.61.61,0,0,0-.46-.3c-4.57.35-9.28-.68-13.67,1.36-.51.24-.91.71-1.42,1-1.36.7-2.41,2.95-4.31.29-.94-1.32-1.88,1.06-3.21.93,1.83.9,3,3.08,5.53,1.34.95-.65,3.77-1.11,4.14.5.31,1.33.58,4.33-2.57,4.48a.34.34,0,0,0-.25.14,24.78,24.78,0,0,0-2.42,7.47c0,1.3,2.74,1.53,4.53.77,1.35-.58,2.81-1.28,3.8.59.34.66,1,1.33.39,2.17a1.69,1.69,0,0,1-1.85.6c-3.76-.85-7.53.51-11.47-.27-2.3-.45-5.4,1.82-8.31,1.44-5.53-.73-11,1.31-16.49.26-2.05,2.42-5.41-.74-7.56,1.81-.7.83-1.74-.61-2.73-.5a111.07,111.07,0,0,0-14,3.5,1.07,1.07,0,0,0-.77,1.14c.16,2.18-1.24,2-2.63,1.76-1.61-.25-1.6-1.66-1.51-2.7.17-1.81,1.47-2,3-1.41.05,0,.16-.1.34-.21-.16-1.91-1.7-2.33-3.59-2.86a3.57,3.57,0,0,0,2.15-4.08c-.46-2,1.5-2.74,2.54-3.92a9.45,9.45,0,0,1,7.51-4.42c3.93,0,7.8-1.63,11.82-2,.82-.06,1.74-.7,2.38.37.9,1.52-1.22,1.15-1.34,2.23a1.77,1.77,0,0,0,2.5-.1,5.57,5.57,0,0,1,5.43-2.46c.76.13,1-.85,1-1.56a6,6,0,0,0-1.77-4.19c-.54-.54-1,0-1.31.62-.13.24-.37.57-.59.58-7,.57-13.79,2.88-20.88,2.88-1.4,0-2.27-1.3-3.76-1.31-.71,0-.76-1.4-.39-2.26a2.69,2.69,0,0,1,2.58-1.65c1.43,0,.87.88.57,1.61-.17.4-.12.81.32,1s1.17-.1,1.18-.54c.08-1.9,1.1-3.75.48-5.66-1.15-3.51,0-5.28,3.7-5.65.48-.05,1,.09,1.47.08,3.8-.14,4.21-1.72,4.24-5.54a70.66,70.66,0,0,0,.72-10.78c-.11-.76.69-1,1.52-.77,3.18,1,4.72,0,5.16-3.26a9.59,9.59,0,0,1,6.58-5.67c.95,0,1.63-.26,1.74-1.15.37-2.83,2.82-2.56,4.65-3.23.47-.17,1.15-.23,1.27.32.91,4,1.8,1.44,2.67,0a2.73,2.73,0,0,1,2.26-1.12,70.35,70.35,0,0,1,17-1.26c4.86.46,9.86-.73,14.8-.69,3.32,0,6.76-1,10,.56.67.32,1.28-.29,1.92-.43a12.73,12.73,0,0,1,7.77-.2c3,1.18,6-.09,9,.12a10.81,10.81,0,0,0,8-1.34c1.77-1.22,5.54-.73,8.37-1,1.19-.09,2.09,1.52,4.51.43a21.94,21.94,0,0,1,11.8-.77c.86.13,1.82-.11,2.33.83.93,1.71,2.54,1.65,4.11,1.58,4.27-.22,8.53-.5,12.8-.75a17,17,0,0,1,1.75,0c2.48.09,4.68,1.73,7.58.24a14.83,14.83,0,0,1,6.17.65,5.18,5.18,0,0,0,3.27-.33c2.75-1.06,4.57,0,4.94,2.83a1.92,1.92,0,0,0,1.76,2,40.51,40.51,0,0,0,10,1.13c5.33-.66,10.67,0,16-.69.59-.09,1.18-.08,1.57-.6,1-1.36,2.17-1.22,3.6-.52a6.29,6.29,0,0,0,6.41-.75c.88-.59,1.67-1.62.84-2.76s-1.5,0-2.18.43a3.46,3.46,0,0,1-3.74.49,4.58,4.58,0,0,0-3.71.31,4,4,0,0,1-3.15.11c-3.31-1.56-6.61-.52-9.93-.21-.61.06-1.47.64-1.79-.23s.5-1.33,1.21-1.75a3.31,3.31,0,0,1,2.44-.38,1.66,1.66,0,0,0,2-1.32,1.14,1.14,0,0,0,0-.37c0-1.31-1.09-1-2-.93a3.55,3.55,0,0,1-1.45-.09c-1.18-.37-2.82-.72-2.41-2.29.33-1.28,1.78-1.3,3-.83.45.17,1.21.52,1.32.39,2.13-2.6,5.79-1.79,8.22-3.7.4-.32.87-.51.72-1.08-.2-.75-.81-.81-1.41-.55s-1,.6-1.65.44-1.19-.38-1.1-1.12a4.68,4.68,0,0,1,.53-1.29c2.42,1.9,3.47-2.62,5.78-1.23,5.06-3.3,10.82-.68,16.13-1.89a7.07,7.07,0,0,0,1.43-.27c1.14-.53,3.33-.14,3.12-1.91-.19-1.54-2-1-3.26-.9-1.84.08-2.67-1.33-3.54-2.59-.29-.42-.43-1-1-.53-.21.16-.2.69-.18,1s1.48.89.13,1.5c-1.08.48-2.73.44-2.93-.45-.95-4.38-4.92-3.28-7.55-4.14-3.18-1.07-6.72-.19-10.11-1.72-1.75-.79-4.51.88-7,.59-1.47-.17-3,0-3.77-1.65-.17-.37-.91-.85-1.15-.74-2,.89-4.5-.15-6.07.7-2.14,1.18-2.76.35-3.57-1.11-.33-.6-.82-1.1-1.35-.74-1.6,1.08-3.68.25-5,.94-2.77,1.45-5.71.9-8.52,1.53s-5.82-1.55-8.91-.58c-.37.11-1.08-.46-1.11-1.16a1,1,0,0,1,.73-1.12c1.2-.24,2.19-.78,1.75-2.13a2.71,2.71,0,0,0-3-1.9,89.92,89.92,0,0,1-15.48,0c-4.68,0-9.21,1.2-13.84,1-1.2-.06-3.08.76-3-1.84,0-1-.86-1-1.65-.38-.94.82-1.59,2.85-3.27.65-.44-.57-1.6-.1-2.11.5a10.68,10.68,0,0,1-10,3.19,10.63,10.63,0,0,0-4.83.75c-3.58,1.38-3.78,1.7-1.8,4.66.24.36.5.69.9.46,3.4-2,7.2-.33,10.73-1.2a57.28,57.28,0,0,1,10.22-2,8.89,8.89,0,0,0,1.45-.21,1.69,1.69,0,0,1,2.16,1,1.29,1.29,0,0,1,.08.28c.28,1.18-.7,1.39-1.54,1.73-6,2.45-12.41,1.65-18.68,2A72.77,72.77,0,0,0,297.45,859c-.73.23-1.73.11-1.72,1.2,0,.88,1,.72,1.57,1.1a2.09,2.09,0,0,0,.78.41c.95.21,2.55-.45,2.54,1.16s-1.79,1.73-2.93,1.84c-6.18.54-12.39,1.26-18.58,1.22-3.66,0-7.1,1.27-10.75,1-4.88-.35-9.62,1.16-14.48,1.38a3.78,3.78,0,0,0-3.51,3.38c-.13.7.19,1.58-1,1.72a2.09,2.09,0,0,1-2.2-.8c-2.64-3-2.39-2.59,1.17-4.57,3.06-1.71,6.53-1.43,9.49-3.1,1.74-1,3.84.12,5.76-.27,1-.22,2.5-.12,2.58-1.43.11-1.66-1.52-1.59-2.62-1.64a5.37,5.37,0,0,0-4.17.86,1.31,1.31,0,0,1-1.88.11c-1.09-1.38-1.63-.5-2.45.29a1.56,1.56,0,0,1-2.2.17,1.53,1.53,0,0,1-.34-.42,1.6,1.6,0,0,1,.34-2.24,1.81,1.81,0,0,1,.65-.29,27.57,27.57,0,0,1,14.12-2.45,7.33,7.33,0,0,0,1.75.12,1.71,1.71,0,0,0,1.56-1.16c.26-1-.69-1.06-1.2-1.42-1.52-1.09-3.19-.49-4.84-.43-3.65.12-5,.32-5.09-3.93a2.91,2.91,0,0,0-1.64-2.82c-1.4-.76-1.51-1.43-.05-2.54a20.16,20.16,0,0,0,5.84-7.3,9.25,9.25,0,0,1,8.08-5.45c3.58-.1,7-1.19,10.57-1.59,8.46-1,16.9-2.84,25.48-1.54,7,1.07,14-.05,20.95.19a51.74,51.74,0,0,0,11.71-.94c.78-.16,1.73-.07,2.17-.71,1.58-2.31,2.42-1.58,2.94.8,1.32-.67,1.09-2.77,3-2.44a6.37,6.37,0,0,0,6.78-3.11c-.33-.86-1-.61-1.71-.53-1.43.17-2.46,0-1.24-1.74a1.13,1.13,0,0,0-.2-1.6h0c-2.81-1.64-5.28-4.34-9.11-2.89a3.58,3.58,0,0,1-3.94-.21c3.55-.66,6.1-3.55,9.74-1.33a6.37,6.37,0,0,0,4,.35c3.2-.26,6.62-1.45,9.49,1.16a.65.65,0,0,0,.9.13l.11-.11c2.73-2.82,5.78-1.28,8.71-.53.84.21,1.64.78,2.52.57a7.46,7.46,0,0,1,5.49.37c1.81.92,3.67-.52,5.7-.23,1.48.21,3.09-.81,4.4.85.27.35.91.08,1.27-.38a3.87,3.87,0,0,1,5.38-1l.07.05c1.43.75,2.48.32,3.49-1,1.72-2.28,3.17-2.25,5.15-.23.95,1,9.18,2.64,10.24,1.81,2-1.64,5-.68,6.88-2.87.94-1.09,1.25.5,1.61,1.19.71,1.37,1.19,3.16,3,.71.58-.8,1.82-1.2,2.33-2.09,1.43.73-.28,1.85,1,2.54,1.86-1.82,3.75-2.88,6.38-.7a4,4,0,0,0,4.38-.12,9.3,9.3,0,0,1,7.42-.32,52.55,52.55,0,0,0,8.59.67c1.35.08,2.9.05,2.73-1.72-.14-1.44-1.71-1.61-3-1.73-.24,0-.49.34-.77.39a2.69,2.69,0,0,1-2.71-.66.75.75,0,0,1,0-1.05,2.55,2.55,0,0,1,2.66-.8c2.22.4,4.76.29,5.32,3.35a.62.62,0,0,0,.72.49.54.54,0,0,0,.21-.08c.3-.17.75-.66.68-.81-1.39-3,1.09-3.07,2.83-3.63.63-.19,1.14-.4,1-1.15a1,1,0,0,0-1.14-.7,5.19,5.19,0,0,1-2.56-.26c-1.37-.54-1.88-1.25-1-2.58a64.84,64.84,0,0,1-16.13,1.61,1.18,1.18,0,0,1-.58-.14c-4-3.43-8.9-1.66-13.39-2.21a.83.83,0,0,0-.27.07c-1.24-4.43-5,1.22-6.66-1.65a1.16,1.16,0,0,0-.74.21c-3.11,2.7-5.92,2.26-8.59-1.35-.16-.2-.52-.25-.78-.38l-.4-.58c3.66-1.66,5.92-.77,7.25,3.08,1.08-1.89,1.72-4.2,4.56-3.5.64.16,1-.61,1-1.23a1.59,1.59,0,0,0-1.41-1.63,4.76,4.76,0,0,0-1.66.37c-1,.23-2,0-1.95-1.09a1.37,1.37,0,0,1,1.48-1.24,1.17,1.17,0,0,1,.26,0c2,.87,3.64.72,4.07-1.5s-1.15-3.33-3.26-3.66c-.17,0-.3-.23-.47-.36.33-.74,1.19-.56,1.7-1,.73-.6,2.27.06,2.41-1.25s-1.29-.86-2-1.3c-.23-.15-.64-.37-.63-.54.17-2.93-2.07-3.12-3.92-3s-3.42-2-5.26-.35c-.14.11-.44.25-.52.18-3.66-2.78-8.22,1-12-1.7-1.18-.86-3.06,0-4.51-.87-.51-.31-1.05.09-1.48.61-2.94,3.52-6,3.19-8.34-.88-1.3.43-.25,2.82-2.15,2.65s-.35-2-1.26-2.9c-1.82.91-2,4-4.67,3.69-1.13-.13-1.38-1.26-2.17-2l3.27-1.11c-1.14-1.22-2.09-1.47-3.14-.44-.47.46-1,.81-1.49.33s.08-1,.28-1.53c1.69-4,3.06-4.87,7.85-3.56a19.19,19.19,0,0,0,7.12.38c1-.09,2-.44,2.41.91.23.74.71.81,1.36.47,1.66-.85,2.55,0,3.25,1.77a2.1,2.1,0,0,1,1.64-2.47,2.51,2.51,0,0,1,.61,0,99.24,99.24,0,0,1,16.52-1c4,.35,8.13-.23,12,1.52a1.14,1.14,0,0,0,1.53-.49,3.18,3.18,0,0,1,4.11-1.29c3.31,1.18,6.71-.44,10.19.94,3.77,1.48,8-.48,12-.39,3.26.08,1.42-2.27,1.06-3.69a127.44,127.44,0,0,1,15.55-2.13c4.66.05,9-2.7,13.64-1.15a1.43,1.43,0,0,0,2-1.1c.12-1.14-.94-1.2-1.67-1.18-9.28.21-18.4-2.35-27.72-1.62a13.64,13.64,0,0,1-6.61-1.16c-.35-.16-.81-.53-1.05-.42-4.07,1.83-8.31.81-12.4.42-2.88-.26-6,1-8.69-1a1.41,1.41,0,0,0-1.88.15c-1.66,1.37-3-.25-4.23-.73s.43-2.44-1-3.25c.74-.85,1.69-1.13,2.48-.33s1.34,1.27,2.51.07c.74-.75,1.66.17,1.3,1.46a.83.83,0,0,0,.86,1.18c.45,0,.9-.41.77-.71-.76-1.81,1-2,1.69-2.94,1.49-2,4.34-1.58,5.81-3.56.18-.23,1.4-.54,1.74.36.68,1.69,1.66.81,2.59.36.17-.08.27-.28.43-.39,2.5-1.61,2.53,1.88,4.07,2,1.33.09,1.84-3.85,3.93-.86.61.87,1.17.5,2,.12a7.27,7.27,0,0,1,8.32,1.16,3.57,3.57,0,0,0,3.84.36c2.07-1.33,4-.38,5.88-.17,2,.24,3.78.8,5.32-1,.12-.14.44-.29.51-.21,2.37,1.74,4.9.51,7.37.54.63,0,1,.09,1.47-.38s.78-1,.47-1.58c-.48-.88-.92-.2-1.36.15-.11.09-.46.1-.48,0-2-4.21-5.67-1.82-8.64-2.15-.68-.07-1.56.08-2-.28-2.41-2-5.53-1.72-8.18-2.84a6.44,6.44,0,0,0-5.51-.8c-.69.31-1.89.44-2-.9s.81-1.32,1.76-1.25c9.08.67,18.2-.07,27.26,1.16,2.58.35,5.21.26,7.82.37.3,0,.71-.08.86.08,2.74,2.66,5.7.18,8.53.3a42.22,42.22,0,0,1,5.6.94c6.32,1.15,12.33-.93,18.49-.85.3,0,.65-.14.87,0,4.25,2.29,8.94-.92,13.12,1,1.81.84,2.7-.66,4-.76,2.55-.18,1-1.8,1.28-2.85s2.38-.73,3.27-1.87c.44-.58,1.62,0,1.9-.87-2.88-3.79-8.45-1.29-11.37-5.24,3.64.52,7.09-1.58,10.76-.29,2.35.83,4.34-.18,4.61-2.49s1.58-2,2.68-1.09a3.72,3.72,0,0,0,4.72.5,9.24,9.24,0,0,1,5.74-.16c.83.15,1.38,1.08,1,1.48-1.38,1.59-1.26,4.77-4.08,4.71-1.75,0-1.85,2.94-3.86,1.65-.61-.8,1.43-2.78-.18-2.34a16.8,16.8,0,0,1-5.57-.2,2.06,2.06,0,0,0-2.25,1.84c-.22,1-.89,2.13.06,3s1.76,0,2.64-.37c1.71-.68,3.47-1.26,5.21-1.88-.57,3.41-.57,3.41,4.53,5.85a5.84,5.84,0,0,1-3.78-.22c-2.52-.69-5.09,0-7.65-.55-1.56-.34-2.58,1.45-3.62,2.53-.37.39-.22,1.47.39,1.47,1.57,0,2.12,2.78,4.3,1.26s4.44.39,6.73.43a82.16,82.16,0,0,0,16.22.05c3-.53,5.84.57,8.75,0,1.32-.24,2.86-.23,2.73-2.3-.08-1.46,1-1.12,1.88-1a11.66,11.66,0,0,0,5.78,0c1.57-.58,2,1.12,2.7,2.12s1.13,3.49,2.87.77c.27-.43.69-.5.92-.1,1.5,2.53,3.06,1,4.32-.08,2.92-2.42,6.21-1,9.32-1.11a8.82,8.82,0,0,0,5.46-1.16c2.35-1.69,4.9.16,6.81,1.3a3.24,3.24,0,0,0,3.86,0,9.83,9.83,0,0,1,5.58-1.08c2.18.25,4,.59,5-1.92.31-.76,1.14-.66,1.83-.58,1.59.18,3.33,1.74,4.66-.56.19-.32.68.06,1,.33,3,2.69,3,2.69,5.76-.28.37,1.52.49,3.28,2.77,2.63.74-.22,1.18.53,1.17,1.33a1.81,1.81,0,0,0,1.16,1.88c1.74.68,1.52,4.19,4.17,3.23a17.5,17.5,0,0,0,4.41-3.13c3.46-2.73,3.45-2.75,8.51-.93-.6,1.84-2.62,2-4.26,3.53a19.27,19.27,0,0,0,5.55-1.25c4.53-1.6,9.38-3.3,14.21-.79.83.42,1.26,1.2,2.13.15a1.47,1.47,0,0,1,1.32-.33c3.72,1.49,7.82-.6,11.48,1.26a.73.73,0,0,0,.58.06c3.6-1.8,7.21.23,10.82.21a74.93,74.93,0,0,0,8.61-.13,2.79,2.79,0,0,1,2.42.87,2.25,2.25,0,0,0,2.93.51,2.84,2.84,0,0,1,2.54.13,4.16,4.16,0,0,0,1.63.59c1.47,0,3.43-.29,3.57-1.81.16-1.69-1.5-2.18-3.19-1.94-4,.57-7.73-1.89-11.8-1.39-1.54.19-3.13,0-4.67.12-1.22.14-2.11.5-2.73-1.17s-1.94-.27-2.94-.06-2,1.21-2.56,0,1-1.17,1.45-1.77c2.87-3.62,6-3.55,9.56-1.06a.8.8,0,0,0,.79-.07.82.82,0,0,0,0-1.16.91.91,0,0,0-.16-.11c-1.13-.74-1.59-1.22-.18-2.31s2.53-.57,3.77,0c.29.13.19.38.09.68-.58,1.86-.56,1.87.5,4.1.42-2.58,1.39-3.16,3.65-1.93,2.48,1.34,3.21-1.77,5-2.69,1.14,1-.28,2.52.62,3.48.28-.07.58-.06.62-.16,1.55-3.66,2.9-4.13,6.69-2.15a2,2,0,0,0,1.67.11c1.72-.51,2.59.38,3.93,1.45,1.81,1.44,2,2.15,1.15,4.25-.49,1.26.69,3.27,1.37,4.84a1.64,1.64,0,0,0,2.18.81l.1,0c1.56-.81.16-1.83,0-3a11.74,11.74,0,0,0,5.67.47c1.38-.26,2.39.42,1.79,2.05-.53,1.46-1.26,3.16,1,3.4,1.87.2,4-.24,4.57-2.65.1-.43-.11-1,.39-1.43,1.09.36,1.85,1.29,3,1.59s2.06,1.13,3.07-.26c.26-.37,1.06-.37,1.62-.49s1.49-.3,1.7.6-.66.89-1.16,1a3,3,0,0,0-2.65,3.39,2.62,2.62,0,0,0,.19.73c2.55-2.28,5-3.52,8.14-1.07,1.32,1,3.46,1.27,4-1.48.4-2,2.13-1.84,3.51-1.62,1.6.25,2,1.52,2,3.09,0,1.14-1.33,2.94.27,3.3a4.16,4.16,0,0,0,4.55-1.27c1-1.29,1.77-2,.4-3.32-.4-.39-1-.83-.52-1.44a1.16,1.16,0,0,1,1.62,0c1.23,1.58,2.49.68,3.92.42,2.33-.41,4.61.73,7.08.47,1.23-.12.42,1.63.1,2.62-1,3.2,2.75,1.11,3.32,2.89.16.51,1.86.53,2.23-.85s0-2.36-1.49-2.63-2.23-.93-1.68-2.4a47.33,47.33,0,0,1,2.26-5.4c.52-1,1.66-.91,2.58-.57s1.16,1.24.85,2.19c-.45,1.36-2.13,2.86,0,4,1.19.64,1.52,2.77,3.52,2a1.1,1.1,0,0,1,1.21.65c1.26,2.33,3.09,1.71,4.77.76a5.15,5.15,0,0,1,4.67-.38c3.83,1.35,4.58.84,6.35-2.86.69-1.44,3.14-1.61,2.81-3.89,0-.26.92-.36,1.3,0s1.5.52.71,1.47c-.43.53-.59,1.4.2,1.17,2.4-.66,2.9,2.16,4.85,2-.57,1.66-1.75-.08-2.32.81,0,2.51,1.37,2.9,3.74,3.67,3.87,1.22,8,.6,11.69,2.3a2.43,2.43,0,0,0,2,.12c3.09-2.18,7-1,10.3-2.76,1.91-1,3.95.9,6,1.12,4.64.5,8.83,5.29,13.57,2.51,3.63-2.13,7.31-1.41,10.92-2.18.66-.14,1.06,0,1,.52-.23,2.29,3.4,3.08,2.17,5.55-.3.61-1.31.82-.53,1.74.87-1.19,2.52.55,3.22-.73a6.64,6.64,0,0,1,8.18-3.79c.88.21,2-.44,2.88-.3,1.93.31,4.5-.19,4.19,3.29-.14,1.63,1.53,1.72,2.8,2,1.45.3,2.23-.15,2.5-1.66.11-.67.1-1.89,1.26-1.48s.85,1.32.26,2.15a5.57,5.57,0,0,0-.84,1.53,2,2,0,0,0,0,1.39c.29.53.83.27,1.3.06a4.58,4.58,0,0,1,6.38,1.2,4.19,4.19,0,0,1,.52,1c1.22-.45.87-1.56,1.29-2.28s1.44-1.48,1.82-.88c1.29,1.93,1.91.83,3.24,0,2.59-1.68,2.72-1.47,3.5,2.07,1.88-1.78,3.78-3.66,5.84-.34a1.51,1.51,0,0,0,1.35.24c3.38-1.32,5.83,1.2,8.61,2.17,1,.34,1.53.91,2.79.53a7,7,0,0,1,7.28,2.86,2.19,2.19,0,0,1,.09,2.7,9.3,9.3,0,0,1-8,2.09,11.66,11.66,0,0,0-7.28-1c-1.12.32-2.08-.53-3.1-.61s-2.56-2.75-3.22.44c-.11.49-.83.06-1.2-.26a2,2,0,0,0-2.88-.24,2.1,2.1,0,0,0-.57.78c-.71,1.54,1.08,3,2,3.26,1.93.51,4,2,6.15.47.45-.31,1.42-.65,1.6.46.1.62.92,1.33-.44,1.82-2.15.79-.84,2.18-.28,3.31.84,1.69,2,.9,2.86.11,1.63-1.52,2.59-1.46,3.93.54S977,797.48,979,798a87.08,87.08,0,0,0,10,1.23c1.07.13,1.23-.77,1.74-1.31,1.42-1.52,2.22-3.76,5-3.64,1,0,.92-1,.19-1.67-2-1.91-1.51-4.48-1.68-6.83-.08-1.26.9-1.69,1.71-1.17a3.88,3.88,0,0,0,5.43-.7l.18-.25c.46-.52,1.32-.51,1.49,0,1.28,3.62,3.9,1.68,6,1.46.67-.07.95-.28,1.24.55.82,2.53,2.8,1.41,3.49.41,2-2.91,3-.14,3.72.69,1.5,1.77,1,4.43,2.36,6.47.62,1-.78,1.15-1.41,1.36a2.16,2.16,0,0,0-1.66,2.14c-.05,1.1.7,1.54,1.55,1.89a8.33,8.33,0,0,1,4,4.21c.64,1.17,1.57,2.62,3.18,2s3.35-.12,5-2.18a29,29,0,0,0,3.66-6.61,2.07,2.07,0,0,1,2.9-.41,1.78,1.78,0,0,1,.51.55,1.58,1.58,0,0,0,2,.9,1.71,1.71,0,0,0,.4-.22c2-1.65,3.7-.28,5.11.54a4.11,4.11,0,0,0,4.68.05,2.52,2.52,0,0,1,3.23.45c.74.89-.57,1.49-1,2.17-2.36,3.86-2.46,6.67-.17,8.48a7.71,7.71,0,0,0,5.6.85,43.62,43.62,0,0,1,13.89,2.64c3.06.78,6.27,1.21,9.41,1.74a91.35,91.35,0,0,1,11.49,2.09,27.77,27.77,0,0,0,9.74.66c1.75-.13,2.71-2.35,3.38-4.23.54-1.52.39-4.23,3.52-2.89.93.4.92-.77,1.14-1.34a1.23,1.23,0,0,1,1.5-.91l.12,0c.77.23.49,1,.4,1.49a3.49,3.49,0,0,0,2.25,4.41l.1,0c.59.23,1.06.6.93,1.28-.09.52-.61.68-1.06.9-1.1.52-3.24,0-2.9,2.08.31,1.92,2.62,2.18,3.76,2.13,7.7-.35,15,2.15,22.34,3.59s14.7,1.19,21.92,3.06c4.24,1.09,9,.91,13.29,2.09,8.2,2.25,16.74,2.25,24.93,4.35,5.66,1.46,11.47,2.11,17.18,3.32a25.3,25.3,0,0,0,11.38,1.3,13.29,13.29,0,0,1,6.75,1.19,139.71,139.71,0,0,0,15.18,2.93c4.29,1,8.54,2.16,12.85,3.06,2,.41,4.23-1.5,5.87.39a7.36,7.36,0,0,0,7,1.77,46.7,46.7,0,0,1,11.11,2c1,.17,2.48.23,2,1.8-.37,1.17-1.15,2.33-2.81,2s-3.11-.47-4.64-.82a38.89,38.89,0,0,0-11.51-1.44,8.15,8.15,0,0,1-4.77-1.94,4.82,4.82,0,0,0-6.16-.18c-.15.11-.27.29-.44.37-3.39,1.48-3.46,1.68-2.19,5.13.19.5.39,1,.89,1.06,4.11.91,8.52,3.28,12.27.06,2.48-2.12,3.2.61,4.75.8,2.09.26-1.34,1.72.3,2.41a7.65,7.65,0,0,1,9.65,1.53,3.8,3.8,0,0,0,2.35,1.06,12.85,12.85,0,0,0,9.09-.62,1.65,1.65,0,0,1,2.31.38,1.69,1.69,0,0,1,.17.29c1.64,2.31,3.65,3.63,6.48,2,1.58-.92,1.17,1.19,2.07,1.25,1.55-2.71,2.17-2.69,5.13-1a43.22,43.22,0,0,0,17.12,4.5c.91.11,1.43-.55,1.78-1.28a1.8,1.8,0,0,0-.58-2.38c-2.33-1.46-4.62-3.52-7.68-2-.85.43-1.3,0-1.84-.35s-1.34-.88-1.89-.48c-1.89,1.39-3.32.35-5.06-.39a7.25,7.25,0,0,1-4-3c-.75-1.25-1.93-3.27-4.52-2.23-.62.25-3,.87-3.64-1.35,0-.19-2.39.62-2.6-2.09-.2,4-1.43,3.59-3.35,1.94-1.12-1-3.11-.27-4.42-1.93a23.49,23.49,0,0,1,17.23.85,4.69,4.69,0,0,0,4.27.11,11.75,11.75,0,0,1,8.61.88c2.92,1.67,6.12.51,8.82,1.93,5.09,2.68,10.82,2.8,16.21,4.29.65.18,1.25.65,1.93.28,1.82-1,2.06.57,2.25,1.56.31,1.64-1.44,1.74-2.1,1.51-1.7-.6-3.51-.32-5.08-1a27.41,27.41,0,0,0-5.14-1.2c-1-.2-2.31-.77-2.86.58s1.31,1.39,1.77,2.28a1.71,1.71,0,0,1-2.37.31,1.52,1.52,0,0,0-2.4.81c-.49,1.07.24,1.65,1.15,2a31.43,31.43,0,0,0,12.86,2.19c.58,0,1.36-.43,1.69-.19,2.65,2,6,1.48,8.93,2.92a15.94,15.94,0,0,0,11.16,1.33,6,6,0,0,1,5,.84,17.06,17.06,0,0,0,6.65,1.61c5.05.74,9.81,2.81,14.92,3.24,6.4.53,12.46,3,18.74,3.68a27.42,27.42,0,0,1,10.17,2.62,5.16,5.16,0,0,0,5.43,0c1.34-.65,2.53.74,3.89,1,3.56.57,7.29.17,10.69,1,5,1.2,10.07,1.65,14.89,3.23a47.9,47.9,0,0,0,5.46.68,85.12,85.12,0,0,0,15,2.72,8,8,0,0,1,5.86,2.3,2.31,2.31,0,0,0,1.56.71c5.09-.17,9.79,2.45,15,1.89a17.24,17.24,0,0,1,5.84,1.24c1.59.42,2.78,2.57,4.94.79.48-.39,2.3.58,2.74,1.76s1,1.58,1.93,1c2-1.25,3.74.36,5.61.13.82-.1,1.27.6,1.55,1.16.61,1.19-.71.75-1.09,1.09a2,2,0,0,0-.71,2.1,12.59,12.59,0,0,1-.45,4.36c-.17,1.14-.78,1.84-2,1.56s-2.76,1-3.17-1c-.28-1.34-.69-1.06-1.77-.83-1.67.34-3.59,1-4.69-1.54-.51-1.18-2.35-1.21-3.62-.94a13.52,13.52,0,0,1-7.74-.92,3.15,3.15,0,0,0-2-.35c-4.66,1.25-8.54-1.45-12.53-2.85a33.26,33.26,0,0,0-10-2,39,39,0,0,1-11.34-2.36,7.24,7.24,0,0,0-5.12-.33c-1.53.57-3.07-.46-4.55-.73-3.36-.62-6.47-2.69-10.1-1.91a3.85,3.85,0,0,1-4.76-1.9,1.76,1.76,0,0,0-2.31-.89,1.7,1.7,0,0,0-.46.29,1.75,1.75,0,0,1-1.92.18c-2.87-1.43-6.34-.52-9.12-2.32-2.08-1.33-4.48.16-6.48-.62-3.65-1.44-7.46-.64-11.14-1.28-.29-.05-.67-.19-.87-.06-2,1.26-3.63,2.53-5.89-.25-1.09-1.35-4.2,1.55-3.64,3.67.21.76.82,1.44-.18,2s-1.06-.64-1.44-.76a2.88,2.88,0,0,1-2.45-2.56c-.27-1.2-2.22.1-3,.45-2.46,1.07-4.22,1.48-5-1.81a1.53,1.53,0,0,0-1.52-1.2,1.12,1.12,0,0,0-1.14,1.09v0c-.51,3.38-3.35,3-5.32,2.63-2.25-.4-2.11.59-1.56,1.75.83,1.73,1.38,3.65,4.1,3.89a6.89,6.89,0,0,1,5.15,2.56c2.45-1.55,4.42.83,6.69.84.87,0,1.75,0,2.21,1,.13.27.71.63.94.54,4.21-1.53,8.19.83,12.13.7,3.25-.1,5.47,1.62,8.23,2a47.86,47.86,0,0,0,8.55.29,7.59,7.59,0,0,1,2.85,0,79.41,79.41,0,0,0,18.77,2.81c1.74.16,3.38,1.58,6,2-1.46.87-1.92,1.94-3.16.88-1.07-.91-1.87-.06-2.4.76a1.56,1.56,0,0,0,.62,2.26,12.25,12.25,0,0,0,4.6,2.77c4.12.85,8,2.36,12.31,2.94,5.35.72,10.66,2.31,16,3.08a86.31,86.31,0,0,1,14.26,2.65c7,2.31,14.85,1.28,21.38,5.33a1.55,1.55,0,0,0,1.13.2c5-1.42,8.11,2.35,11.78,4.45.55.32.94,1,1.7.91,5.67-.89,11,1.12,16.48,1.84a37.16,37.16,0,0,1,14.31,4c1.05.61,2.11.07,3.17.26a148,148,0,0,1,17,4.2,17,17,0,0,0,11.66.86c1.2-.49,2.13-.77,3.08.88,1.38,2.41,7.55,3.89,10.74,3a5.63,5.63,0,0,1,6.37,1.07,6,6,0,0,0,5.21,2.19c1.41-.25,1.67,1.66,2.75,2.37,1.26.82,1.77,1.27,2.57-.42.42-.88,1.2-2.36,2.68-1.56,1.79,1,.46,2.21-.07,3.44,1.23-.55,2.56-.88,3.07-2.07.34-.81.72-1.33,1.39-.84,1.19.86,2,0,3-.3.67-.18,1.4-.48,1.87.22s.11,1.28-.59,1.65c-.85.45-1.55,1.09-1,2.09a1.69,1.69,0,0,0,2.21.9,1.64,1.64,0,0,0,.29-.16c1.33-.74,3.49,1.69,4.42-1.89-1.14,3.72,1.36,2.81,2.63,3.46,1.48.76,2.13,2.87,4.22,2.81l.41.58c0,.1,0,.24-.09.29a8.57,8.57,0,0,1-7.25-1.68c-1.16-2.36-2.32-2-4.34-1.07a16.25,16.25,0,0,0-4.64,3.27c-.76.71-1.47-1-1.84-1.79-.76-1.56-1.38-2.74-3-.85-.43.49-.71.47-1-.16-.66-1.28-1.05-.46-1.6.18a4.37,4.37,0,0,1-1.82,1.42c-1.85.55-2.79,1.7-2,3.45a3.56,3.56,0,0,0,4.55,2.16c2.86-1.69,4.57-.44,6.49,1.22,1.25,1.09,2.36,0,3.55-.2.52-.08,1.19-.39,1.63.24s-.42.93-.62,1.4a4.29,4.29,0,0,1-5.34,2.88,3.52,3.52,0,0,1-.42-.15c-4.74-1.13-9.68-1.48-14.39-2.7-3.81-1-7.71-1-11.5-1.91-2.07-.48-4.05,1-6.28.29-.93-.29-.92,1.79-2.38,2.33a11.6,11.6,0,0,1-7.4.5,17.78,17.78,0,0,0-2.61-.44c-1.09-.11-2.39-.21-2.6,1.18-.17,1.17,1,1.59,1.94,1.81a19.17,19.17,0,0,1,8.77,3.41,2.14,2.14,0,0,0,2.17.59c3.41-1.28,6.57,1.28,10,.65,1.35-.25,2.84,1.4,3.19,3,.4,1.87,1.45,2,2.75,1.32s2.35-1.11,2.86.8a1.08,1.08,0,0,0,1.21.91l.1,0c1.34-.24,1.19.45.92,1.35s.21,2.11-1.09,2a6.29,6.29,0,0,1-4-1.6c-.55-.56-.27-2.6-1.56-1.61s-4.38,1-3.74,3.72c.69,2.91-.75,2.39-2.19,1.57s-4,0-4.72-2.35c-2.33,1.73-3.95-1.69-6.83-.74a17.63,17.63,0,0,1-8.63-1,9.34,9.34,0,0,1-5.89-3.39c-1-1.37-10.26-1-11.72,0-1.16.8-.5,1.51,0,2.2,1.09,1.45,3.2,1.9,3.82,3.86a.84.84,0,0,0,.79.26c3.18-1.58,4.93,2.13,7.69,2.07a1.2,1.2,0,0,1,.91.57c.71,1.53.89,1.57,2,.23,1.71-2.1,3.36-1.4,5.77-.74a34.37,34.37,0,0,0,7.81,2.5c.68,0,1.52-.23,1.65.69s-.64,1.12-1.36,1.23-1.63.4-1.48,1.42a1.49,1.49,0,0,0,1.73,1.18l.07,0c2-.28,3.73,1,5.73.62a2.21,2.21,0,0,1,2.45,1.95v.09c.54,2.5,2.11,3.53,3.91,2a7,7,0,0,1,6.1-1c1.77.38,4.92-.65,5.7,2.54.09.39.71.33.93-.06.4-.67.7-1.64,1.68-1.18a19.53,19.53,0,0,0,5.14,1.81c.17,0,.38.67.35,1-.08.72-2,1.54,0,2.09,1.33.37,2.87,1.15,4.06-.43.23-.3.48-.6.81-1,.76.56.4,2,1.63,2.09,3.11.16,5.16,3,8,3.39a16.16,16.16,0,0,1,6.64,1.37c.93.54,1.83,1,1.53,2s-1.38.44-2.08.27a36.19,36.19,0,0,0-5.76-2c-1-.07-1.48,0-1.75.89-.48,1.6-2.36,3-1.27,4.77a2.88,2.88,0,0,0,3.06,1.82,3.12,3.12,0,0,1,3.8,2.23,3.21,3.21,0,0,1,.09,1.07c0,2.32-.06,4.12,2.91,1.55,1-.84,3.13.41,4.73.86,2,.57,3.08,3.14,5.31,2.85,3.63-.47,7.58,1,10.86-1.43,2.21-1.67,3.26.17,3.55,1.44a4.07,4.07,0,0,0,4.37,3.15,29.65,29.65,0,0,1,9.36,1.79,7.5,7.5,0,0,0,5.45.37,1.27,1.27,0,0,1,1.4.07c3.31,2.77,8,2.19,11.4,4.76.15.11.42.34.46.3,4.63-3.55,6.38,1.92,9.42,3.17,1.47.6,1.94.51,2.29-.75.68-2.4,2.94-2.77,4.7-3.57,1.45-.66,2,.59,2,2,0,5.44,1.89,8,7.28,8.61a65.45,65.45,0,0,0,6.7.64,6,6,0,0,0,3.34-.68,3.16,3.16,0,0,1,4.33,1,3.34,3.34,0,0,1,.39,1c.35,1.11.74,2.06,2,2.32a2.42,2.42,0,0,1,2.12,2.67c0,1.25.61,1.76,1.83.53a6,6,0,0,1,8.26,1.62c.58,1.42,1.11,2.68,2.94,2.74a1.27,1.27,0,0,1,1.27,1.27v.07c0,.81.45,1.34,1.33,1.09,2.11-.6,4,1.6,6.11.51,1,2.71,3.78,1.27,5.47,1.78,3.06.94,4.84,4.14,8.26,4,1.15,0,2.48.57,3-1,.4-1.33.22-2.56-1.36-3.08-.82-.28-1.61-.71-1-1.65s1.4-.4,2,.19a4.28,4.28,0,0,0,2.37,1.06c.91.19,1.9.64,2,1.5.13,1.2-1.15.64-1.78.94-1.69.82-1.6,2.92.08,4.26s4.45,1.26,5.09,4c.08.33.64.2,1,0,1.76-.73,2.05.21,1.86,1.68-.09.76-.41,1.63.4,2.18.62.4,1.2,1.13,2.1.77s.82-.93.76-1.69c-.17-2.14.73-2.73,2.84-2.2a16.36,16.36,0,0,0,6.1.7c2-.26,2.63-.82,1.1-2.47-.31-.35-.92-.53-.41-1.11.38-.41,1-.52,1.3-.09.81,1.25,3.91,1.29,2.15,4a1.11,1.11,0,0,0,.23,1c2.42,1,2.14,2.58,1.08,4.42a.94.94,0,0,0,.22,1.31h0c.55.33.85-.23,1.25-.46a19.12,19.12,0,0,1,2.06-1.07c.44-.18,1-.35,1.32.18s0,1-.46,1.21c-1.83,1.14-1.35,2,.38,2.47s1.72,1.86,1.54,3c-.25,1.59-1.52.35-2.24.55-3,.86-3.29-2.17-5.19-3.62.06,2-.92,3.81,1.42,4.74.34.14.76.35.6.85a.77.77,0,0,1-.94.54.85.85,0,0,1-.25-.13c-1.1-.69-2.87-.31-3.19-2.32-.22-1.31-1.62-1.75-2.78-2.37-1.71-.9-2.16,0-2.89,1.25s-1.61.11-2.18-.35a4,4,0,0,0-5.32-.63,2.68,2.68,0,0,1-3-.36,11.21,11.21,0,0,0-8.88-2,5.92,5.92,0,0,1-3.68-.78c-2.81-1.61-6.74-.75-8.78-4a.26.26,0,0,0-.26-.1c-5.19,2.17-9-2-13.37-3.27-5.14-1.42-10.35-2.13-15.51-3.19-.8-.16-1.43.15-1.44,1s.33,2.16,1.31,1.92c1.91-.5,2.83,1.63,4.6,1.33.55-.09,1,.65,1.07,1.23a1.28,1.28,0,0,1-1.17,1.4h0a8.07,8.07,0,0,1-3.75.21c-3.09-1.07-6.8.83-9.47-2a.3.3,0,0,0-.28-.09c-4.2,2.47-5.12-1.66-7.07-3.58-.63-.61-1-.87-1.65-.26-3,2.86-5.71.59-8.15-.9a6.63,6.63,0,0,0-5.73-1.1,5.1,5.1,0,0,1-2.87,0c-.78-.17-2.16-.08-1.77-1.35s1.23-.15,1.85.07c1.38.5,2.56-.52,3.91-.51.74,0,.54-1,.06-1.35-.76-.57-2-1.59-2.32-1.51-2.8.83-5-1-7.49-1.42-3.38-.49-4.7,2.36-5.59,4.24-1.23,2.59-2.4,2.15-3.9,1a2.71,2.71,0,0,0-3.45-.31,3.9,3.9,0,0,1-3.89.34c-.65-.33-1.36-.54-1.78.29a1.25,1.25,0,0,0,.5,1.7l.11.05c3.57,1.91,6.4,4.8,11.28,4.47a15.11,15.11,0,0,1,12.09,4.88c.41.44.67,1,1.36.48,2.07-1.67,3.84-.62,5.46.72.68.56,1,1.15,1.8.16,1.39-1.68,3-1.14,4.38,0a4.27,4.27,0,0,0,3.8.94c3.09-.57,3.72.07,3.67,3,0,1.4,1.37,1.8,2.56,1.71s2.32,0,2.92,1.31c.14.3.78.72.89.64,2.59-1.62,5.12.22,7.56.44a15.54,15.54,0,0,1,8.74,3.58c2.62,2.44,6,1.45,8.46,3.78-1.65,2.22-.08,3.21,2.36,3.81.86.21,2,.75,1.69,1.64-.33,1.08-1.55.59-2.51.6-3.61,0-6.41-2.34-9.76-3.16-2-.48-3.86,0-5.78-.32-4.16-.66-7.22-3.9-11.42-3.93-1.54,0-3.26-.73-3.81,1.52-.48,1.93.54,2.7,2.27,3.41a18.42,18.42,0,0,0,4.52,1,27.33,27.33,0,0,1,7.59,2.82c1.52.69,3.68.24,4.55.68,2.64,1.35,6,.12,8.19,2.74a3.57,3.57,0,0,0,4.41,1.39c.49-.21,1.15-.4,1.25.14.57,2.94,2.65,2,4.39,1.74,2.57-.39,4.14,2.42,6.78,2a6.71,6.71,0,0,0,2.24-.31c1.17-.67,1.6-1.67,0-2.29a3.76,3.76,0,0,1-2.21-2.12c-.63-1.32-.65-3.75-3.43-1.67-1.26.94-2.55-1-2.57-2.31s-.53-2.67,1.72-3.54c2.52-1,5,1.22,7.26-.59.19-.15.9.25,1.31.5,1.75,1.08,3,3,5.6,2.53.64-.13.78.85.5,1.64s-.19,1.94.79,2.22a1.6,1.6,0,0,0,2-1,1.48,1.48,0,0,0,.08-.46c.18-1.24.76-1.3,2-1.32a27.23,27.23,0,0,1,4.8,1.13c1.37.21,1.18,1.32,1,2.32-.31,2.16-2.17,3.4-3.13,5.19a1,1,0,0,1-1.31.32.9.9,0,0,1-.23-.2c-.61-.65-1.1-1.45-.39-2.32a5.57,5.57,0,0,1,3.5-2.17c-2.12-.68-3.51-.59-4.39-2a4.56,4.56,0,0,1-4.07,5l-.48,0c-1.34.16-2.73.18-2.85,1.83s1.17,1.7,2.54,2c1,.22,1.91,1,3.22.83,3.43-.43,3.56-.21,2.9,3.41,1.4-.93,2.5-2.51,4.28-1.2.38.28,1-.14,1.12-.65.28-1.57,1.25-1.85,2.68-2.4,2.24-.86.19-2.3-.37-3.51,2.43-1.13,3.31.24,3.5,3.15a20.56,20.56,0,0,0,3.05-4.82c2.1,2.21,5.32,2.55,7.1,5,.35.5.81-.58,1.26-.88,3.27-2.15,4.2-1.68,4.48,2.22s2.47,4.93,5.65,2.88c.57-.37.93-1.69,2.09-.15.73,1,.87-1,1.55-1.43,1.1-.63,1.22-1.41.28-2.35-.44-.44-1.39-.92-.68-1.63a1.44,1.44,0,0,1,2,.19l.09.12a13.68,13.68,0,0,0,9.27,4.64c1,.18,1.14.81,1.63,1.32.66.72,1-.79,2-.2-1.73,1.29,2,3.78-1.28,4.89-2.9,1-1.67-2.49-3.23-2.92-1.51-.07,1.74,3.35-1.55,2.08-1.52-.59-1.66,2.11-3,1.65-.62-.2-1-1.29-1.37-2s-.37-1.26.64-1.57c.84-.26,1.74-.94,1.12-1.94-.52-.83-1.56-.54-2.44-.33a9.06,9.06,0,0,0-4.72,5.82c.11,2.47,2.29,1.79,3.6,2,2.19.33,2.6,1.34,1.91,3.2-.13.37-.3.72-.78.74-.09-1.91-2.59-.15-3.12-2.26-.46-1.79-2.06.51-3.34.18,1.11,1.35,3,1.82,3.11,3.94,0,.74,1.21.56,2,.36,4.51-1.19,4.67-1,4.19,3.49-.13,1.22,1.73,2.7,2.85,2,1.93-1.13,2.92-1.23,2.41,1.43-.2,1.06.88,1.16,1.23,1.79-2.22,1.57-4.59-.21-6.88.37-.86.22-.85-.79-1-1.48-.32-1.86-1.25-1.91-2.21-.5-.82,1.23-1.5,1.84-2.65.44-.45-.56-1-.42-1.61-.22a8.65,8.65,0,0,1-8.77-1.67c-1.81-1.41-4.51-1.88-6.3-3.08a4.91,4.91,0,0,0-5.68,0,1.57,1.57,0,0,1-2.07-.52c-1-1.15.27-1.18.84-1.56s.68-.81.31-1.25-.85-.15-1.15.29c-.55.8-1.18.16-1.79.17-1.89,0-3.88-.92-5.65.48-.7.56-1.32.14-1.83-.32a15.39,15.39,0,0,0-5.21-2.29c-1.41-.54-3.67-.71-3-3.32a1,1,0,0,0-.66-1.16h0a1.31,1.31,0,0,0-1.76.59h0c-.92,1.52-2.17,1.42-3.53.67a2.2,2.2,0,0,0-1.91-.45,16.29,16.29,0,0,1-11.25-1.27c-2.7-1-6-1.22-7.87-3.5s-5.32-2.44-7.41-4.64c-.78-.83-2.83,0-3.43-1.12-1.58-2.79-3.73-2.71-6.54-2.52-1.52.11-2.41-.69-2.35,1.55,0,.93-.94,1.61-2.16,1.51-.94-.08-1.27-.31-1.76-1.32a9.8,9.8,0,0,0-5.4-5.31,3.24,3.24,0,0,1-2.59-2.77c-.34-2.3-1.7-1.24-2.36-.41a9.57,9.57,0,0,0-2.08,4.16c-.2,1.13-.82,2-2,1.65-1.7-.49-3.22.33-4.84.29-1.11,0-2.33.58-2.46-1.46a2.22,2.22,0,0,0-2.48-1.68c-3,.38-3.53-1.68-4-3.77a5.15,5.15,0,0,0-5.68-4.57h-.12a8.19,8.19,0,0,0-6,1.46c-1.36,1.13-3.92.65-6.45-1,.89,2,1.19,2.87-.51,3.82-1.89,1-1.61,3.41-1.07,5.31a3.36,3.36,0,0,1-3.51,4.55,20,20,0,0,0-5.24-.3c-1.46.26-1.71-1.28-1.8-2.16a18.86,18.86,0,0,0-.87-3.87c2.11.33,3.28-1.45,5.08-1.9,1.23-.3.83-5.41-.5-6.34-.92-.66-2.11-.86-2.21-2.41-.05-.91-1.27-1.16-1.9-1-4.59,1.54-7.46-2.22-11.32-3.39-.83.46,1.51,2.23-.65,2.27-1,0-2.45.09-2.88-1-.53-1.33-.05-2.41,1.71-2.65a.77.77,0,0,0,.76-.78.76.76,0,0,0-.48-.7c-1.79-.66-4.24-1.93-5.5-.52-1.71,1.92-2.89.77-3.94,0-1.68-1.18-2.92-2.81-5.34-1.25-.87.56-1.59-.91-2.09-1.61a4,4,0,0,0-5.44-1.33,3.28,3.28,0,0,0-.38.27,4.57,4.57,0,0,1-4.92.33,7.67,7.67,0,0,0-5.34-.18,2.92,2.92,0,0,0-1.65,5.19c.63.71,1.64,1.44,1.2,2.42s-1.61.2-2.43.41a5.07,5.07,0,0,1-3.67-.63c-.85-.45-2-.93-2.74-.08-1.08,1.16-1.55.62-2.13-.4-.32-.57-1.08-.91-1.49-.42-2,2.29-4.34.4-6.48.66-1.44.16-3.68-.59-1.63-3,1.14-1.35-1.44-2-.75-3.39,1.26.15,2.53.29,3.79.47,1.52.21,3.14.93,4.45-.42a2.58,2.58,0,0,1,3.6-.55,2.46,2.46,0,0,1,.41.38c-1-2.4-3.46-3.79-3.22-6.64.07-.78-1.22-1.05-2.06-1.39-2.46-1-6,1.36-7.6-2.31,0-.09-.59-.08-.81,0-2.91,1.8-5.84.31-8.68-.1a46.9,46.9,0,0,0-13.3-1.29c-1,.13-1.78.35-1.89,1.45s.63,1.55,1.6,1.75a7,7,0,0,0,5-.33,7.84,7.84,0,0,1,7.64,2.43c.55.64.38,1.85,1.5,2a27.5,27.5,0,0,1,6.53,2.78C1607.15,1097.87,1608.75,1097.08,1609.09,1098.93Zm-58.23,47.21c.28-1.54-.3-2.38.34-3.34,2.52-3.72,2.28-4.08-2.24-4.7-1.06-.14-2.53-.1-.81-1.95,1.42-1.51,0-2.64-1.64-2.83-.94-.1-1.74,0-1.88-1.24-.18-1.7-1-1.08-1.68-.35-1.07,1.13-1.7,1.22-2.57-.39a2.48,2.48,0,0,0-3.13-1.59,2.42,2.42,0,0,0-1.15.79c-1.29,1-3,2.69-4.67.19a.91.91,0,0,0-.79-.2c-5.48,1.27-10.59-1.63-16-1.42a1.83,1.83,0,0,1-2.16-1.42,2.69,2.69,0,0,1,0-.4,1.61,1.61,0,0,0-1.62-1.62h-.16c-2.8.47-5-1.4-7.67-1.64s-4.85-2.47-8.08-2.33c-2.91.13-3.59-3.5-1.45-7.43.79-1.44.76-2.31-.54-3.18-.48-.32-1.12-.5-1.14-1.21,0-1.43-.88-2-2.13-1.58s-1,1.53-.88,2.69c.3,3,2,6-.23,9.08-.91,1.25-1.63,1.55-2.38.36-1.16-1.82-2.25-1.29-3.66-.44a5.67,5.67,0,0,1-2.91,1.24c-1.79,0-1.92,1.52-1.79,2.79a1.6,1.6,0,0,0,1.69,1.52,1.56,1.56,0,0,0,.73-.22,2.53,2.53,0,0,1,2.47.1,8.7,8.7,0,0,0,7,1.69c2.92-.07,5.27,2.56,8.43,1.76,1.77-.45,3.8-1.4,5,1.15.21.48,1,.39,1.63.23a11.53,11.53,0,0,1,6.29,2.11c1.42,1.25,2.7,3.52,5.14,1.51.92-.75,1.5-.06,1.89.6a4.48,4.48,0,0,0,3.34,2.15,34.22,34.22,0,0,1,9.78,1.6c.85.39,2.18.24,2.07,1.61s.25,2.89-1.37,3.56c-.71.3-1.87.27-1.38,1.32a4.35,4.35,0,0,0,2.16,1.78c1,.43.92-.67,1.18-1.23.58-1.25.92-2.51,2.91-1.48a3,3,0,0,0,3.35-1.21c1.44-2.25,2.15-.73,2.91.38s1.5,2.52,2.62,1.65c2.26-1.78,3.46-.33,5.12,1.53ZM269.53,888.05c1.29-1.06,3-1.5,2.36-3.28-.36-1-1.31-1.11-2.18-1.2-2.43-.26-2.25,1.82-2.07,3,.36,2.32-1,2.12-2.07,1.51a4.54,4.54,0,0,0-5.17.59,3.36,3.36,0,0,1-2.8.5,7.21,7.21,0,0,0-3.48.21,2,2,0,0,0-1.76,2.29v.07c.2,1.23,1.23.83,2.11.86,6.09.17,12.16-.17,18.24-.25,1.84,0,5-2.08,6.22,1.74.2.6,1.58.62,2.46.28,1.84-.7,4-.42,5.54-2.07.51-.56,1.25-.45,1.94-.42,4.19.22,8.12-1.89,12.36-1.39a5,5,0,0,0,2.18-.72c.72-.29,1.24-1,.65-1.6-2-2,0-2,1.07-2.08,1.38-.1,2.54-1.05,4-.82a1,1,0,0,0,1.31-1.15,1.19,1.19,0,0,0-1.16-1.21.82.82,0,0,0-.22,0c-1.26.07-2.53.3-3.79.28a105.64,105.64,0,0,0-14.88.39c-.75.09-1.41.13-1.46,1s.65,1.63,1.18,1.32c1.81-1.06,3.6.42,5.27-.15,2-.68,2.83.34,3.79,2.14-3.5-.33-6.67-.61-9.83-1-.74-.08-1.62-.06-1.72-1.19-.26-2.77-2.17-1.51-3.55-1.37a.83.83,0,0,0-.62,1.14.58.58,0,0,0,.69.46.51.51,0,0,0,.24-.1c1.06-.67,1.6,0,1.66.83.07,1.08-1,1.06-1.72,1a42.31,42.31,0,0,0-4.88.64,22.67,22.67,0,0,1-9.9-.39Zm1067.65,191.86c-1.62-2.42-7.24-4.94-9.24-3.83a65.36,65.36,0,0,0-7.69,5.77c1.06,1.7,2.74,1.08,4.19,1.41,2.53.58,2.78-.35,1.62-2.52a37.48,37.48,0,0,0,4.82.77,15.11,15.11,0,0,1,8,3,6.56,6.56,0,0,0,5.94,2.12,5.17,5.17,0,0,1,4.19.72,5.38,5.38,0,0,0,5.49.91c.84-.37,1.9-.26,1.48,1.2-.17.57-.6,1.31.19,1.41a1.24,1.24,0,0,0,1.33-1.16,1.39,1.39,0,0,0,0-.41c-.12-.76-.7-1.63.47-1.84,1.79-.32,1.32-1.46.92-2.4-.52-1.25-.74-3.06-2.79-2.7-5.58,1-10.19-2.17-14.88-4.08-2.53-1-3.08-.62-4,1.59ZM924.53,788.35a22.37,22.37,0,0,1,6-.08c3.6.08,7.19-.34,10.77.06.53.06,1.31-.19,1-.54-1.91-2.28.88-2.61,1.58-3.6a2.43,2.43,0,0,0,.29-2.41c-.4-1.41-1.19-.21-1.83-.17-1.49.13-3,.54-3.8-1.48-.72-1.74-3-2.38-3.57-4.39-.24-.82-.92-.41-1.35.06a12,12,0,0,1-10.71,3.78,4.38,4.38,0,0,0-4.48,3c-.6,1.3-1,3.6,1.1,4.15A12.39,12.39,0,0,1,924.53,788.35Zm405.08,102a5.07,5.07,0,0,0,6.73,2.09,28.71,28.71,0,0,1,5-1.33c3.15-.65,5.7,1.21,8.63,1.15a11.59,11.59,0,0,1,5.78.52,6.34,6.34,0,0,0,5.42,1,3.17,3.17,0,0,1,3.65,1c1.19,1.63,2.65-.44,4-.14a1.26,1.26,0,0,0,.46-.9c-.37-1.19-1.62-.85-2.46-1.26a5.11,5.11,0,0,0-1.87-.73,76.69,76.69,0,0,1-14.86-2c-8.17-1.75-16.52-2.6-24.61-4.86a3,3,0,0,0-3.9,1.83,1.42,1.42,0,0,0-.07.22,3,3,0,0,0,1.57,3.95,2.81,2.81,0,0,0,.56.18c1.25.41,2.44.65,2.76,2.2a1.21,1.21,0,0,0,1.35.88c.9,0,1.09-.68,1.25-1.37S1329.34,891.52,1329.61,890.4Zm-82,167.26c1.42.25,3,.49,4.5.79,1.13.24,2.34.56,1,2a1.64,1.64,0,0,0-.1,2.3,1.81,1.81,0,0,0,.3.25c.87.84,1.62.18,2.36-.28a9.34,9.34,0,0,1,4-2.13,2.67,2.67,0,0,0,1.87-3c-.06-1.36-1.34-.94-2-1.37-1.9-1.19-3.46.59-5.26.1a53.7,53.7,0,0,0-10.33-2.28c-3.71-.27-6.74-3.18-10.82-2.17a30,30,0,0,1-6.26.7.86.86,0,0,0-.94.78.41.41,0,0,0,0,.11c0,.31.39.86.59.86a42.62,42.62,0,0,1,8.68,2.18C1239.21,1057.28,1243.4,1056.55,1247.56,1057.66ZM382.82,930c4.37.77,6.41-.82,6.73-5a8,8,0,0,1,.95-3c.36-.71.49-1.54-.44-2a7.22,7.22,0,0,0-6.59,1.58c-.84,1.32-1.69,1.85-3.07.85-2.1-1.5-3.62.5-4.46,1.45-1.18,1.34-.28,3.19,1.46,4a13.33,13.33,0,0,0,5.42,2.19Zm1287.46,137c-1.44-.25-2.11-.39-2.79-.49-1.4-.2-3-1-3.78,1-.47,1.18,1.42,4.69,2.67,4.9a3.33,3.33,0,0,1,3,2.27c.17.51.54,1.52,1.4,1.2a2.45,2.45,0,0,0,1.83-1.71,1.27,1.27,0,0,0-1-1.56c-2.34-.87-.91-1.4.17-2.09,2.66-1.69,4.87.06,7.15,1,1.55.61,3.6,1.13,4.41,0,1.6-2.23-3-2.86-2.05-5.4.06-.16-1-1.16-1.67-.52A8.92,8.92,0,0,1,1670.28,1067Zm-48.82,87.2c-.63.16-1.46.65-1.88.41-2.65-1.5-3.44.6-4,2.23a3.9,3.9,0,0,0,2.34,4.67c3.94.28,5.5,5.44,9.83,4.37.19,0,.66.47.76.79.64,2,2.17,1.54,3.34,1s2.37-1.39,1.83-3a3.57,3.57,0,0,0-3.33-2.45c-.82,0-1.59.74-2.49.09a7,7,0,0,0-6.28-1.44c-1.09.3-2.18-1.09-1.58-1.72C1621.33,1157.73,1620.39,1155.72,1621.46,1154.2Zm-286.52-82.47c-.78.86-1.6.72-2.34.9-1.06.25-1,1-.63,1.83.81,1.52,4.84,2.2,5.09.85.76-4.1,3-3,5.45-2.16a1,1,0,0,0,.58,0c1-.32,2.67.1,2.67-1.63,0-1.31-1.2-1.72-2.31-1.84-4.23-.41-8.18-2.69-12.6-1.81a2.61,2.61,0,0,1-1.43-.23c-1-.41-2.24-1.26-2.54.42-.25,1.44,1.31,1.4,2.32,1.64C1331.15,1070.14,1333.34,1070,1334.94,1071.73Zm41.5,19.64c0-1.43-.93-1.63-1.91-1.92a15.69,15.69,0,0,1-7.94-3.27.71.71,0,0,0-1.21,0c-1.18,1.38-2.44,2.7-3.53,4.15s-.15,3,.6,4.31a1.41,1.41,0,0,0,2.28.35,11,11,0,0,1,8.72-2,3,3,0,0,0,3-1.64Zm33.69-27.37c-2-.1-3.68-.21-5.33-.26-.87,0-2.11-.88-2.45.58-.26,1.11.74,1.76,1.67,2.1a17.36,17.36,0,0,0,3.08.85c3.06.54,5.74,2.18,8.71,2.93,1.37.34,2.61,2,3.52,1.82,1.78-.33-.18-2.7,1.16-3.74a1,1,0,0,0,.22-.53c.33-1.17,0-1.65-1.31-2-3.2-.84-6.77.55-9.28-1.75ZM461.24,880.83l-1.08-.69c-2.34-1.51-5.11-.16-7.37-.92-4.74-1.6-9,1-13.44.95a1.16,1.16,0,0,0-.8.69c-.18.54.16.89.74,1a27.27,27.27,0,0,0,4.56,1.09c3.65.17,7.11-.85,10.7-.87,2.1,0,4.61.75,6.68-1.26Zm430.08-94.74c.37-.08.91,0,1.08-.27,1.71-2.44,4.37-2.31,6.88-2.62a1.48,1.48,0,0,0,1.25-1.43c.11-.8-.35-1.14-1-1.56a79.29,79.29,0,0,0-7.77-2.84,3.84,3.84,0,0,0-3.69,1c-1,1-.28,2.12.45,3.14.3.42.16,1.14.37,1.66a6.79,6.79,0,0,0,2.41,2.89ZM765.74,982.2a1.16,1.16,0,0,0-.64-1.51,1,1,0,0,0-.29-.08,13.91,13.91,0,0,0-3.35-.94c-3.36-.07-6.16-5.25-10-1.11-.25.26-1.13,0-1.7-.07-.89-.12-1.74-.31-2.61-.44s-1.92-.27-2.2.82.78,1.41,1.55,1.79a3.1,3.1,0,0,0,1.33.54c4.31-.35,8.51,1.36,12.84.65a2.24,2.24,0,0,1,2.17,1c1.14,1.37,2.24.58,2.91-.69Zm824.05,174.12c2.26-.77,6.25,1.82,7.45-3a1.33,1.33,0,0,1,.8-.76c2.45-.77,1.31-1.54.16-2.6-1.56-1.45-3.21-.78-4.65-.18a8.54,8.54,0,0,1-3,.82,3.37,3.37,0,0,0-3.26,3.47h0c-.1,1.58.75,2,2.55,2.29Zm-306.48-274.7a51.34,51.34,0,0,0,10.18,1.25c.74.1,1.72.43,1.9-.71.16-.91-.79-.9-1.38-1.21-5-2.62-10.66-1.71-16-2.72a1.24,1.24,0,0,0-1.6.92c-.17,1,.59,1.33,1.42,1.54A38.54,38.54,0,0,1,1283.31,881.62ZM518.11,771.94a26.09,26.09,0,0,0,12.34-1.6c.65-.27,1.45-.29,1-1.29a1.39,1.39,0,0,0-1.73-.75,70.54,70.54,0,0,1-10.78-.19c-1.52.06-3.15.29-3.46,2-.39,2.12,1.4,1.55,2.58,1.81Zm747.56,107.94c1.38.57,2.45-.72,3.72-.63.85.06,1.6,0,1.74-1.09s-.68-1.29-1.42-1.56a24.75,24.75,0,0,0-12.11-1.37,1.16,1.16,0,0,0-1.11,1.15c-.06.87.51,1.21,1.24,1.35,2.69.53,5.65,0,7.93,2.16ZM721.9,973.67a2.86,2.86,0,0,0-2.59,1.07,2.56,2.56,0,0,0,.05,2.8c.62,1,1.52.71,2.35.3a3.78,3.78,0,0,1,2.88,0,9.75,9.75,0,0,0,6.66.58c.92-.34,2.63.19,2.7-.95.08-1.37-1.59-1.55-2.72-1.62a26.11,26.11,0,0,1-9.33-2.17Zm801.22,176.09c.91-.22,2.48.52,2.89-1,.45-1.72-1-2.18-2.24-2.41a66.15,66.15,0,0,0-8.17-2.21c-.68,0-1.46-1-1.9.17a1.81,1.81,0,0,0,.9,2.26A16.46,16.46,0,0,0,1523.12,1149.76Zm34.51-13.91c-1.23-.29-1.2.47-1.52.91-.91,1.25-.32,3.55-.81,3.89-2.51,1.78-.49,3,.17,4.38.33.69.8,1.49,1.77,1.11a2.18,2.18,0,0,0,1.3-1.81c.13-.84-.41-1.7.23-2.54,2-2.6,1.28-5.44-1.14-5.94ZM1459.9,1061a18.07,18.07,0,0,1-4.32,3.08c-.48.18.44.94,1.07,1.29,1.73,1,3.87.63,5.51,1.6,2.93,1.72,3.28-.9,4.35-2.32.32-.43.24-1.21-.31-1.14a4.8,4.8,0,0,1-5.52-2.37C1460.65,1061,1460.5,1061.06,1459.9,1061Zm-7.84,2.56c-.37-1.08-.24-3.07-1.85-2.65-2.87.76-6.26-.73-8.71,2-.38.43-1.82.06-1.27,1.28.45,1,1.24.9,2.13.16a2.67,2.67,0,0,1,4.54.77,2.6,2.6,0,0,0,3,1.19c1.32-.29,1.42-1.72,2.11-2.76Zm161.28-39a2.11,2.11,0,0,0,2.11.25c.79-.29,1.93-.23,2-1.33.08-1.26-1.11-1.17-1.91-1.3a5.41,5.41,0,0,1-3.24-1.76c-1.49-1.6-3.24-.73-4.87-.26a1.59,1.59,0,0,0-1,2,1.22,1.22,0,0,0,.07.17c.59,1.55,2.16,1.72,3.58,2,1.06.23,2.14-.43,3.26.19Zm-24.27-19.93a2.24,2.24,0,0,0-2.77.89,2.15,2.15,0,0,0,0,2.47c.51,1.1,1.51.73,2.47.85,2,.27,5-3.88,6.17,1.15.16.68,1.26.24,1.85,0a2.17,2.17,0,0,0,1.31-1.81c0-.55-.23-1-.78-1-3,0-5.39-2-8.28-2.47Zm181.6,201.66c.94.17,1.71.33,2.49.44a1.48,1.48,0,0,0,1.83-1v-.05c.26-.92,0-2.13-.82-2.25-2.11-.31-3.51-2-5.53-2.46-1.7-.4-2.54.51-3.52,1.43-.38.36-.61.82-.23,1.29s.65.23,1,0c1-.49,2.56-.45,2.27.57-1,3.35,1.71,1.5,2.47,2Zm-138.14-184.42c-.73-2.08-1.21-3.06-2.73-4-1-.6-.94-2.29-2.76-.75-.69.57-2.61-.7-2.83,1.56a4,4,0,0,0,1,3.08c1.32,1,3.14.93,3.7,0,1-1.83,2-1,3.56.1ZM349.86,928.26a4.2,4.2,0,0,1,3.68-1.67,2.05,2.05,0,0,0,1.82-.74,3.45,3.45,0,0,0,.64-3.77c-.5-1.08-4.76-1.13-6.17-.1-1.16.86-1.6,2.54-.66,3.26C350.46,926.24,349.67,927.11,349.86,928.26Zm1137.63,210.55a7.07,7.07,0,0,0,3-3.42,2.42,2.42,0,0,0-.32-3.17,1,1,0,0,0-1.36,0,9.76,9.76,0,0,1-5.74,1.67,1.26,1.26,0,0,0-1.22,1.06.92.92,0,0,0,.61,1.17h0C1484.3,1136.62,1486.36,1136.66,1487.49,1138.81ZM858.09,772.39a4.66,4.66,0,0,0-3.26,1.4c-1.1,1.46.71,1.59,1.28,2.33.95,1.22.94,3.67,3,3.41,1.71-.22,1.67-2.68,2.93-3.77.53-.47.84-1.09.1-1.35a7.82,7.82,0,0,1-4-2Zm679.73,381.35a4.73,4.73,0,0,0,4-.64c1.07-.54,1.23-1.44.16-1.95a11.09,11.09,0,0,0-6.56-1.88c-1.14.19-2.45.54-2.59,2s1.35,1.08,2.08,1.57A7.05,7.05,0,0,0,1537.82,1153.74ZM651.4,970.28c1.81.1,3.67.3,5.52.27,1.48,0,1.92-.67.89-2a9.59,9.59,0,0,0-6.73-2.35,2.84,2.84,0,0,0-2,2.67C649.23,970.23,650.49,970,651.4,970.28ZM830.56,769.85c-2.66-.51-4,.37-4.53,2.81-.28,1.38.25,2,1.58,2.21,1.67.3,5-1.55,5.21-3C833,770.22,831.73,770.08,830.56,769.85ZM256.67,940.27c1.73.51,5.44-1.74,4.7-2.23a12.31,12.31,0,0,0-5.65-2,3.16,3.16,0,0,0-2.35,2.84c.16,1.19,2.07.62,3.05,1.26Z"/><path id="Tracé_28" data-name="Tracé 28" class="cls-2" d="M1443.64,1156.1c-2.65.66-4.74-.49-6.85.62-.93.49-2-.7-2.28-2.08-.2-1-1.07-2,.73-2.47a1.72,1.72,0,0,0,1.23-2.11,1.83,1.83,0,0,0-.08-.25,1.61,1.61,0,0,0-1.47-1.23c-1.26-.13-1.75.63-2,1.68s-.75,1.46-1.69,1c-1.35-.59-.11-1.19.1-1.78a2.87,2.87,0,0,0,.22-.55c.1-1.28,2.79-2.16,1.2-3.36a5.41,5.41,0,0,0-6-.57c-3.08,1.72-4.88,1.08-6.33-2.07-.92-2-2.56-1.93-4.2-1.32a29.26,29.26,0,0,0-3.88,1.94,4.55,4.55,0,0,1-4.13.4c-1.57-.58-3.38-.6-2.52,2.08.41,1.28-.5,1.34-1.2,1.47-1,.19-1.27-.6-1-1.29,1.41-4-3.08-5.26-3.87-8.24a1.29,1.29,0,0,0-.93-.56c-3.09,2.59-5-3.33-8.09-1.08a4.32,4.32,0,0,1-3.56.35c-1.74-.33-3.84.56-3.32-2.55,0-.18-.37-.62-.53-.61-2.84.34-4-3.42-7-2.77-3.14-3.44-6.89-.67-10.34-1-1.37-.12-2.08,1-2.67,2-1.23,2-2.34,2.78-3.74-.51.52,2.84-1.34,2.61-2.63,3a2.57,2.57,0,0,1-3.38-1.3l-.06-.13c-.66-2.43-2.85-3.05-4.4-4.38s-1.61,2.1-3.38,1.17c.38-1.68,2.08-3.17,1.31-5.3-.33-.91-.63-2-1.59-1.72-2.81.7-5-1.61-7.71-1.27-1.09.14-1.16-.57-1.56-1.28a4.81,4.81,0,0,0-6.12-1.08,5.33,5.33,0,0,1-5.6-.47,17.67,17.67,0,0,0-9.4-3.39,2,2,0,0,1-1.91-1.09c-1.27-2-5.25-3.74-7.06-2.38-2.63,2-4.55,0-6.47-.59-2.14-.68-5-.66-6.09-3.52-.27-.68-1.58-.23-2.2.07-2.71,1.33-5.58.34-8.35.71-.47.07-1.5-.08-1-.84.62-1.06.65-2.11-.25-2.56-1.36-.69-2.78-1.82-4.37-1.48a16.22,16.22,0,0,1-7.16.51c-.65-.15-1.78.13-1.63,1.19s1.35.46,1.71.68c1.33.83,3.44,2.29,3.29,3.18-.28,1.56-2.61,1.3-3.77.78-2-.88-3.42-2.89-6-2.46a.92.92,0,0,1-.71-.46c-.54-1.13-.15-3.59-2.65-1.72-1.84-2-2.23.39-3.29,1-2,1.16-2.07-1.27-3.29-2.21-.38,2.33-1.61,2.49-3.44,1.42a13.07,13.07,0,0,0,1.45-7.18,1.6,1.6,0,0,1,1.13-2,1.41,1.41,0,0,1,.46,0c1.64-.16,3.28-.2,4.93-.23a36.44,36.44,0,0,1,6.76.57,16.23,16.23,0,0,1,9.24,3.5,3.41,3.41,0,0,0,3.52.92,7.25,7.25,0,0,1,6.06-.07c4.08,1.08,8.44,1.16,12.15,3.53a14,14,0,0,0,10.22,1.89c1.53-.25,2.77.86,4.19,1.18a55.79,55.79,0,0,1,12.47,3.16,34.38,34.38,0,0,0,9.69,2.32,49.53,49.53,0,0,1,14.7,4.36,9.36,9.36,0,0,0,1.66.5c1.93.62,4.06-.33,6,1.6s3.46-1.22,5.4-1.48c.36,0-.26-1.79-1.41-2a16,16,0,0,1-4.38-1.64c-1.39-.66-1.37-1.45-.31-2.7,1.33-1.59,2.68.35,4.08-.47s2.43,0,2.51,1.88c.07,1.33,1.23,1.55,2.12.74a6.75,6.75,0,0,1,2-1c2.4-1.13,3.74-.4,4.21,2.14.18,1-.16,2.74,1.63,1a.52.52,0,0,1,.26-.1c1.89,3.54,5.07.5,7.46,1.46.18.07.45,0,.58.1,3,2.72,6.91,1.43,10.31,2.35,1.87.5,4.28,0,4.91,2.75a.85.85,0,0,0,.69.45c3.31-.87,5.78,1.86,9,1.94a17.07,17.07,0,0,1,11.1,3.72,1.28,1.28,0,0,0,1.82,0c1.37-.92,2.67,0,3.84.52a1.86,1.86,0,0,1,1.11,2.37l0,.08c-.42,1-1.32.7-2.24.69-8.19-.16-15.4-3.83-22.93-6.31-2.21-.73-5.28.19-6.39-3-3.59,1.42-6.3-1.44-9.5-2-5.76-1-11.5-2.23-17.24-3.42a1.37,1.37,0,0,0-1.73.88,1.16,1.16,0,0,0,0,.18c-.3,1,.56,1.1,1.26,1.08s1.56-.3,1.7.63c.33,2.37,2.43,2.53,4,3.37a28.64,28.64,0,0,1,6,2.82,3.28,3.28,0,0,0,3.12.3,3.79,3.79,0,0,1,4.49,1.12c1.54,1.73,3.74,1.06,5.57,1a15,15,0,0,1,6.51,1.34,55,55,0,0,0,10,2c4.46,1,8.78,2.55,13.31,3.29.88.15.66,1.2,1.06,1.54,1.25,1.07,2,3.08,4.48,2a9.49,9.49,0,0,1,6.35.34,1.81,1.81,0,0,1,1.63,2c0,.1,0,.2-.05.3-.2,1.89,1.3,2.21,2.51,1.2a6.53,6.53,0,0,1,7.09-.49c6,2.23,12.4,3.42,18.49,5.37,5,1.6,10.13,2.19,15.1,4.3,7.14,3,14.44,6.46,22.68,6.71,3.09.1,6.07,2.79,9.17,4.12a16.76,16.76,0,0,1,6.71,3.47c.1.12.46.19.53.12,3.54-3.45,7.05-.48,10.31.41,2.65.73,5.36,0,7.93,1.17,4.67,2.06,9.41,4,14.21,5.74a55.78,55.78,0,0,0,5.75.87c3,.73,6.53.71,7.78,4.55.09.26.63.42,1,.54.85.28,1.71.61,1.77,1.61,0,.49-.65.62-1.12.78-1,.36-2.4.5-2.69-.36-1.58-4.71-4.67-1.6-7.11-1.45a13.87,13.87,0,0,1-2.58.17c-3.65-.47-5.34,1.72-4.12,5.35.3.87,1.29,1.83.13,2.55a2.25,2.25,0,0,1-2.68-.65,19.39,19.39,0,0,1-2.47-2.41c-1.4-1.87-3.28-3.26-5.77-1.85-.84.48-1,0-1.31-.43-.46-.64-1-1-1.76-.47-3.09,2.12-5.8.89-8.57-.8a3.12,3.12,0,0,1-1.51-2.95c0-1.48,1.16-.91,1.92-1.09,1.31-.29,1.3-1.41,1.19-2.34a2,2,0,0,0-2.08-2h-.08c-1.12,0-2.57.64-2-1.52,0-.13-.23-.48-.24-.48-2.81,1.34-5.71-2.61-8.5.13-.48.47-1.07,1.09-1.62.09-.38-.69-.23-1.14.61-1.57,1.19-.6.69-1.14-.19-1.89-2.17-1.86-4.92-.72-7.31-1.58a1.83,1.83,0,0,0-2.15,1.44,1.79,1.79,0,0,0,.18,1.22c.31.72.38,1.53-.42,1.7a5.1,5.1,0,0,1-3.42-.23c-.57-.29-.7-.73-.61-1.44.4-3.26-.89-4.76-4-4.65a8.72,8.72,0,0,1-6.62-1.66,1.47,1.47,0,0,0-2.09,0l0,.06a2.92,2.92,0,0,0-1.15,2.28,4.59,4.59,0,0,0,5.19,3.1,3.92,3.92,0,0,1,2.86.13c1,.29.91,1,.16,1.42-1.18.65-2.54,1.7-3.68,1.54a27.88,27.88,0,0,1-7.87-1.74,2,2,0,0,1-.94-.66c-2.61-5.77-8.82-4.76-13.23-7.11a18.38,18.38,0,0,0-7.77-1.5,9.5,9.5,0,0,1-4.4-2.79c-.82-.7.25-1.14.72-1.52a3.43,3.43,0,0,0,1.37-3.84c-.44-1.78-2-1.31-3.08-1.65a16.58,16.58,0,0,0-8.39.37c-.8.16-2.29-.11-2.21,1.35.06,1.11.24,2.39,1.66,2.85A12,12,0,0,1,1443.64,1156.1Zm96.12,18.27c-1.18,1.11-2.9,2-3.68,1.29-2.41-2-3.62.16-5.22,1-1.77.94-1.1,2.16-.07,3a9.5,9.5,0,0,0,5.49,1.82,1.46,1.46,0,0,0,1.59-1,49.15,49.15,0,0,1,1.88-6.16Z"/><path id="Tracé_29" data-name="Tracé 29" class="cls-2" d="M415.47,801.12c.45,2.43-.15,3.78-3,3.32a21.49,21.49,0,0,0-3.49.25,4.21,4.21,0,0,0-4.59,3.79,2.64,2.64,0,0,0,0,.28,9.32,9.32,0,0,0-6.14-2.09,1.07,1.07,0,0,1-1.35-.71.8.8,0,0,1-.05-.34c-.13-.74-.53-1.38-1.35-1.26a2,2,0,0,0-1.77,1.7c-.36,2.15-1.29,3.54-3.85,3.23-.93-.12-1.59.07-1.89-1.18a1.9,1.9,0,0,0-3.19-1.05c-1.34,2.13-3.3.81-4.8,1.48-.49.21-1.17.39-1.23-.13-.35-3.31-2.78-1.18-3.66-1a37.24,37.24,0,0,1-13.92.16c-2.19-.49-3.68.93-5.74.81-2.29-.27-4.6-.43-6.91-.47-3.12.13-6.07,1.75-9.2,1.27-4.1-.62-8.26,1.8-12.3-.29-2.86,1.75-6.16-.37-9.29,1.26a10.75,10.75,0,0,1-7.06,1.11c-1.91-.44-4.43,1.76-5.81-1.36-.21-.49-5.11,2.13-5.5,2.94-.52,1.11.15,1.05,1,1.46a20.27,20.27,0,0,0,12.21,1c7.11-.9,14.18-.18,21.25-.66a2.91,2.91,0,0,1,1.88.66c.3.19.69.53.7.82,0,.64-.57.65-1.06.69-3.2.21-6.41.44-9.62.62-3.88.22-7.76.28-11.63.61-1.53.13-3,.94-4.32-.58-.61-.71-1.24,0-1.75.43a5.45,5.45,0,0,1-4.41,1.17c-5.54-.76-10.75,2.28-15.87,1.88-4.93-.39-10,2.3-14.79-.42a5,5,0,0,1,5.46-2.34c1.23.21,2.89.87,3.29-1.17.37-1.86-1.75-1.13-2.47-2.24,2.53-1.26,1.28-3.13.36-4.58-1.11-1.74-.79-3.14.7-3.91,2.57-1.31,4.6-4.62,8.43-2.47-2-3,0-6.8-2.94-9.84a4.18,4.18,0,0,0,4.8-1.3c1-1.2,2.75-.73,4.15-1.07,6.55-1.63,13.31-1.15,19.94-1.92a6.12,6.12,0,0,1,4.46,2c1.13.91,1.6,1.6,2.78-.24,1.5-2.34,4.45-2,6.93-2.3.25,0,.72.17.76.35,1,4.08,2.73,1.29,4.17.39.87-.55,1.92-1.22,2.69-.58a10.5,10.5,0,0,0,6.22,1.8,41.85,41.85,0,0,0,8.36.8,134,134,0,0,0,16.14-2.64,5.9,5.9,0,0,1,6.69,3.51c-1.66.89-3.68.59-5.42,1.45-.88.45-1.64-1.43-3.4-1.18-2,.29-3.27,0-5.19.45a34.09,34.09,0,0,1-6.91.76A4.37,4.37,0,0,0,350,795.3c-.39.34-.78,1.07-.47,1.24,2.41,1.23,1.18,3.14,1,5,1.11-1.19,2.6-1.68,3.48-3.06s1.86-1.28,3.28-.1A11.13,11.13,0,0,0,364.4,802c6.13.08,12.22-1,18.3-.73,5.77.29,11.37-1.52,17.11-.77.61.08,1.43-.55,1.76.43.51,1.51,1.8,1,2.42.6,3.57-2.24,7.35-1.24,11.08-1Z"/><path id="Tracé_30" data-name="Tracé 30" class="cls-2" d="M930.55,1023c-.12-2.57.62-3,2.22-2.37,2.38.89,5.25.35,7.14,2.76.43.54.69,1.23.39,1.27-1.62.16-2.18,2.16-3.47,2.23-3.39.18-4.13,2.66-5.43,5-.68,1.23-2.64,1-3.79.19a6.55,6.55,0,0,1-2.71-2.61c-.23-.56-.64-1.13-1.31-.8s-.52,1-.23,1.53c.72,1.45-.28,1.57-1.22,1.37a97.13,97.13,0,0,1-11.26-2.72c-1.34-.47-2.19-1.4-3.86-.67-.94.42-2-1-3.09-1.37a22,22,0,0,0-7.49-2c-3.43-.08-6.84.87-10.56-.42a18.87,18.87,0,0,0-10-1.19c-2.19.48-3.86-1.36-5.55-2.19-2.41-1.19-4.38.38-6.63-.19-4.67-1.19-9.51-1.7-14.24-2.74-1-.23-1.81-1.43-3-1.85-.95-.33-1.78-.77-2.77-.27-2.11,1.06-2.15-.82-2.71-1.92-.33-.65,1.77-1.65-.06-1.88-1.11-.14-2.77-.53-3.57,1.23a4.18,4.18,0,0,1-5.25,2.73,4.38,4.38,0,0,1-.91-.41c-.42-.18-1.24-.14-1.31-.37-.63-2.09-2.5-1.49-3.83-2.12-2.81-1.36-4.91.76-7.45.56a36.14,36.14,0,0,1-11.21-1.72c-1.28-.53-1.86-2.68-3.78-1.7a13.55,13.55,0,0,1,.59-4.34c.13-.73.55-1.41,1.37-1.24a12.67,12.67,0,0,0,5.23-.4c.72.67.24.87.06,1.16-.48.78-1.81,1.75-.76,2.43s1.5-.82,1.8-1.67c.41-1.21,1.78-.69,2.38-1.48,1.09-1.44,2.81-2.44,3-5.14.81,1.54,1,2.81,2.22,3.14,1.68.44,2-.61,2.18-1.93.11-.61.93-.78,1.45-.74a14.58,14.58,0,0,1,7.29,1.73,1.52,1.52,0,0,1,.75,2,1.32,1.32,0,0,1-.12.2c-.89,1.67,0,2.07,1.38,2.29,1.84.31,3.47.79,3.34,3.24-.06.84.74,1.05,1.45,1.15,1,.14,1.42-.44,1.61-1.3s1-2,1.65-.85c2.19,3.69,5,1.52,7.55,1,.78-.17,1.55-1.26,2.18-.12s-.65,1.39-1.29,1.9c-.88.7-1.52,1.94-3,1a.76.76,0,0,0-1,.17.79.79,0,0,0-.12.3.86.86,0,0,0,.55,1.09l.12,0c2.07.54,3.77,2.47,6.27,1.59.51-.18,1.38.44,1.52-.61.1-.75-.56-.92-1.14-1.1l-2.81-.86c3.49-.89,5.12-3.14,7.3-4.6a3.12,3.12,0,0,1,4.14,1c1,1.63,2.11,2.12,3.51.86s2.56,1.25,3.67-.17c.72,1.11-.52,2.61.87,3.08,1.13.39,1.88-.72,2.68-1.41.44-.38,1.12-.6,1.37-1.07,1.93-3.59,4.65-.8,6.92-.68.45,0,.85,2.49,1.13,3.86a5,5,0,0,0,6.2,3.49l.16,0c.59-.24,1.22-.38,1-1.12-.2-.91-.78-.34-1.34-.28-2.53.3-2.9-2.61-5.63-3.21,3-.8,5.05,1.27,7.28.14.44-.22,1.07.29,1.25,1,.5,1.9,1.27,2.08,2.87.76,1.17-1,5.27,1,5.76,2.38.38,1.1-.55,1.3-1.07,1.8s-1.27.38-2,.38c-1.25,0-2.66.19-2.42,1.77a2.23,2.23,0,0,0,2.65,1.72l.29-.08c1.57-.7,4.27.65,4.74-2.35,0-.2,1-.28,1.61-.35a3.44,3.44,0,0,0,3.36-2.32c.45-1.29,1.17-2,2.42-.33a4.6,4.6,0,0,0,6.27,1.76,4.31,4.31,0,0,0,.63-.42,3.2,3.2,0,0,1,3.3-.52c2.56,1.53,5.9.66,8.27,2.93C927.39,1021.8,930,1018.85,930.55,1023Z"/><path id="Tracé_31" data-name="Tracé 31" class="cls-2" d="M1108,1067.08a4.18,4.18,0,0,0-5-3.13,4.1,4.1,0,0,0-.77.26c-3.64,1-6.51-1.29-9.39-3a3.11,3.11,0,0,0-3.45-.31,5.23,5.23,0,0,1-6.48-1c-1.83-1.76-3.24.45-3.75,1.66-.65,1.58-1.39,1.33-2,.54-1.64-2.09-4.81-2.23-6-4.89-.29-.65-1-.4-1.57-.15s-.85.74-.36,1.14c1,.85.7,1.63-.19,2a2.2,2.2,0,0,1-2.67-.64c-.69-.93-1.49-1.77-2.2-2.63-1.28-1.56.92-1.54,1.37-2.46,1,.78.5,2.27,1.62,2.71,1.41-.35.11-2.61,1.22-2.23,2.77,1,5.9-2,8.06.32,2.9,3.1,6.22,2,9.51,2s6.43.17,9.64.38a3.3,3.3,0,0,1,2.07,1c3.95,4.37,9.3,4.48,14.56,5a42.64,42.64,0,0,1,5.37,1.36,115.23,115.23,0,0,0,16.39,3.7c5.77.52,11.24,2.27,16.92,3.09,6.39.92,12.79,1.4,19.2,1.93,1.73.14,3.2,1.57,5.08,1,.16,0,.51.09.53.18.75,4.1,4.55,3.19,7.09,4.36a2.66,2.66,0,0,1,1.14,1.16c-2.12,0-4,2.54-6.29.21-1.23-1.24-2.41,1.06-4,.14a2.23,2.23,0,0,0-3.14.31,2.2,2.2,0,0,0-.44.86c-.1.29-.76.68-.92.59-2.64-1.47-6.77.44-8.26-3.62a1.93,1.93,0,0,0-2.36-1.39l-.23.07c-1.49.69-2.33-.24-3-1-2.7-2.71-7.71-2-11.55-.5-.16.07-.27.26-.4.38-2.24-3-1.62.75-2.47,1a11.91,11.91,0,0,0-1.5.79c-.23-1.25-1.27-2.31,0-3.56a.83.83,0,0,0,0-.81,14.73,14.73,0,0,1-2.92-2.3c-.92-1.31-1.77-1.63-3.17-.93a2.72,2.72,0,0,1-2.57-.12c-2.41-1.63-5.28-.74-7.88-1.73a7.81,7.81,0,0,0-6.43,1c-2.44,1.4-3.2,1-3.21-1.8,0-1.27-.56-1.65-1.64-2C1110.17,1065.85,1109.12,1066.57,1108,1067.08Z"/><path id="Tracé_32" data-name="Tracé 32" class="cls-2" d="M1575.4,1185a15,15,0,0,0,6.51.55c.75-.12,1.23.45,1.73,1a5.8,5.8,0,0,0,5.7,2.1c2.34-.49,4.83,1.59,7.15.56,3.41-1.52,6.48.38,9.71.4a4.91,4.91,0,0,1,3.94,2.2c2.64,3.53,4.29,4,7.94,2,1.67-1,2.44.76,3.11,1.3,1.43,1.15,2.43,2.8,5.22,2.56a5.79,5.79,0,0,1-4.16,1.82c-4.94-.4-9.94.65-14.83-.7-.76-.22-1.83-.35-2.13.46-1.46,3.84-5.06,1.17-7.42,2.55-2.81,1.64-5.18.21-7.09-2.18-.39-.49-1.22-1.3-2-.82s.4,1.12.28,1.33a1.83,1.83,0,0,1-2.48.75l-.13-.08a15,15,0,0,1-2.41-1.11,5.64,5.64,0,0,0-4.51-1.72c-.57,0-1.26-.27-1.33-1-.18-2.17-1.69-2.6-3.45-2.87a1.84,1.84,0,0,1-1.79-1.9,2.23,2.23,0,0,1,0-.36c.13-1.14.61-1.64,1.89-1.67,3.07-.09,3.2-.51,1.44-3.16C1576,1186.47,1575.33,1186.06,1575.4,1185Zm12,10.69c.93.89,2,0,2.92-.56s1.06-2,.19-2.12c-2.83-.5-5.08-2.51-7.89-2.79-1.45-.14-1.81,1.19-.91,1.88,1.66,1.31,2.93,3.37,5.68,3.59Z"/><path id="Tracé_33" data-name="Tracé 33" class="cls-2" d="M1031.62,1026.62c0,3.1,2.26,3.44,4.06,4.16.63.25,1.61-.4,2.09.51a.82.82,0,0,1-.42,1.08.6.6,0,0,1-.19.06c-1,.21-2.48,1.2-3,.44-1.58-2.54-4.13-.1-5.86-1.45-.36-.28-.91.19-1.22.61-.69.93-1,1.78-.07,2.85,1.13,1.25,1.36,4.19,3.68,3.15a2.37,2.37,0,0,1,3.31.51,1.53,1.53,0,0,1,.19.3c.5.57,1.58.63,2.46.94a8.67,8.67,0,0,1-7.86.9,7.4,7.4,0,0,0-7.35-1.76c-1.53.58-5.67-1.22-7.84-2.84a1.7,1.7,0,0,1,2-.52,3.3,3.3,0,0,0,4.2-2.07,2.59,2.59,0,0,0,.11-.37,3,3,0,0,0-1.15-4,2.92,2.92,0,0,0-.91-.33,24.52,24.52,0,0,0-11.1-1.39c-2.25.35-3.53-1-5.38-1.2-7.43-.78-14.79-2.29-22.16-3.56-.83-.15-1.83-.08-2.32-1-.33-.64,0-1.75-1.1-1.81s-.76,1.42-1,1.43a9,9,0,0,1-4.11-.4,6.13,6.13,0,0,0-3.48-1c-1.06.07-2.4-.22-2.29-1.66s1.23-1.82,2.61-1.58c5.28.93,10.57,1.81,15.85,2.74a7.32,7.32,0,0,0,3.16,0c2.82-.67,5.72-1.39,7.84,1.72.54.79,1.6.58,2.4,0,1.95-1.37,3.25-.77,4.58,1.09,1,1.37,2.08,2.58,3.81,0,1.15-1.74,3.68,0,5.57.35.72.13,1.28,1,2.14.8,1.66-.31,4.15-1.83,2.53,2.07-.38.91,1,1.34,1.63,1,1.56-1,2.41,0,3.56.74a4.24,4.24,0,0,0,4.13.86,1.77,1.77,0,0,1,1.68.2C1028.51,1029.36,1030.39,1029.94,1031.62,1026.62Z"/><path id="Tracé_34" data-name="Tracé 34" class="cls-2" d="M1499.58,1155.21c-2.19-.58-4.78-.31-6-2.91a.66.66,0,0,0-.87-.34l-.13.07c-2.85,1.58-5.28,0-7.75-1.08-4-1.69-8.48-1-12.44-2.94a103.56,103.56,0,0,0-17-5.25c-2.27-.64-5.36.91-6.77-2.27-3.58,2.37-5.38-2.23-8.64-2.19a33.71,33.71,0,0,1-9-2.39c-.94-.26-2-.26-2.62-1.15-.47-.7-2.1-1-1.13-2.25a1.92,1.92,0,0,1,3.09.06c1.09,1.74,1.46,2.73,3.61.78a4,4,0,0,1,5.15,1.39c.41.61.79,1.25,1.5,1.2,3.34-.27,6.16,1.89,9.43,1.91.19,0,.52,0,.56.05,1.89,3.76,4.7.3,7,.77a7.71,7.71,0,0,1,4.47,1.61,10.74,10.74,0,0,0,5.92,2.22c9.12,1.67,17.77,5,26.67,7.43a36.07,36.07,0,0,1,7.91,2.1c1.33.7,2.37,1.26,1.78,3-.67,2.06-1.86.57-2.83.48C1500.93,1155.5,1500.26,1155.33,1499.58,1155.21Z"/><path id="Tracé_35" data-name="Tracé 35" class="cls-2" d="M667.35,740.35c-1.72-2.3,1-2.77,1-4.36.38.29.53.4.68.53,2.7,2.17,2.7,2.17-.56,3.77a7.89,7.89,0,0,0,7.73.39c3-1.37,3.75.56,5,2.18,1.07-.69.86-1.47.57-2.36a2.14,2.14,0,0,1,1-2.71,2.56,2.56,0,0,1,2.73,1.22c.57,1,0,1.76-1.16,2.2a1.34,1.34,0,0,0-.73,1.74,1.35,1.35,0,0,0,.15.26,1.78,1.78,0,0,0,1.11.86c1,.15.87-.72,1.08-1.36.89-2.71,3.15-3.19,6.76-1.41-.76.58-2.21.41-1.39,2.28s-1.56,3.13-2.51,4.6-1.64-.7-2.6-.81c-1.58-.18-2.92-1.81-4.8-.07-.94.86-2.82-.1-4.24-.43-2.36-.56.49-2.46-.81-3.32-3.08,2.7-4.4,3.65-9,1.06a3.26,3.26,0,0,0-4,.06,9.17,9.17,0,0,1-5.84.94c-4.32.08-7.89-2.7-12.15-2.76-.71,0-2.3-.37-2.27-1.43,0-1.41,1.81-1.45,2.68-2.18.06-.59-.28-.84-.69-.82-.78,0-1.43-.1-1.46-1s1-.72,1.52-1.07,1.18-.79,1.68.12a2.85,2.85,0,0,1,.32,2.76c-.32.72-.85,2,.25,2.3a2.65,2.65,0,0,0,3.18-.72,7.41,7.41,0,0,1,2.75-2.94c.88-.4,1.33-1,2.24.17s2,0,3.09-.43c1.37-.48,3.49-1.74,2.83,1.62a1.35,1.35,0,0,0,1,1.61c.57.21,1.41.37,1.62-.18C664.84,738.57,666,739.77,667.35,740.35Z"/><path id="Tracé_36" data-name="Tracé 36" class="cls-2" d="M1522.36,914.9c.17-1.93-2.19-3.7.17-5.23a7.41,7.41,0,0,1,7.39,1.91c1,1.47,1.17,1.93,2.16,0,.91-1.73,7-.66,7.84,1.44.65,1.62,1.18,1.55,2.54.9a8.26,8.26,0,0,1,7.2.62c1.76.83,3.23,2.11,5.37.91a2.29,2.29,0,0,1,2.5,1.19c-2.36,1.59-4.21,4.06-7.69,3.13a2.53,2.53,0,0,0-1.71.19c-3.57,2-6.8-.32-10.17-.71-.27,0-.72-.2-.76-.38-1-4.3-4.66-2.76-7.31-3.35-1.61-.36-1-2.37-2.85-3-1.37-.51-1.38-1-2.15.41C1524.49,913.64,1523.43,914.07,1522.36,914.9Z"/><path id="Tracé_37" data-name="Tracé 37" class="cls-2" d="M1438,1090.05c0-1-1-.75-1.39-1.3s-.63-1.16-.12-1.58,1.27-.62,1.55.42,1.29.81,1.83,1.35c.71.73,1.55,1.71.82,2.55a3.93,3.93,0,0,0-.67,4.8c.5,1-.49,1.18-1.09,1.65-1.61,1.28-4.15,1.61-4.06,4.67,0,1.15-1.71,1.5-2.86.64-2.5-1.89-5.78-1.55-8.44-3-1-.54-1.55-1-1.49-2.17.07-1.39.91-1.1,1.82-1.08.53,0,1-.54,1.61-.62a2,2,0,0,0,1.92-2.17v0c.1-1.21-.77-1.42-1.66-1.66-.68-.18-1.37-.4-1.14-1.36a.73.73,0,0,1,.8-.65.67.67,0,0,1,.31.1c2,.93,2.27-.82,2.53-1.83a2.58,2.58,0,0,0-1.47-3.35h0a7.3,7.3,0,0,0-3.66-.59c-1.18.07-2.35-.43-2.42-1.63-.08-1.36,2-.74,2.38-1.88,0,0,.49,0,.52.06,1.47,3.15,5.05,2.58,7.38,4.2.6.41,1.38.59,1.62,1.54C1433.41,1090.21,1434.54,1090.78,1438,1090.05Zm-2.26,4.53c0-.54.44-1.41-.42-1.93s-2-.89-2.43-.26c-.9,1.51-5.83.32-3,4.31.06.08-.22.47-.41.63-.5.42-1.44.77-.78,1.54s1.28,0,1.86-.55c.32-.29,1.07-.14,1.31-.44C1433,1096.59,1435.4,1097,1435.76,1094.58Z"/><path id="Tracé_38" data-name="Tracé 38" class="cls-2" d="M972,1034.61a7,7,0,0,0,5.59.57,2.12,2.12,0,0,1,2.12.81c1.48,2.57,4.44,3,6.64,4.29,1.52.93,4.34,0,6.5-.46a10,10,0,0,1,8.33,1.24c.31.22.66.66,1,.62,4-.49,6.94,3.55,11.09,2.61a1.13,1.13,0,0,1,1.36.85,1.06,1.06,0,0,1,0,.61c-.25.9-.68,2-2,1.31-2.12-1.19-4.41-.25-6.61-.7-2-.42-4-.14-4.6-2.9-.27-1.35-2.9-1.65-3.92-.48-.59.67-1.06,1.83-2,1.46-3.63-1.52-8,.36-11.36-2.43a1.75,1.75,0,0,0-2.14-.45c-1.37.79-1.79.17-2.13-1.22s-1.22-2.46-2.47-.49c-.29.46-.91.83-1.12.28-.87-2.32-2.54-1.47-3.88-.93-2.51,1-3.7-1.56-5.7-1.9-.41-.07-.24-1.22,0-1.21C968.57,1036.13,970,1034.49,972,1034.61Z"/><path id="Tracé_39" data-name="Tracé 39" class="cls-2" d="M943.92,1026.51a9.31,9.31,0,0,1,13.12,0c.83,1-.35,1.52-.87,2.1a4.76,4.76,0,0,0-1,5.11,3.32,3.32,0,0,0,4,1.92,5.24,5.24,0,0,1,3.2-.29c1.69.2,2.79.87,2.57,3.1a39.78,39.78,0,0,1-6.75-1.28c-2.21-.81-4.63-.28-6.75-1.45-.71-.39-1.43.2-2.15.58a3.22,3.22,0,0,1-4.39-.55c-.65-.83-1.4-.37-2.09-.55-1.74-.45-4,.78-5.17-1.65-.27-.56-1.13-.22-1.64,0-1.41.55-2.19-.27-3-1.2-.37-.44-.52-1.07,0-1.2,1.22-.28,1.84-2.3,3.26-1.43,2.6,1.59,6.44.31,8.24,3.71.51,1,1.05.24,1.51-.33a2.76,2.76,0,0,1,3.8-.87l.08,0c1.44.8,2.22-.08,3.21-1a2.2,2.2,0,0,0,.71-2.55c-.52-1.63-1.8-1.1-2.93-1C948.57,1027.77,946.63,1025.94,943.92,1026.51Z"/><path id="Tracé_40" data-name="Tracé 40" class="cls-2" d="M1635.89,1209.26a11.59,11.59,0,0,0,4.29-.6,1.73,1.73,0,0,0,1.29-2.1,1.62,1.62,0,0,0-.21-.51,6.81,6.81,0,0,0-8.17-3.63c-1.28.45-2.48.82-3.51-.28-.43-.46-.1-1.12.27-1.6a2.87,2.87,0,0,1,3.65-.86c2.55,1,5.24,1.56,7.83,2.38a25.23,25.23,0,0,0,7.74.82,4.9,4.9,0,0,1,3.74,1.36,3.75,3.75,0,0,1,.52,3.61c-.23,1-1.52,1-2.52.93a25.68,25.68,0,0,1-2.91,0c-2-.31-2.8.4-3.23,2.36-.65,3-3.07,3.61-5.25,1.33a9.5,9.5,0,0,0-4.57-2.24c-.7-.21-2.19.61-1.89-.9S1634.44,1208.76,1635.89,1209.26Z"/><path id="Tracé_41" data-name="Tracé 41" class="cls-2" d="M1644.19,967.53c-.35-2.33,1.68-2.66,2.89-2.49a16.73,16.73,0,0,1,6.45,1.8,17.9,17.9,0,0,0,6.71,2.4,22.9,22.9,0,0,1,11.53,3.94c-1.5.63-3.58.49-3.06,2.9.15.72-.9.94-1.58,1-1.05.05-.91-.77-.93-1.44s.54-1.52-.31-2.49c-.82,3.07-3.65.09-5,1.89-.13-.11-.34-.19-.38-.32-1.12-3.49-3.58-2.11-5.74-1.52-.66.18-1.27.36-1.48-.3-.89-2.72-3.38-2.27-5.18-2.22s-3,.32-2.58-2.06c0-.1-.62-.32-1-.48Z"/><path id="Tracé_42" data-name="Tracé 42" class="cls-2" d="M1284,1092.46c-.54,2.85-2.31,3.72-4.75,2.06a16.34,16.34,0,0,0-7.62-2,22.69,22.69,0,0,1-10.58-2.82c-1.49-1-3.3-1.33-4.48-3.13a1.87,1.87,0,0,0-2.49-.88,1.91,1.91,0,0,0-1,1.19.83.83,0,0,1-1.1.43.8.8,0,0,1-.36-.3c-.46-.48.08-.79.33-1.19,1.07-1.72,2.59-1.18,4.14-1.07s3.72,1.83,4.65-1.11c.14-.43.56-.5.94-.18.61.56,1,1.19.45,2-.37.51-1.25.93-.65,1.68s1.36.55,2.13.14c2-1.06,3.65.4,5.21,1.11a17.57,17.57,0,0,0,11.07.61,5,5,0,0,1,3.56.74C1284.86,1090.46,1283.86,1091.74,1284,1092.46Z"/><path id="Tracé_43" data-name="Tracé 43" class="cls-2" d="M602.39,734.74c.2.21.41.61.74.73,1.61.63,3.29,2.49,4.72-.47a2.45,2.45,0,0,1,2.75-1.21c1.13.41.86,1.65,1,2.57a6.82,6.82,0,0,0,6.56,6.21c.75,0,1.68-.38,1.71.9a1.27,1.27,0,0,1-1.05,1.45,1.53,1.53,0,0,1-.37,0,3.85,3.85,0,0,0-3.28,1.56c-.9,1.19-2.2.67-3.09-.13a10.66,10.66,0,0,0-4.95-3c-.92-.21-.51-2.89-2.65-2.58.36-2.67-2.24-2.19-3.45-3.18-.63-.51-1-.9-.52-1.68S601.31,734.61,602.39,734.74Z"/><path id="Tracé_44" data-name="Tracé 44" class="cls-2" d="M1386,869.74l-19.42-3.43a3.78,3.78,0,0,1-1.62-.59,1.53,1.53,0,0,1-.27-1.89c.32-.63,1-.39,1.53,0,2.4,1.75,5.06,1.1,7.73,1.2a64.43,64.43,0,0,1,11.9,1.47,74,74,0,0,0,8.58,1.84c.76.08,2.33.07,2.08,1.44-.15.88-1.43,1.07-2.24.81a30.8,30.8,0,0,0-8.36-.08C1385.89,870.23,1385.92,870,1386,869.74Z"/><path id="Tracé_45" data-name="Tracé 45" class="cls-2" d="M1770.07,1144.12c3.64-.09,6.35,2,9.47,2.69a3.32,3.32,0,0,1,1.67,4.39,3.2,3.2,0,0,1-.87,1.16c-.45.34-1.5.82-1.57-.3-.17-2.54-1.52-3.15-3.88-3.59-1.53-.29-3.31,0-4.75-1a1.42,1.42,0,0,0-1.09,0c-1,3.76-4.35.83-6.23,2.12a1.24,1.24,0,0,1-1.74-.33l-.06-.09c-.43-.78.06-1.33.52-1.81C1763.94,1144.87,1766.12,1141.65,1770.07,1144.12Z"/><path id="Tracé_46" data-name="Tracé 46" class="cls-2" d="M673,985a13,13,0,0,0,7.81,1.86c3.88-.13,7.47,1.36,11.24,1a10,10,0,0,1,2.62.22c1.15.2,2.27.76,1.73,2.11-.47,1.14-1.8,1.15-2.77.71a16.42,16.42,0,0,0-8.25-.69c-1.47.09-3-.72-4.61-.66a41.58,41.58,0,0,1-11-.76c-1-.23-1-1.08-1-1.83s.1-1.86,1.32-2C671,985,671.86,985,673,985Z"/><path id="Tracé_47" data-name="Tracé 47" class="cls-2" d="M1660.39,1207.84c3.59-.81,6.44,1.53,9.66,2.11a7.69,7.69,0,0,1,5.79,2.94,1.91,1.91,0,0,0,2.13.71c3.22-1,6.22.64,9.36.7a2.24,2.24,0,0,1,2.33,2.14,2.22,2.22,0,0,1-.07.68c-.39,2-2,1.17-3.1.86-1.38-.39-2.69-1.78-4-1.67a20.52,20.52,0,0,1-11.08-2.39,5.4,5.4,0,0,0-3.13-.28c-.61,0-1.51.3-1.48-.82.06-3-2.1-3.35-4.29-3.78C1661.78,1208.89,1660.72,1209.14,1660.39,1207.84Z"/><path id="Tracé_48" data-name="Tracé 48" class="cls-2" d="M1185.34,1080c2,1.56,5.07-.9,6.52,1.82,5.55,0,10.13,3.73,15.62,4,1,.06,2.55,0,2.51,1.78a1.71,1.71,0,0,1-1.13,1.85c-1.49.49-3.27.6-4-.71a5.62,5.62,0,0,0-6.07-2.94,2.58,2.58,0,0,1-1.93-.53c-1.36-1.48-2.31-1.06-3.65.12s-6.41-.9-7-2.65C1185.81,1081.87,1185.6,1080.92,1185.34,1080Z"/><path id="Tracé_49" data-name="Tracé 49" class="cls-2" d="M1235.54,1092.87c-1.4,1.44-2.42,3-4.56,2.36a1.35,1.35,0,0,0-1.54.63c-1.5,2.32-2.59,2.05-3.78-.35-1.59-3.19-2,1.11-3.23.59-.38-1,.58-1.74.59-2.7s.46-2.41-1.36-1.14c-.51.36-1,.36-1.14-.2a13.81,13.81,0,0,1-.49-3.39c0-.42,1.09-.5,1.22-.17.92,2.37,3.28,1.58,4.6,1.53C1229.42,1089.86,1232.14,1091.77,1235.54,1092.87Z"/><path id="Tracé_50" data-name="Tracé 50" class="cls-2" d="M1178.77,1070.57c-4.13-1.66-8.62-.81-12.53-2.93-1-.52-1.5-1.06-.85-2a9.33,9.33,0,0,1,5.86-3.37.62.62,0,0,1,.55.13C1173.9,1065.13,1178.14,1065.89,1178.77,1070.57Z"/><path id="Tracé_51" data-name="Tracé 51" class="cls-2" d="M1709.43,1133.68c-.93,0-1.32-.5-1.64-1.31-1.76-4.52-4.56-5.43-9-3.17-1,.49-2.17,1.29-3.28.37s.12-2,.28-2.91a2,2,0,0,1,2.42-1.93c1.72.21,3.45.43,5.18.56a1.13,1.13,0,0,1,1.23.92c.48,1.65,1.09,2.17,2.07.23.91-1.78,2.22-.25,3.34-.21a1.82,1.82,0,0,1,1.91,1.51c.21,1.35-.64,1.65-1.8,2.09C1708.1,1130.58,1710.32,1132.46,1709.43,1133.68Z"/><path id="Tracé_52" data-name="Tracé 52" class="cls-2" d="M1064.7,805.12c.14-.23.44-.53.38-.68-1.3-3.13,1-3.66,3.09-4.37,1.47-.49,1.82.13,1.53,1.41a8.24,8.24,0,0,1-7.63,4.46c-2-.6-2.17-2.88-3.6-4.09-.44-.38.39-2.34,1.71-3,1.52-.76,2.76-.87,2.61,1.35C1062.66,802.16,1064.13,803.42,1064.7,805.12Z"/><path id="Tracé_53" data-name="Tracé 53" class="cls-2" d="M740,995.24a1.35,1.35,0,0,1-1.45.41,10.48,10.48,0,0,0-7.68.57,4.3,4.3,0,0,1-4-.44,6.06,6.06,0,0,0-4.51-.58,2.57,2.57,0,0,1-3.09-1.59c-.33-.6-.6-1.57.13-2.12a3.08,3.08,0,0,1,3.34-.07,8,8,0,0,1,2.12,1.49c1.76,1.76,2.81-.13,4.23-.57,1.09-.34.62,2.81,3.35,1.69A7.59,7.59,0,0,1,740,995.24Z"/><path id="Tracé_54" data-name="Tracé 54" class="cls-2" d="M743.55,996.38c1.44-.69,2.89-.65,4-1.78.37-.38,1.28-.37,1.94-.34,1.08,0,2.49,2.5,3.09-.49,1.52.41,3.7.35,4.41,1.33.93,1.32-.14,2.62-2,3.32a5.85,5.85,0,0,1-5.69-.08A12.05,12.05,0,0,0,743.55,996.38Z"/><path id="Tracé_55" data-name="Tracé 55" class="cls-2" d="M647.94,983c4.2.5,8.39-.46,11.65,2.76.77.76,1.3-.32,1.95-.58a6.27,6.27,0,0,1,4.23-.09c.12,0,.17.7.15.72-1.23.45-1.92,1.62-3.45,1.89a26.14,26.14,0,0,1-9.48-1.43A5.85,5.85,0,0,1,647.94,983Z"/><path id="Tracé_56" data-name="Tracé 56" class="cls-2" d="M707.61,989c2-.84,2.82,2.86,5.26,2.27a6.35,6.35,0,0,1,.31,2c-.13.73-.92.7-1.44.43a12.12,12.12,0,0,0-6.53-1.05c-.64,0-1.64-.07-1.91-.48-1-1.45-1.62-1.83-2.67-.06-.33.54-1.32.22-1.87-.2-.38-.29-.71-.92-.13-1.21,1-.49.06-2.36,1.8-2.19C702.65,988.73,704.88,988.84,707.61,989Z"/><path id="Tracé_57" data-name="Tracé 57" class="cls-2" d="M1667.42,1112.94c-.71,1.15,1.12,2.66-.94,3.62-.79.37-.13,1.59.72,2.09a1.35,1.35,0,0,1,.47,2c-.37.76-1.14.61-1.8.51a7,7,0,0,1-5.63-4.42c-.61-1.41,1.09-3,3.39-2.81A5.29,5.29,0,0,0,1667.42,1112.94Z"/><path id="Tracé_58" data-name="Tracé 58" class="cls-2" d="M399.82,867.55c3.21.18,6.25-1.31,9.48,0,1.34.54,2.86-.9,3.8-2.08.55-.69,1.18-1.42,1.82-1,.94.65-.21,1.17-.47,1.81a6.05,6.05,0,0,1-6.43,4.3C405.15,870.36,401.46,871.82,399.82,867.55Z"/><path id="Tracé_59" data-name="Tracé 59" class="cls-2" d="M1026.69,1048.61a5,5,0,0,1,6.81,0c1.55,1.26,3.17.58,4.77.66,1,0,2.3-.58,2.54,1,.29,2-1.11.82-1.87,1-1.18.27-1.53,2.54-3,1.81C1033,1051.58,1029.36,1051.39,1026.69,1048.61Z"/><path id="Tracé_60" data-name="Tracé 60" class="cls-2" d="M362,868.38A16,16,0,0,1,371.5,867a9.27,9.27,0,0,0,4.93.08c3-1,4.26.33,5.12,3.5C375.3,867.68,368.76,871.07,362,868.38Z"/><path id="Tracé_61" data-name="Tracé 61" class="cls-2" d="M1627.31,1186.52c1,.62,2.28,1.38,3.52,2.1a17.6,17.6,0,0,0,3.05,1.65c.91.3,1.93.27,2.26,1.39a.84.84,0,0,1-.32.65c-1.16.8-2.18,0-2.9-.61-1-.86-1.4-.87-2.58-.16a4.38,4.38,0,0,1-4.44-.61c-.86-.6-1.17-1.84-2.68-1.34-.37.13-.6-.86-.5-1.48a1.69,1.69,0,0,1,1.48-1.6A29.32,29.32,0,0,1,1627.31,1186.52Z"/><path id="Tracé_62" data-name="Tracé 62" class="cls-2" d="M1679.88,977.29c-2.61.91-3.4-2.59-5.73-3.09-.44-.09-.78-.93-.23-1.12,1.62-.58,1.12-1.8,1.14-2.92,0-.87.66-1,1.41-1.14a1.19,1.19,0,0,1,1.49.76,1.14,1.14,0,0,1,0,.52c-.31,3.1,1.88,3.88,4.07,4.88.78.35,2.6.34,1.87,2-.57,1.3-1.81.69-2.83.36A9.89,9.89,0,0,0,1679.88,977.29Z"/><path id="Tracé_63" data-name="Tracé 63" class="cls-2" d="M1552.12,1171.23c-1-.63-2.87-1.28-2.86-2.84s1.39-2.58,3.29-2a1.09,1.09,0,0,0,.84-.18c2.24-1.92,2.95.73,4.3,1.44.55.29.38.75.11,1.22a4.22,4.22,0,0,1-4.46,2.43C1553.05,1171.23,1552.76,1171.25,1552.12,1171.23Z"/><path id="Tracé_64" data-name="Tracé 64" class="cls-2" d="M1649.45,1197.06c8-3.13,11-2.52,12.37,3C1657.83,1197.78,1653.15,1200.58,1649.45,1197.06Z"/><path id="Tracé_65" data-name="Tracé 65" class="cls-2" d="M1848.69,1149.21c.9,0,1-.42,1.16-.79.35-.76.87-1.5,1.76-1,.68.42.31,1.24.11,1.88-1.17,3.66-1.87,3.88-4.42,1.18-2.32-2.44-2.38,1-3.82,1.38a3.61,3.61,0,0,0-1.72-3.91c-.88-.56-1.62-1.79-.56-2.73s1.13.59,1.63,1c1,.78,2.54,1.31,3.28.8C1849.58,1144.62,1848.24,1148.05,1848.69,1149.21Z"/></g></svg>