<svg id="Calque_1" data-name="Calque 1" xmlns="http://www.w3.org/2000/svg" viewBox="0 0 249 216"><defs><style>.cls-1{fill:#2C3532;}</style></defs><path class="cls-1" d="M165.6,76.56q0,10.68,0,21.36c0,18.25-13.08,34.8-31.11,39.82-21.21,5.91-44.37-6.54-51-28.2a43.54,43.54,0,0,1-2-12.91c.06-13.65,0-27.3,0-40.95a40.62,40.62,0,0,1,9.58-26.9c9.62-11.51,22.11-16.77,36.93-15.33C147,15.3,162,29.93,165.11,48.78a45,45,0,0,1,.5,7.41q0,10.19,0,20.37ZM91.45,76h0c0,7.7-.23,15.42.06,23.11a29.67,29.67,0,0,0,9.54,21.06c9.63,9.06,20.93,11.53,33.5,7.23A31.36,31.36,0,0,0,155.83,98.6c.41-14.62.23-29.25,0-43.88a31.37,31.37,0,0,0-7.29-19.85,32.35,32.35,0,0,0-35.55-10c-12.46,4.24-21.5,16.35-21.57,29.51C91.42,61.58,91.45,68.77,91.45,76Z"/><path class="cls-1" d="M100.28,180.63a4.81,4.81,0,0,1,6.52-4.35,8.5,8.5,0,0,1,2.81,2.09c4.18,4.22,8.39,8.42,12.51,12.7,1.11,1.15,1.81,1.24,3,0q6.61-6.81,13.41-13.46c2.62-2.57,6.1-2.24,7.86.64a4.51,4.51,0,0,1-.79,5.92q-9.12,9.28-18.45,18.39c-2.28,2.21-4.71,2.17-7,0-6.2-6.07-12.32-12.24-18.45-18.39A4.57,4.57,0,0,1,100.28,180.63Z"/><path class="cls-1" d="M124,178.61a5.15,5.15,0,0,1-4-1.61c-6.09-6.09-12.22-12.16-18.26-18.31a4.69,4.69,0,0,1,.07-7,4.61,4.61,0,0,1,6.68.17q6.9,6.66,13.6,13.54c1.17,1.2,1.86,1.33,3.1.05,4.31-4.46,8.75-8.8,13.15-13.18,2.41-2.4,5.18-2.56,7.23-.45s2,4.74-.43,7.22q-8.47,8.58-17,17.11C126.94,177.43,125.67,178.69,124,178.61Z"/><path class="cls-1" d="M128.62,50.68c0,2.15.07,4.3,0,6.44-.14,3.31-2.15,5.39-5,5.34s-4.82-2.23-4.85-5.48q-.06-6.36,0-12.7c0-3.19,2.13-5.49,4.9-5.48s4.81,2.1,4.95,5.24C128.7,46.25,128.62,48.46,128.62,50.68Z"/></svg>