<svg id="Calque_1" data-name="Calque 1" xmlns="http://www.w3.org/2000/svg" viewBox="0 0 2000 2000"><defs><style>.cls-1{isolation:isolate;}.cls-2{fill:none;stroke:#d0e8e2;stroke-miterlimit:10;}</style></defs><title>Plan de travail 1 copie 4</title><g id="OU" class="cls-1"><g class="cls-1"><path class="cls-2" d="M704.72,763.49a11,11,0,0,1-3.67-.65,9.68,9.68,0,0,1-3.3-2,9.18,9.18,0,0,1-2.33-3.35,12.9,12.9,0,0,1-.86-5v-55a12.93,12.93,0,0,1,.86-5,9.18,9.18,0,0,1,2.33-3.35,9.68,9.68,0,0,1,3.3-2,11,11,0,0,1,3.67-.65h1.95a11,11,0,0,1,3.67.65,9.68,9.68,0,0,1,3.3,2,9.18,9.18,0,0,1,2.33,3.35,12.93,12.93,0,0,1,.86,5v55a12.9,12.9,0,0,1-.86,5,9.18,9.18,0,0,1-2.33,3.35,9.68,9.68,0,0,1-3.3,2,11,11,0,0,1-3.67.65Zm.76-69.73q-2.49,0-2.49,5.08v52.43a8.6,8.6,0,0,0,.65,4,2,2,0,0,0,1.84,1.13h.43a2,2,0,0,0,1.84-1.13,8.6,8.6,0,0,0,.65-4V698.84q0-5.08-2.49-5.08Z"/><path class="cls-2" d="M730.4,763.49a11.69,11.69,0,0,1-3.66-.6,8.65,8.65,0,0,1-3.28-1.94,10.27,10.27,0,0,1-2.36-3.41,12.15,12.15,0,0,1-.92-5v-65.3h8.43v64a8.6,8.6,0,0,0,.65,4,2,2,0,0,0,1.84,1.13h.54a1.93,1.93,0,0,0,1.73-1.13,8.6,8.6,0,0,0,.65-4v-64h8.43v65.3a12.71,12.71,0,0,1-.86,5,9,9,0,0,1-2.31,3.35,9.69,9.69,0,0,1-3.28,2,11.28,11.28,0,0,1-3.77.65Z"/></g></g><g id="INITIAL" class="cls-1"><g class="cls-1"><path class="cls-2" d="M753.91,841.33v453.42H703.32V841.33Z"/><path class="cls-2" d="M871.31,1294.75,817.47,998.31h-1.29v296.44H774V841.33H831.1l50.59,290.6V841.33h46.06v453.42Z"/><path class="cls-2" d="M998.45,841.33v453.42H947.86V841.33Z"/><path class="cls-2" d="M1148.93,884.14h-43.46v410.61h-50.59V884.14h-44.11V841.33h138.16Z"/><path class="cls-2" d="M1211.85,841.33v453.42h-50.6V841.33Z"/><path class="cls-2" d="M1313,1174.75h-35.67l-9.73,120h-43.46l40.21-453.42h64.87l42.81,453.42h-48.65Zm-32.43-37.63h29.19l-13.62-155.68h-2Z"/><path class="cls-2" d="M1434.33,841.33v415.15h53.84v38.27H1383.73V841.33Z"/></g></g></svg>