<svg id="Calque_1" data-name="Calque 1" xmlns="http://www.w3.org/2000/svg" viewBox="0 0 2000 2000"><defs><style>.cls-1{isolation:isolate;}.cls-2{fill:none;stroke:#d0e8e2;stroke-miterlimit:10;}</style></defs><title>Plan de travail 1 copie 6</title><g id="EST_LE" data-name="EST LE" class="cls-1"><g class="cls-1"><path class="cls-2" d="M426.68,711.22V758.4h12.63v11H426.68v47.18H444V828.8H412.19V699h30.65v12.26Z"/><path class="cls-2" d="M472,751.15v-32.5q0-4.83-1.12-6.69a3.48,3.48,0,0,0-3.15-1.86H467a3.46,3.46,0,0,0-3.15,1.95q-1.12,2-1.12,6.78v15.6A30.93,30.93,0,0,0,466.43,750a128.25,128.25,0,0,0,8.17,12.54,122.19,122.19,0,0,1,8.17,12.63,31.83,31.83,0,0,1,3.72,15.88v20.06A22.07,22.07,0,0,1,485,819.7a16.23,16.23,0,0,1-3.9,5.75,16,16,0,0,1-5.57,3.35,19.52,19.52,0,0,1-6.5,1.11h-2.79a21,21,0,0,1-6.5-1,15.84,15.84,0,0,1-5.76-3.34,17,17,0,0,1-4.18-5.85,21,21,0,0,1-1.58-8.55V776.42h13.19v32.5c0,3.22.49,5.48,1.49,6.78a4.34,4.34,0,0,0,3.53,1.95h.74a4.12,4.12,0,0,0,3.44-1.95c.92-1.3,1.39-3.56,1.39-6.78v-15.6a31,31,0,0,0-3.72-15.61,128.75,128.75,0,0,0-8.17-12.53,122.68,122.68,0,0,1-8.17-12.63,31.86,31.86,0,0,1-3.72-15.89V716.6a20.87,20.87,0,0,1,1.58-8.54,16.35,16.35,0,0,1,9.75-9.1,18.73,18.73,0,0,1,6.32-1.12h1.86a18.38,18.38,0,0,1,6.4,1.12,17,17,0,0,1,5.58,3.34,15.78,15.78,0,0,1,4,5.76,22,22,0,0,1,1.49,8.54v34.55Z"/><path class="cls-2" d="M529.39,711.22H517V828.8H502.46V711.22H489.83V699h39.56Z"/><path class="cls-2" d="M567.47,699V817.84h15.42v11H553V699Z"/><path class="cls-2" d="M600.9,711.22V758.4h12.63v11H600.9v47.18h17.28V828.8H586.41V699h30.65v12.26Z"/></g></g><g id="MEILLEUR" class="cls-1"><g class="cls-1"><path class="cls-2" d="M597.44,932.61v432.81H557.2v-283h-.62l-31,283H490.33l-30.34-283h-1.24v283H418.5V932.61H481l26,247.05h1.24l27.25-247.05Z"/><path class="cls-2" d="M665.55,973.48v157.27h42.1v36.53h-42.1v157.27h57.58v40.87H617.25V932.61H719.42v40.87Z"/><path class="cls-2" d="M786.28,932.61v432.81H738V932.61Z"/><path class="cls-2" d="M854.38,932.61v396.27h51.39v36.54H806.09V932.61Z"/><path class="cls-2" d="M965.83,932.61v396.27h51.39v36.54H917.53V932.61Z"/><path class="cls-2" d="M1077.28,973.48v157.27h42.1v36.53h-42.1v157.27h57.58v40.87H1029V932.61h102.16v40.87Z"/><path class="cls-2" d="M1208.26,1369.13a67.5,67.5,0,0,1-21-3.41,49.85,49.85,0,0,1-18.8-11.14,59,59,0,0,1-13.55-19.5q-5.23-11.76-5.24-28.49v-374H1198v366.55q0,16.11,3.71,22.6c2.48,4.34,6,6.5,10.53,6.5h3.1c4.12,0,7.43-2.16,9.9-6.5s3.72-11.86,3.72-22.6V932.61h48.29v374q0,16.73-4.93,28.49a52.46,52.46,0,0,1-13.24,19.19,56.44,56.44,0,0,1-18.8,11.15,64.24,64.24,0,0,1-21.57,3.71Z"/><path class="cls-2" d="M1424,1107.22q0,19.82-6.12,29.41t-15.28,12.69q9.17,2.49,15.28,12.08t6.12,29.41V1288q0,21.06.93,35.29t2.16,23.22a104.3,104.3,0,0,0,2.48,13.31,39,39,0,0,0,1.86,5.58h-48.39q-4.29-7.44-5.81-25.7t-1.53-51.7v-92.88q0-27.86-12.38-27.86h-18.58v198.14h-48.29V932.61h69.63q24,0,41,16.1t17,45.82Zm-60.68,24.15q12.38,0,12.38-27.25V1002q0-28.47-14.24-28.48h-16.72v157.89Z"/></g></g></svg>