<svg id="Calque_1" data-name="Calque 1" xmlns="http://www.w3.org/2000/svg" viewBox="0 0 2000 2000"><defs><style>.cls-1{isolation:isolate;}.cls-2{fill:none;stroke:#d0e8e2;stroke-width:3px;}</style></defs><title>Plan de travail 1 copie</title><g id="ALTERNANCE" class="cls-1"><g class="cls-1"><path class="cls-2" d="M461,1164.47H431.86l-7.95,98H388.4l32.86-370.47h53l35,370.47H469.49Zm-26.5-30.74h23.85l-11.13-127.2h-1.59Z"/><path class="cls-2" d="M560.11,892.05v339.2h44v31.27H518.77V892.05Z"/><path class="cls-2" d="M701.09,927H665.58v335.49H624.24V927h-36v-35H701.09Z"/><path class="cls-2" d="M752.5,927v134.62h36v31.27h-36v134.62h49.29v35H711.16V892.05h87.45v35Z"/><path class="cls-2" d="M923.68,1041.51q0,17-5.23,25.17c-3.5,5.48-7.85,9.1-13.09,10.87,5.24,1.41,9.59,4.86,13.09,10.33s5.23,13.87,5.23,25.18v83.21q0,18,.8,30.21t1.85,19.87a89.62,89.62,0,0,0,2.12,11.4,36.46,36.46,0,0,0,1.59,4.77H888.62q-3.66-6.36-5-22t-1.31-44.25v-79.5q0-23.85-10.6-23.85h-15.9v169.6H814.5V892.05h59.6q20.58,0,35.07,13.78t14.51,39.22Zm-51.94,20.67q10.6,0,10.6-23.32V951.41q0-24.37-12.19-24.38H855.84v135.15Z"/><path class="cls-2" d="M1022.79,1262.52l-44-242.21h-1v242.21H943.29V892.05h46.63l41.34,237.44V892.05h37.63v370.47Z"/><path class="cls-2" d="M1151,1164.47h-29.15l-8,98h-35.51l32.86-370.47h53l35,370.47h-39.75Zm-26.5-30.74h23.85l-11.13-127.2h-1.59Z"/><path class="cls-2" d="M1287.78,1262.52l-44-242.21h-1.06v242.21h-34.45V892.05h46.64l41.34,237.44V892.05h37.63v370.47Z"/><path class="cls-2" d="M1399.61,1265.7a53.75,53.75,0,0,1-18-3.18,48.2,48.2,0,0,1-16.17-9.54,44.78,44.78,0,0,1-11.39-16.43q-4.26-10.07-4.24-24.38V942.4q0-14.31,4.24-24.38a44.78,44.78,0,0,1,11.39-16.43,48.2,48.2,0,0,1,16.17-9.54,53.75,53.75,0,0,1,18-3.18h9.54a53.93,53.93,0,0,1,18,3.18,48.35,48.35,0,0,1,16.16,9.54,45,45,0,0,1,11.4,16.43q4.23,10.07,4.24,24.38v99.11h-41.34V948.23q0-13.79-3.18-19.08a10,10,0,0,0-9-5.3h-2.12c-3.9,0-6.89,1.85-9,5.56s-3.18,10.16-3.18,19.35v257q0,13.79,3.18,19.34c2.12,3.71,5.11,5.57,9,5.57h2.12q5.82,0,9-5.57t3.18-19.34v-93.28H1459v99.64q0,14.31-4.24,24.38a45,45,0,0,1-11.4,16.43,48.35,48.35,0,0,1-16.16,9.54,53.93,53.93,0,0,1-18,3.18Z"/><path class="cls-2" d="M1516.73,927v134.62h36v31.27h-36v134.62H1566v35h-90.63V892.05h87.45v35Z"/></g></g></svg>