<svg id="Calque_1" data-name="Calque 1" xmlns="http://www.w3.org/2000/svg" viewBox="0 0 2000 2000"><defs><style>.cls-1{isolation:isolate;}.cls-2,.cls-3{fill:none;stroke:#d0e8e2;}.cls-2{stroke-miterlimit:10;}.cls-3{stroke-width:3px;}</style></defs><title>Plan de travail 1 copie 8</title><g id="NOTRE_DÉPARTEMENT" data-name="NOTRE DÉPARTEMENT" class="cls-1"><g class="cls-1"><path class="cls-2" d="M391.88,858.2l-14.71-81h-.36v81H365.29V734.28h15.6l13.83,79.42V734.28h12.59V858.2Z"/><path class="cls-2" d="M429.29,859.26a18,18,0,0,1-6-1.06,16.19,16.19,0,0,1-5.41-3.19,15.11,15.11,0,0,1-3.81-5.5,20.86,20.86,0,0,1-1.42-8.15V751.12A20.86,20.86,0,0,1,414,743a15.11,15.11,0,0,1,3.81-5.5,16.19,16.19,0,0,1,5.41-3.19,18,18,0,0,1,6-1.06h3.19a18,18,0,0,1,6,1.06,16.15,16.15,0,0,1,5.4,3.19,14.87,14.87,0,0,1,3.81,5.5,20.86,20.86,0,0,1,1.42,8.15v90.24a20.86,20.86,0,0,1-1.42,8.15,14.87,14.87,0,0,1-3.81,5.5,16.15,16.15,0,0,1-5.4,3.19,18,18,0,0,1-6,1.06Zm1.24-114.34q-4.08,0-4.08,8.33v86c0,3.08.36,5.23,1.06,6.47a3.32,3.32,0,0,0,3,1.86h.71a3.31,3.31,0,0,0,3-1.86c.71-1.24,1.06-3.39,1.06-6.47v-86q0-8.32-4.07-8.33Z"/><path class="cls-2" d="M490.09,746H478.22V858.2H464.39V746H452.33v-11.7h37.76Z"/><path class="cls-2" d="M530,784.27c0,3.79-.58,6.59-1.75,8.43a8.37,8.37,0,0,1-4.38,3.63,7.53,7.53,0,0,1,4.38,3.46q1.75,2.75,1.75,8.42V836q0,6,.27,10.11t.62,6.64a27.86,27.86,0,0,0,.71,3.81,10.88,10.88,0,0,0,.53,1.6H518.25q-1.23-2.13-1.66-7.36t-.44-14.8V809.45q0-8-3.54-8h-5.32V858.2H493.46V734.28H513.4a16.44,16.44,0,0,1,11.73,4.61Q530,743.51,530,752Zm-17.37,6.92q3.54,0,3.54-7.8V754.14q0-8.16-4.07-8.16h-4.79v45.21Z"/><path class="cls-2" d="M550.54,746v45H562.6v10.46H550.54v45H567v11.7H536.71V734.28H566V746Z"/></g><g class="cls-1"><path class="cls-2" d="M371.14,1345.72V974h59.28a59.58,59.58,0,0,1,18.52,2.93,44.73,44.73,0,0,1,16.14,9.31,45.28,45.28,0,0,1,11.38,16.22q4.25,9.84,4.24,24.2v266.45q0,14.36-4.24,24.2a45.37,45.37,0,0,1-11.38,16.22,44.71,44.71,0,0,1-16.14,9.3,59.29,59.29,0,0,1-18.52,2.93Zm41.48-336.65v301.55h14.9q5.31,0,8.5-5t3.2-18.89V1033q0-13.29-3.2-18.62t-8.5-5.31Z"/><path class="cls-2" d="M538.67,1009.07v135.08h36.16v31.38H538.67v135.09h49.46v35.1H497.19V974h87.75v35.11Zm-9-55.85,20.21-45.74h36.7l-31.38,45.74Z"/><path class="cls-2" d="M661,974q20.75,0,35.37,13.83T711,1027.15v121.26q0,24.46-13.83,34.83t-34.57,10.37H642.37v152.11H600.89V974Zm8,59.57q0-24.45-12.24-24.46H642.37v150h16q10.63,0,10.64-23.4Z"/><path class="cls-2" d="M782.25,1247.33H753l-8,98.39H709.39l33-371.76h53.19l35.1,371.76H790.76Zm-26.59-30.85h23.93l-11.17-127.64h-1.59Z"/><path class="cls-2" d="M949.77,1123.94q0,17-5.25,25.26t-13.13,10.91q7.88,2.13,13.13,10.37t5.25,25.26v83.5q0,18.09.8,30.31t1.86,20a89.58,89.58,0,0,0,2.13,11.43,34.08,34.08,0,0,0,1.6,4.79H914.59q-3.68-6.39-5-22.07t-1.31-44.41v-79.78q0-23.93-10.64-23.93H881.7v170.19H840.22V974H900q20.64,0,35.19,13.83t14.56,39.36Zm-52.12,20.74q10.64,0,10.64-23.4v-87.75q0-24.45-12.23-24.46H881.7v135.61Z"/><path class="cls-2" d="M1076.35,1009.07h-35.64v336.65H999.23V1009.07H963.06V974h113.29Z"/><path class="cls-2" d="M1127.93,1009.07v135.08h36.17v31.38h-36.17v135.09h49.46v35.1h-90.94V974h87.75v35.11Z"/><path class="cls-2" d="M1343.32,974v371.76h-34.57v-243h-.53l-26.59,243h-30.32l-26.06-243h-1.06v243h-34.57V974h53.72l22.33,212.21h1.07L1290.14,974Z"/><path class="cls-2" d="M1401.82,1009.07v135.08H1438v31.38h-36.16v135.09h49.46v35.1h-90.94V974h87.75v35.11Z"/><path class="cls-2" d="M1543.28,1345.72l-44.14-243h-1.06v243h-34.57V974h46.8l41.48,238.27V974h37.76v371.76Z"/><path class="cls-2" d="M1712.41,1009.07h-35.63v336.65h-41.49V1009.07h-36.16V974h113.28Z"/></g></g><g id="_DÉPARTEMENT" data-name=" DÉPARTEMENT" class="cls-1"><g class="cls-1"><path class="cls-3" d="M371.14,1345.72V974h59.28a59.58,59.58,0,0,1,18.52,2.93,44.73,44.73,0,0,1,16.14,9.31,45.28,45.28,0,0,1,11.38,16.22q4.25,9.84,4.24,24.2v266.45q0,14.36-4.24,24.2a45.37,45.37,0,0,1-11.38,16.22,44.71,44.71,0,0,1-16.14,9.3,59.29,59.29,0,0,1-18.52,2.93Zm41.48-336.65v301.55h14.9q5.31,0,8.5-5t3.2-18.89V1033q0-13.29-3.2-18.62t-8.5-5.31Z"/><path class="cls-3" d="M538.67,1009.07v135.08h36.16v31.38H538.67v135.09h49.46v35.1H497.19V974h87.75v35.11Zm-9-55.85,20.21-45.74h36.7l-31.38,45.74Z"/><path class="cls-3" d="M661,974q20.75,0,35.37,13.83T711,1027.15v121.26q0,24.46-13.83,34.83t-34.57,10.37H642.37v152.11H600.89V974Zm8,59.57q0-24.45-12.24-24.46H642.37v150h16q10.63,0,10.64-23.4Z"/><path class="cls-3" d="M782.25,1247.33H753l-8,98.39H709.39l33-371.76h53.19l35.1,371.76H790.76Zm-26.59-30.85h23.93l-11.17-127.64h-1.59Z"/><path class="cls-3" d="M949.77,1123.94q0,17-5.25,25.26t-13.13,10.91q7.88,2.13,13.13,10.37t5.25,25.26v83.5q0,18.09.8,30.31t1.86,20a89.58,89.58,0,0,0,2.13,11.43,34.08,34.08,0,0,0,1.6,4.79H914.59q-3.68-6.39-5-22.07t-1.31-44.41v-79.78q0-23.93-10.64-23.93H881.7v170.19H840.22V974H900q20.64,0,35.19,13.83t14.56,39.36Zm-52.12,20.74q10.64,0,10.64-23.4v-87.75q0-24.45-12.23-24.46H881.7v135.61Z"/><path class="cls-3" d="M1076.35,1009.07h-35.64v336.65H999.23V1009.07H963.06V974h113.29Z"/><path class="cls-3" d="M1127.93,1009.07v135.08h36.17v31.38h-36.17v135.09h49.46v35.1h-90.94V974h87.75v35.11Z"/><path class="cls-3" d="M1343.32,974v371.76h-34.57v-243h-.53l-26.59,243h-30.32l-26.06-243h-1.06v243h-34.57V974h53.72l22.33,212.21h1.07L1290.14,974Z"/><path class="cls-3" d="M1401.82,1009.07v135.08H1438v31.38h-36.16v135.09h49.46v35.1h-90.94V974h87.75v35.11Z"/><path class="cls-3" d="M1543.28,1345.72l-44.14-243h-1.06v243h-34.57V974h46.8l41.48,238.27V974h37.76v371.76Z"/><path class="cls-3" d="M1712.41,1009.07h-35.63v336.65h-41.49V1009.07h-36.16V974h113.28Z"/></g></g></svg>