<svg xmlns="http://www.w3.org/2000/svg" viewBox="0 0 800 600"><defs><style>.svginst{fill:none;stroke:#FFCB9B;stroke-miterlimit:10;stroke-width:5px;}.svginstt{fill:#FFCB9B;}</style></defs><circle class="svginst" cx="399.5" cy="300.5" r="141"/><g><path class="svginstt" d="M491.75,263.47a53.83,53.83,0,0,0-52.86-54.16q-38.81-.62-77.59,0a53.85,53.85,0,0,0-52.81,51.78c-.38,26.06-.31,52.13,0,78.2a53.35,53.35,0,0,0,46.67,52.58c14.92,2,30,.19,42.19.78,15.4,0,28,.12,40.67,0a54.15,54.15,0,0,0,53.72-53.33Q492.25,301.39,491.75,263.47ZM475.1,341.05a36.64,36.64,0,0,1-35.84,35q-39.12.57-78.25,0A37,37,0,0,1,325,339.39c-.25-12.84,0-25.69,0-38.54,0-12.45-.06-24.9,0-37.34a37.21,37.21,0,0,1,36.74-37.69h.11q38.24-.42,76.47,0a36.69,36.69,0,0,1,36.84,35.81Q476,301.29,475.1,341.05Zm-25.4-96.71c-4.61.27-7.56,2.36-7.6,7.19a7.24,7.24,0,0,0,14.47.62,6.88,6.88,0,0,0-5.87-7.75,6.59,6.59,0,0,0-1-.07Zm-50.47,6.72a50.29,50.29,0,1,0,1,0h-1Zm1.08,83.44a33.6,33.6,0,1,1,33.39-33.82v.6a33.91,33.91,0,0,1-33.41,33.24Z"/><path class="svginstt" d="M449.71,244.33c-4.62.28-7.56,2.36-7.61,7.19a7.25,7.25,0,0,0,14.48.63,6.89,6.89,0,0,0-5.88-7.76A8.22,8.22,0,0,0,449.71,244.33Zm-50.47,6.72a50.83,50.83,0,1,0,1,0h-1Zm1.08,83.45a33.61,33.61,0,1,1,33.38-33.82,5.81,5.81,0,0,1,0,.59,33.9,33.9,0,0,1-33.38,33.25Z"/><path class="svginstt" d="M399.24,251.07a49.77,49.77,0,1,0,1,0Zm1.08,83.45A33.6,33.6,0,1,1,433.7,300.7a5.8,5.8,0,0,1,0,.59A33.9,33.9,0,0,1,400.32,334.52Z"/><path class="svginstt" d="M456.58,252.15a7.25,7.25,0,0,1-14.48-.63c0-4.83,3-6.91,7.61-7.19a6.87,6.87,0,0,1,6.93,6.83A5.49,5.49,0,0,1,456.58,252.15Z"/></g></svg>