<svg xmlns="http://www.w3.org/2000/svg" viewBox="0 0 800 600"><defs><style>.svgtw{fill:none;stroke:#FFCB9B;stroke-miterlimit:10;stroke-width:5px;}.svgtw2{fill:#FFCB9B;}</style></defs><circle class="svgtw" cx="399.5" cy="300.5" r="141"/><g><path class="svgtw2" d="M498.25,237.3v.88a88.41,88.41,0,0,1-15,16.35,12.6,12.6,0,0,0-5,11.18,118.89,118.89,0,0,1-34,82.71,112.4,112.4,0,0,1-130,21.88c-4.15-2.08-8.27-4.23-12.4-6.34v-.9c3.05,0,6.11,0,9.16.08a76,76,0,0,0,44.84-13.43c1.19-.82,3-1.3,3.14-3.23-1.28-1.07-2.83-.79-4.19-1.09a40.62,40.62,0,0,1-29.47-23.66c-1.44-3-1.2-4.51,2.74-4.29a19.1,19.1,0,0,0,10.95-1.2l-3.29-1.41a41,41,0,0,1-25.71-32.77c-1-5.72-.19-6.3,5.12-4.41a16.19,16.19,0,0,0,10.32,1.63c-1.35-1.43-2.31-2.49-3.32-3.5A42,42,0,0,1,313,230.14c1.8-4.42,2.61-4.57,5.74-1.07a121.13,121.13,0,0,0,22.12,19.69,110.45,110.45,0,0,0,50.58,18.94c6.42.7,6.45.45,6.15-5.78a43.12,43.12,0,0,1,.24-8.27,39.4,39.4,0,0,1,24.06-32.48,37.22,37.22,0,0,1,40.27,5.14,11.8,11.8,0,0,0,13,2.3,122.09,122.09,0,0,0,12.89-5.38c1.22-.6,2.35-1.76,4.42-1.26a43,43,0,0,1-15.4,21A87.63,87.63,0,0,0,498.25,237.3Z"/></g></svg>